M48
;DRILL file {KiCad 4.0.7-e2-6376~58~ubuntu16.04.1} date Wed Aug 15 22:40:43 2018
;FORMAT={-:-/ absolute / inch / decimal}
FMAT,2
INCH,TZ
T1C0.016
T2C0.024
T3C0.031
T4C0.039
T5C0.040
%
G90
G05
M72
T1
X6.0827Y-4.2323
X6.0827Y-4.2717
X6.3051Y-4.1305
X6.3381Y-4.0207
X6.3814Y-4.1126
X6.3822Y-4.0209
X6.3976Y-4.2717
X6.437Y-4.2323
X6.437Y-4.3898
X6.4961Y-4.2323
X6.5789Y-4.1044
X6.5972Y-4.0501
X6.6732Y-4.0945
X6.6929Y-4.4094
X6.7913Y-4.0748
X6.8701Y-4.0748
X6.9783Y-4.0293
X6.9783Y-4.4337
X7.1579Y-4.0677
X7.2428Y-4.525
X7.2759Y-4.1453
X7.2794Y-4.4576
T2
X5.8661Y-3.9961
X5.9491Y-4.4213
X6.041Y-4.1362
X6.0438Y-4.3435
X6.2008Y-4.1142
X6.2205Y-4.498
X6.378Y-4.4291
X6.5551Y-4.2323
X6.5551Y-4.311
X6.6929Y-4.311
X6.8504Y-4.4685
X6.8565Y-4.548
X6.859Y-4.3372
X6.8701Y-4.2126
X6.9727Y-4.1292
X7.1555Y-3.9793
X7.1555Y-4.3837
X7.1709Y-4.2046
T3
X5.9506Y-4.3267
X5.9507Y-4.1772
T4
X7.42Y-4.
X7.42Y-4.1
X7.42Y-4.2
X7.42Y-4.3
X7.42Y-4.4
X7.42Y-4.5
T5
X6.337Y-3.9567
X6.437Y-3.9567
X6.537Y-3.9567
T0
M30
