G04 #@! TF.FileFunction,Soldermask,Top*
%FSLAX46Y46*%
G04 Gerber Fmt 4.6, Leading zero omitted, Abs format (unit mm)*
G04 Created by KiCad (PCBNEW 4.0.7-e2-6376~58~ubuntu16.04.1) date Wed Aug 15 22:40:32 2018*
%MOMM*%
%LPD*%
G01*
G04 APERTURE LIST*
%ADD10C,0.100000*%
%ADD11R,2.297380X2.297380*%
%ADD12R,2.400000X0.798780*%
%ADD13C,1.197560*%
%ADD14R,1.400000X1.650000*%
%ADD15R,1.650000X1.400000*%
%ADD16R,1.600000X1.600000*%
%ADD17R,2.100000X2.100000*%
%ADD18O,2.100000X2.100000*%
%ADD19R,1.100000X1.700000*%
%ADD20R,1.700000X1.100000*%
%ADD21R,1.620000X1.050000*%
%ADD22R,1.000000X1.600000*%
%ADD23R,1.600000X1.000000*%
%ADD24R,3.400000X1.900000*%
%ADD25C,1.924000*%
G04 APERTURE END LIST*
D10*
D11*
X149000000Y-106801120D03*
X149000000Y-109198880D03*
X149000000Y-111949700D03*
X149000000Y-104050300D03*
D12*
X152000000Y-106699520D03*
X152000000Y-107352300D03*
X152000000Y-108000000D03*
X152000000Y-108647700D03*
X152000000Y-109300480D03*
D13*
X151146300Y-109897380D03*
X151148840Y-106100080D03*
D14*
X170750000Y-112000000D03*
X172750000Y-112000000D03*
D15*
X157500000Y-100500000D03*
X157500000Y-102500000D03*
D14*
X157000000Y-114250000D03*
X155000000Y-114250000D03*
X170750000Y-107000000D03*
X172750000Y-107000000D03*
X170750000Y-109500000D03*
X172750000Y-109500000D03*
D16*
X157000000Y-109000000D03*
X157000000Y-106800000D03*
D17*
X188468000Y-101600000D03*
D18*
X188468000Y-104140000D03*
X188468000Y-106680000D03*
X188468000Y-109220000D03*
X188468000Y-111760000D03*
X188468000Y-114300000D03*
D19*
X156900000Y-111000000D03*
X155000000Y-111000000D03*
D20*
X169500000Y-100550000D03*
X169500000Y-102450000D03*
X171500000Y-100550000D03*
X171500000Y-102450000D03*
X173500000Y-100550000D03*
X173500000Y-102450000D03*
D21*
X152190000Y-100550000D03*
X152190000Y-101500000D03*
X152190000Y-102450000D03*
X154810000Y-102450000D03*
X154810000Y-100550000D03*
D22*
X161200000Y-114250000D03*
X162000000Y-114250000D03*
X162800000Y-114250000D03*
X163600000Y-114250000D03*
X164400000Y-114250000D03*
X165200000Y-114250000D03*
X166000000Y-114250000D03*
X166800000Y-114250000D03*
D23*
X168250000Y-112800000D03*
X168250000Y-112000000D03*
X168250000Y-111200000D03*
X168250000Y-110400000D03*
X168250000Y-109600000D03*
X168250000Y-108800000D03*
X168250000Y-108000000D03*
X168250000Y-107200000D03*
D22*
X166800000Y-105750000D03*
X166000000Y-105750000D03*
X165200000Y-105750000D03*
X164400000Y-105750000D03*
X163600000Y-105750000D03*
X162800000Y-105750000D03*
X162000000Y-105750000D03*
X161200000Y-105750000D03*
D23*
X159750000Y-107200000D03*
X159750000Y-108000000D03*
X159750000Y-108800000D03*
X159750000Y-109600000D03*
X159750000Y-110400000D03*
X159750000Y-111200000D03*
X159750000Y-112000000D03*
X159750000Y-112800000D03*
D24*
X181750000Y-101075000D03*
X177250000Y-102345000D03*
X181750000Y-103615000D03*
X177250000Y-104885000D03*
X181750000Y-106155000D03*
X177250000Y-107425000D03*
X181750000Y-111345000D03*
X177250000Y-112615000D03*
X181750000Y-113885000D03*
X177250000Y-115155000D03*
D25*
X166040000Y-100500000D03*
X163500000Y-100500000D03*
X160960000Y-100500000D03*
M02*
