G04 #@! TF.GenerationSoftware,KiCad,Pcbnew,5.1.5+dfsg1-2build2*
G04 #@! TF.CreationDate,2021-03-04T23:30:08+01:00*
G04 #@! TF.ProjectId,USB-I2C,5553422d-4932-4432-9e6b-696361645f70,rev?*
G04 #@! TF.SameCoordinates,Original*
G04 #@! TF.FileFunction,Soldermask,Bot*
G04 #@! TF.FilePolarity,Negative*
%FSLAX46Y46*%
G04 Gerber Fmt 4.6, Leading zero omitted, Abs format (unit mm)*
G04 Created by KiCad (PCBNEW 5.1.5+dfsg1-2build2) date 2021-03-04 23:30:08*
%MOMM*%
%LPD*%
G04 APERTURE LIST*
%ADD10C,0.100000*%
G04 APERTURE END LIST*
D10*
G36*
X188596687Y-113255027D02*
G01*
X188774274Y-113290350D01*
X188965362Y-113369502D01*
X189137336Y-113484411D01*
X189283589Y-113630664D01*
X189398498Y-113802638D01*
X189477650Y-113993726D01*
X189518000Y-114196584D01*
X189518000Y-114403416D01*
X189477650Y-114606274D01*
X189398498Y-114797362D01*
X189283589Y-114969336D01*
X189137336Y-115115589D01*
X188965362Y-115230498D01*
X188774274Y-115309650D01*
X188596687Y-115344973D01*
X188571417Y-115350000D01*
X188364583Y-115350000D01*
X188339313Y-115344973D01*
X188161726Y-115309650D01*
X187970638Y-115230498D01*
X187798664Y-115115589D01*
X187652411Y-114969336D01*
X187537502Y-114797362D01*
X187458350Y-114606274D01*
X187418000Y-114403416D01*
X187418000Y-114196584D01*
X187458350Y-113993726D01*
X187537502Y-113802638D01*
X187652411Y-113630664D01*
X187798664Y-113484411D01*
X187970638Y-113369502D01*
X188161726Y-113290350D01*
X188339313Y-113255027D01*
X188364583Y-113250000D01*
X188571417Y-113250000D01*
X188596687Y-113255027D01*
G37*
G36*
X188596687Y-110715027D02*
G01*
X188774274Y-110750350D01*
X188965362Y-110829502D01*
X189137336Y-110944411D01*
X189283589Y-111090664D01*
X189398498Y-111262638D01*
X189477650Y-111453726D01*
X189518000Y-111656584D01*
X189518000Y-111863416D01*
X189477650Y-112066274D01*
X189398498Y-112257362D01*
X189283589Y-112429336D01*
X189137336Y-112575589D01*
X188965362Y-112690498D01*
X188774274Y-112769650D01*
X188596687Y-112804973D01*
X188571417Y-112810000D01*
X188364583Y-112810000D01*
X188339313Y-112804973D01*
X188161726Y-112769650D01*
X187970638Y-112690498D01*
X187798664Y-112575589D01*
X187652411Y-112429336D01*
X187537502Y-112257362D01*
X187458350Y-112066274D01*
X187418000Y-111863416D01*
X187418000Y-111656584D01*
X187458350Y-111453726D01*
X187537502Y-111262638D01*
X187652411Y-111090664D01*
X187798664Y-110944411D01*
X187970638Y-110829502D01*
X188161726Y-110750350D01*
X188339313Y-110715027D01*
X188364583Y-110710000D01*
X188571417Y-110710000D01*
X188596687Y-110715027D01*
G37*
G36*
X151320958Y-109321610D02*
G01*
X151429927Y-109366747D01*
X151429929Y-109366748D01*
X151528000Y-109432277D01*
X151611403Y-109515680D01*
X151676932Y-109613751D01*
X151676933Y-109613753D01*
X151722070Y-109722722D01*
X151745080Y-109838404D01*
X151745080Y-109956356D01*
X151722070Y-110072038D01*
X151689570Y-110150498D01*
X151676932Y-110181009D01*
X151611403Y-110279080D01*
X151528000Y-110362483D01*
X151429929Y-110428012D01*
X151429928Y-110428013D01*
X151429927Y-110428013D01*
X151320958Y-110473150D01*
X151205276Y-110496160D01*
X151087324Y-110496160D01*
X150971642Y-110473150D01*
X150862673Y-110428013D01*
X150862672Y-110428013D01*
X150862671Y-110428012D01*
X150764600Y-110362483D01*
X150681197Y-110279080D01*
X150615668Y-110181009D01*
X150603030Y-110150498D01*
X150570530Y-110072038D01*
X150547520Y-109956356D01*
X150547520Y-109838404D01*
X150570530Y-109722722D01*
X150615667Y-109613753D01*
X150615668Y-109613751D01*
X150681197Y-109515680D01*
X150764600Y-109432277D01*
X150862671Y-109366748D01*
X150862673Y-109366747D01*
X150971642Y-109321610D01*
X151087324Y-109298600D01*
X151205276Y-109298600D01*
X151320958Y-109321610D01*
G37*
G36*
X188596687Y-108175027D02*
G01*
X188774274Y-108210350D01*
X188965362Y-108289502D01*
X189137336Y-108404411D01*
X189283589Y-108550664D01*
X189398498Y-108722638D01*
X189477650Y-108913726D01*
X189518000Y-109116584D01*
X189518000Y-109323416D01*
X189477650Y-109526274D01*
X189398498Y-109717362D01*
X189283589Y-109889336D01*
X189137336Y-110035589D01*
X188965362Y-110150498D01*
X188774274Y-110229650D01*
X188596687Y-110264973D01*
X188571417Y-110270000D01*
X188364583Y-110270000D01*
X188339313Y-110264973D01*
X188161726Y-110229650D01*
X187970638Y-110150498D01*
X187798664Y-110035589D01*
X187652411Y-109889336D01*
X187537502Y-109717362D01*
X187458350Y-109526274D01*
X187418000Y-109323416D01*
X187418000Y-109116584D01*
X187458350Y-108913726D01*
X187537502Y-108722638D01*
X187652411Y-108550664D01*
X187798664Y-108404411D01*
X187970638Y-108289502D01*
X188161726Y-108210350D01*
X188339313Y-108175027D01*
X188364583Y-108170000D01*
X188571417Y-108170000D01*
X188596687Y-108175027D01*
G37*
G36*
X188596433Y-105634976D02*
G01*
X188774274Y-105670350D01*
X188965362Y-105749502D01*
X189137336Y-105864411D01*
X189283589Y-106010664D01*
X189398498Y-106182638D01*
X189477650Y-106373726D01*
X189512973Y-106551313D01*
X189515733Y-106565184D01*
X189518000Y-106576584D01*
X189518000Y-106783416D01*
X189477650Y-106986274D01*
X189398498Y-107177362D01*
X189283589Y-107349336D01*
X189137336Y-107495589D01*
X188965362Y-107610498D01*
X188774274Y-107689650D01*
X188596687Y-107724973D01*
X188571417Y-107730000D01*
X188364583Y-107730000D01*
X188339313Y-107724973D01*
X188161726Y-107689650D01*
X187970638Y-107610498D01*
X187798664Y-107495589D01*
X187652411Y-107349336D01*
X187537502Y-107177362D01*
X187458350Y-106986274D01*
X187418000Y-106783416D01*
X187418000Y-106576584D01*
X187420268Y-106565184D01*
X187423027Y-106551313D01*
X187458350Y-106373726D01*
X187537502Y-106182638D01*
X187652411Y-106010664D01*
X187798664Y-105864411D01*
X187970638Y-105749502D01*
X188161726Y-105670350D01*
X188339567Y-105634976D01*
X188364583Y-105630000D01*
X188571417Y-105630000D01*
X188596433Y-105634976D01*
G37*
G36*
X151323498Y-105524310D02*
G01*
X151432467Y-105569447D01*
X151432469Y-105569448D01*
X151530540Y-105634977D01*
X151613943Y-105718380D01*
X151613944Y-105718382D01*
X151679473Y-105816453D01*
X151724610Y-105925422D01*
X151747620Y-106041104D01*
X151747620Y-106159056D01*
X151724610Y-106274738D01*
X151683607Y-106373726D01*
X151679472Y-106383709D01*
X151613943Y-106481780D01*
X151530540Y-106565183D01*
X151432469Y-106630712D01*
X151432468Y-106630713D01*
X151432467Y-106630713D01*
X151323498Y-106675850D01*
X151207816Y-106698860D01*
X151089864Y-106698860D01*
X150974182Y-106675850D01*
X150865213Y-106630713D01*
X150865212Y-106630713D01*
X150865211Y-106630712D01*
X150767140Y-106565183D01*
X150683737Y-106481780D01*
X150618208Y-106383709D01*
X150614073Y-106373726D01*
X150573070Y-106274738D01*
X150550060Y-106159056D01*
X150550060Y-106041104D01*
X150573070Y-105925422D01*
X150618207Y-105816453D01*
X150683736Y-105718382D01*
X150683737Y-105718380D01*
X150767140Y-105634977D01*
X150865211Y-105569448D01*
X150865213Y-105569447D01*
X150974182Y-105524310D01*
X151089864Y-105501300D01*
X151207816Y-105501300D01*
X151323498Y-105524310D01*
G37*
G36*
X188596687Y-103095027D02*
G01*
X188774274Y-103130350D01*
X188965362Y-103209502D01*
X189137336Y-103324411D01*
X189283589Y-103470664D01*
X189398498Y-103642638D01*
X189477650Y-103833726D01*
X189518000Y-104036584D01*
X189518000Y-104243416D01*
X189477650Y-104446274D01*
X189398498Y-104637362D01*
X189283589Y-104809336D01*
X189137336Y-104955589D01*
X188965362Y-105070498D01*
X188774274Y-105149650D01*
X188596687Y-105184973D01*
X188571417Y-105190000D01*
X188364583Y-105190000D01*
X188339313Y-105184973D01*
X188161726Y-105149650D01*
X187970638Y-105070498D01*
X187798664Y-104955589D01*
X187652411Y-104809336D01*
X187537502Y-104637362D01*
X187458350Y-104446274D01*
X187418000Y-104243416D01*
X187418000Y-104036584D01*
X187458350Y-103833726D01*
X187537502Y-103642638D01*
X187652411Y-103470664D01*
X187798664Y-103324411D01*
X187970638Y-103209502D01*
X188161726Y-103130350D01*
X188339313Y-103095027D01*
X188364583Y-103090000D01*
X188571417Y-103090000D01*
X188596687Y-103095027D01*
G37*
G36*
X189518000Y-102650000D02*
G01*
X187418000Y-102650000D01*
X187418000Y-100550000D01*
X189518000Y-100550000D01*
X189518000Y-102650000D01*
G37*
G36*
X161240604Y-99574968D02*
G01*
X161328142Y-99611228D01*
X161415678Y-99647486D01*
X161415679Y-99647487D01*
X161573237Y-99752763D01*
X161707237Y-99886763D01*
X161795007Y-100018121D01*
X161812514Y-100044322D01*
X161885032Y-100219396D01*
X161922000Y-100405250D01*
X161922000Y-100594750D01*
X161885032Y-100780604D01*
X161812514Y-100955678D01*
X161812513Y-100955679D01*
X161707237Y-101113237D01*
X161573237Y-101247237D01*
X161441879Y-101335007D01*
X161415678Y-101352514D01*
X161240604Y-101425032D01*
X161054750Y-101462000D01*
X160865250Y-101462000D01*
X160679396Y-101425032D01*
X160591858Y-101388772D01*
X160504322Y-101352514D01*
X160478121Y-101335007D01*
X160346763Y-101247237D01*
X160212763Y-101113237D01*
X160107487Y-100955679D01*
X160107486Y-100955678D01*
X160034968Y-100780604D01*
X159998000Y-100594750D01*
X159998000Y-100405250D01*
X160034968Y-100219396D01*
X160071228Y-100131858D01*
X160107486Y-100044322D01*
X160124993Y-100018121D01*
X160212763Y-99886763D01*
X160346763Y-99752763D01*
X160504321Y-99647487D01*
X160504322Y-99647486D01*
X160591858Y-99611228D01*
X160679396Y-99574968D01*
X160865250Y-99538000D01*
X161054750Y-99538000D01*
X161240604Y-99574968D01*
G37*
G36*
X163780604Y-99574968D02*
G01*
X163868142Y-99611228D01*
X163955678Y-99647486D01*
X163955679Y-99647487D01*
X164113237Y-99752763D01*
X164247237Y-99886763D01*
X164335007Y-100018121D01*
X164352514Y-100044322D01*
X164425032Y-100219396D01*
X164462000Y-100405250D01*
X164462000Y-100594750D01*
X164425032Y-100780604D01*
X164352514Y-100955678D01*
X164352513Y-100955679D01*
X164247237Y-101113237D01*
X164113237Y-101247237D01*
X163981879Y-101335007D01*
X163955678Y-101352514D01*
X163780604Y-101425032D01*
X163594750Y-101462000D01*
X163405250Y-101462000D01*
X163219396Y-101425032D01*
X163131858Y-101388772D01*
X163044322Y-101352514D01*
X163018121Y-101335007D01*
X162886763Y-101247237D01*
X162752763Y-101113237D01*
X162647487Y-100955679D01*
X162647486Y-100955678D01*
X162574968Y-100780604D01*
X162538000Y-100594750D01*
X162538000Y-100405250D01*
X162574968Y-100219396D01*
X162611228Y-100131858D01*
X162647486Y-100044322D01*
X162664993Y-100018121D01*
X162752763Y-99886763D01*
X162886763Y-99752763D01*
X163044321Y-99647487D01*
X163044322Y-99647486D01*
X163131858Y-99611228D01*
X163219396Y-99574968D01*
X163405250Y-99538000D01*
X163594750Y-99538000D01*
X163780604Y-99574968D01*
G37*
G36*
X166320604Y-99574968D02*
G01*
X166408142Y-99611228D01*
X166495678Y-99647486D01*
X166495679Y-99647487D01*
X166653237Y-99752763D01*
X166787237Y-99886763D01*
X166875007Y-100018121D01*
X166892514Y-100044322D01*
X166965032Y-100219396D01*
X167002000Y-100405250D01*
X167002000Y-100594750D01*
X166965032Y-100780604D01*
X166892514Y-100955678D01*
X166892513Y-100955679D01*
X166787237Y-101113237D01*
X166653237Y-101247237D01*
X166521879Y-101335007D01*
X166495678Y-101352514D01*
X166320604Y-101425032D01*
X166134750Y-101462000D01*
X165945250Y-101462000D01*
X165759396Y-101425032D01*
X165671858Y-101388772D01*
X165584322Y-101352514D01*
X165558121Y-101335007D01*
X165426763Y-101247237D01*
X165292763Y-101113237D01*
X165187487Y-100955679D01*
X165187486Y-100955678D01*
X165114968Y-100780604D01*
X165078000Y-100594750D01*
X165078000Y-100405250D01*
X165114968Y-100219396D01*
X165151228Y-100131858D01*
X165187486Y-100044322D01*
X165204993Y-100018121D01*
X165292763Y-99886763D01*
X165426763Y-99752763D01*
X165584321Y-99647487D01*
X165584322Y-99647486D01*
X165671858Y-99611228D01*
X165759396Y-99574968D01*
X165945250Y-99538000D01*
X166134750Y-99538000D01*
X166320604Y-99574968D01*
G37*
M02*
