G04 #@! TF.GenerationSoftware,KiCad,Pcbnew,5.1.5+dfsg1-2build2*
G04 #@! TF.CreationDate,2021-04-06T18:43:33+02:00*
G04 #@! TF.ProjectId,USB-I2C,5553422d-4932-4432-9e6b-696361645f70,rev?*
G04 #@! TF.SameCoordinates,Original*
G04 #@! TF.FileFunction,Copper,L2,Bot*
G04 #@! TF.FilePolarity,Positive*
%FSLAX46Y46*%
G04 Gerber Fmt 4.6, Leading zero omitted, Abs format (unit mm)*
G04 Created by KiCad (PCBNEW 5.1.5+dfsg1-2build2) date 2021-04-06 18:43:33*
%MOMM*%
%LPD*%
G04 APERTURE LIST*
%ADD10O,1.727200X1.727200*%
%ADD11R,1.727200X1.727200*%
%ADD12C,0.797560*%
%ADD13C,1.524000*%
%ADD14O,1.700000X1.700000*%
%ADD15R,1.700000X1.700000*%
%ADD16C,0.900000*%
%ADD17C,0.600000*%
%ADD18C,0.600000*%
%ADD19C,0.400000*%
%ADD20C,0.254000*%
G04 APERTURE END LIST*
D10*
X181540000Y-110540000D03*
X179000000Y-110540000D03*
X181540000Y-108000000D03*
X179000000Y-108000000D03*
X181540000Y-105460000D03*
D11*
X179000000Y-105460000D03*
D12*
X151148840Y-106100080D03*
X151146300Y-109897380D03*
D13*
X160960000Y-100500000D03*
X163500000Y-100500000D03*
X166040000Y-100500000D03*
D14*
X199468000Y-114300000D03*
X199468000Y-111760000D03*
X199468000Y-109220000D03*
X199468000Y-106680000D03*
X199468000Y-104140000D03*
D15*
X199468000Y-101600000D03*
D16*
X151106974Y-112299859D03*
X157500000Y-104500000D03*
X192750000Y-101075000D03*
X192750000Y-111345000D03*
X149000000Y-101500000D03*
X159000000Y-109500000D03*
X155062500Y-112750000D03*
X174000000Y-112000000D03*
X188107151Y-104881895D03*
X161000000Y-103500000D03*
X163000000Y-110500000D03*
X161750000Y-114250000D03*
X183250000Y-113750000D03*
X153513161Y-110324409D03*
X153441080Y-105058920D03*
X192750000Y-106155000D03*
X192000000Y-109250000D03*
D17*
X154500000Y-107500000D03*
X159000000Y-106500000D03*
X154500000Y-108500000D03*
X159000000Y-108000000D03*
X188250000Y-102345000D03*
X195896781Y-112000000D03*
X195807481Y-105000000D03*
X188250000Y-112615000D03*
X173500000Y-106750000D03*
X173500000Y-109250000D03*
X192750000Y-103615000D03*
X194966291Y-114934923D03*
X169500000Y-106750000D03*
X169500000Y-109250000D03*
X164000000Y-106000000D03*
D18*
X199468000Y-109220000D02*
X198392855Y-109220000D01*
X198392855Y-109220000D02*
X194054750Y-104881895D01*
X194054750Y-104881895D02*
X188743547Y-104881895D01*
X188743547Y-104881895D02*
X188107151Y-104881895D01*
X161000000Y-110500000D02*
X163000000Y-110500000D01*
X161000000Y-103500000D02*
X161000000Y-110500000D01*
X187618105Y-104881895D02*
X188107151Y-104881895D01*
X183500000Y-106000000D02*
X184618105Y-104881895D01*
X184618105Y-104881895D02*
X187618105Y-104881895D01*
X181540000Y-108000000D02*
X183500000Y-108000000D01*
X183500000Y-108000000D02*
X183500000Y-106000000D01*
X182750000Y-114250000D02*
X161750000Y-114250000D01*
X183250000Y-113750000D02*
X182750000Y-114250000D01*
X183500000Y-113500000D02*
X183500000Y-108000000D01*
X183250000Y-113750000D02*
X183500000Y-113500000D01*
X153441080Y-110252328D02*
X153513161Y-110324409D01*
X153441080Y-105058920D02*
X153441080Y-110252328D01*
X193863000Y-106155000D02*
X196708000Y-109000000D01*
X192750000Y-106155000D02*
X193863000Y-106155000D01*
X192000000Y-109250000D02*
X197000000Y-109250000D01*
X197000000Y-109250000D02*
X196708000Y-109000000D01*
X199468000Y-111760000D02*
X197000000Y-109250000D01*
D19*
X155500000Y-106500000D02*
X159000000Y-106500000D01*
X154500000Y-107500000D02*
X155500000Y-106500000D01*
X155000000Y-108000000D02*
X159000000Y-108000000D01*
X154500000Y-108500000D02*
X155000000Y-108000000D01*
X195807481Y-104827197D02*
X195000000Y-104019716D01*
X195807481Y-105000000D02*
X195807481Y-104827197D01*
X193325284Y-102345000D02*
X195000000Y-104019716D01*
X188250000Y-102345000D02*
X193325284Y-102345000D01*
X198608000Y-105000000D02*
X199468000Y-104140000D01*
X195807481Y-105000000D02*
X198608000Y-105000000D01*
X195896781Y-112005813D02*
X195896781Y-112000000D01*
X188250000Y-112615000D02*
X195287594Y-112615000D01*
X195287594Y-112615000D02*
X195896781Y-112005813D01*
X173500000Y-106750000D02*
X173500000Y-109250000D01*
X195266290Y-114634924D02*
X194966291Y-114934923D01*
X195401214Y-114500000D02*
X195266290Y-114634924D01*
X199268000Y-114500000D02*
X195401214Y-114500000D01*
X199468000Y-114300000D02*
X199268000Y-114500000D01*
X169500000Y-106750000D02*
X169500000Y-109250000D01*
X160960000Y-101460000D02*
X160960000Y-100500000D01*
X162000000Y-102500000D02*
X160960000Y-101460000D01*
X162000000Y-104000000D02*
X162000000Y-102500000D01*
X164000000Y-106000000D02*
X162000000Y-104000000D01*
D20*
G36*
X159721995Y-99838273D02*
G01*
X159616686Y-100092510D01*
X159563000Y-100362408D01*
X159563000Y-100637592D01*
X159616686Y-100907490D01*
X159721995Y-101161727D01*
X159874880Y-101390535D01*
X160069465Y-101585120D01*
X160139598Y-101631981D01*
X160184828Y-101781086D01*
X160262364Y-101926145D01*
X160366709Y-102053291D01*
X160398579Y-102079446D01*
X160760513Y-102441381D01*
X160683517Y-102456696D01*
X160486060Y-102538485D01*
X160308353Y-102657225D01*
X160157225Y-102808353D01*
X160038485Y-102986060D01*
X159956696Y-103183517D01*
X159915000Y-103393137D01*
X159915000Y-103606863D01*
X159956696Y-103816483D01*
X160038485Y-104013940D01*
X160065000Y-104053623D01*
X160065001Y-110454058D01*
X160060476Y-110500000D01*
X160078529Y-110683292D01*
X160131993Y-110859540D01*
X160218814Y-111021972D01*
X160335656Y-111164344D01*
X160478028Y-111281186D01*
X160640460Y-111368007D01*
X160816708Y-111421471D01*
X160954068Y-111435000D01*
X161000000Y-111439524D01*
X161045932Y-111435000D01*
X162446377Y-111435000D01*
X162486060Y-111461515D01*
X162683517Y-111543304D01*
X162893137Y-111585000D01*
X163106863Y-111585000D01*
X163316483Y-111543304D01*
X163513940Y-111461515D01*
X163691647Y-111342775D01*
X163842775Y-111191647D01*
X163961515Y-111013940D01*
X164043304Y-110816483D01*
X164085000Y-110606863D01*
X164085000Y-110393137D01*
X164043304Y-110183517D01*
X163961515Y-109986060D01*
X163842775Y-109808353D01*
X163691647Y-109657225D01*
X163513940Y-109538485D01*
X163316483Y-109456696D01*
X163106863Y-109415000D01*
X162893137Y-109415000D01*
X162683517Y-109456696D01*
X162486060Y-109538485D01*
X162446377Y-109565000D01*
X161935000Y-109565000D01*
X161935000Y-105115867D01*
X163107346Y-106288214D01*
X163171414Y-106442889D01*
X163273738Y-106596028D01*
X163403972Y-106726262D01*
X163557111Y-106828586D01*
X163727271Y-106899068D01*
X163907911Y-106935000D01*
X164092089Y-106935000D01*
X164272729Y-106899068D01*
X164442889Y-106828586D01*
X164596028Y-106726262D01*
X164664379Y-106657911D01*
X168565000Y-106657911D01*
X168565000Y-106842089D01*
X168600932Y-107022729D01*
X168665000Y-107177405D01*
X168665001Y-108822594D01*
X168600932Y-108977271D01*
X168565000Y-109157911D01*
X168565000Y-109342089D01*
X168600932Y-109522729D01*
X168671414Y-109692889D01*
X168773738Y-109846028D01*
X168903972Y-109976262D01*
X169057111Y-110078586D01*
X169227271Y-110149068D01*
X169407911Y-110185000D01*
X169592089Y-110185000D01*
X169772729Y-110149068D01*
X169942889Y-110078586D01*
X170096028Y-109976262D01*
X170226262Y-109846028D01*
X170328586Y-109692889D01*
X170399068Y-109522729D01*
X170435000Y-109342089D01*
X170435000Y-109157911D01*
X170399068Y-108977271D01*
X170335000Y-108822596D01*
X170335000Y-107177404D01*
X170399068Y-107022729D01*
X170435000Y-106842089D01*
X170435000Y-106657911D01*
X172565000Y-106657911D01*
X172565000Y-106842089D01*
X172600932Y-107022729D01*
X172665000Y-107177405D01*
X172665001Y-108822594D01*
X172600932Y-108977271D01*
X172565000Y-109157911D01*
X172565000Y-109342089D01*
X172600932Y-109522729D01*
X172671414Y-109692889D01*
X172773738Y-109846028D01*
X172903972Y-109976262D01*
X173057111Y-110078586D01*
X173227271Y-110149068D01*
X173407911Y-110185000D01*
X173592089Y-110185000D01*
X173772729Y-110149068D01*
X173942889Y-110078586D01*
X174096028Y-109976262D01*
X174226262Y-109846028D01*
X174328586Y-109692889D01*
X174399068Y-109522729D01*
X174435000Y-109342089D01*
X174435000Y-109157911D01*
X174399068Y-108977271D01*
X174335000Y-108822596D01*
X174335000Y-107177404D01*
X174399068Y-107022729D01*
X174435000Y-106842089D01*
X174435000Y-106657911D01*
X174399068Y-106477271D01*
X174328586Y-106307111D01*
X174226262Y-106153972D01*
X174096028Y-106023738D01*
X173942889Y-105921414D01*
X173772729Y-105850932D01*
X173592089Y-105815000D01*
X173407911Y-105815000D01*
X173227271Y-105850932D01*
X173057111Y-105921414D01*
X172903972Y-106023738D01*
X172773738Y-106153972D01*
X172671414Y-106307111D01*
X172600932Y-106477271D01*
X172565000Y-106657911D01*
X170435000Y-106657911D01*
X170399068Y-106477271D01*
X170328586Y-106307111D01*
X170226262Y-106153972D01*
X170096028Y-106023738D01*
X169942889Y-105921414D01*
X169772729Y-105850932D01*
X169592089Y-105815000D01*
X169407911Y-105815000D01*
X169227271Y-105850932D01*
X169057111Y-105921414D01*
X168903972Y-106023738D01*
X168773738Y-106153972D01*
X168671414Y-106307111D01*
X168600932Y-106477271D01*
X168565000Y-106657911D01*
X164664379Y-106657911D01*
X164726262Y-106596028D01*
X164828586Y-106442889D01*
X164899068Y-106272729D01*
X164935000Y-106092089D01*
X164935000Y-105907911D01*
X164899068Y-105727271D01*
X164828586Y-105557111D01*
X164726262Y-105403972D01*
X164596028Y-105273738D01*
X164442889Y-105171414D01*
X164288214Y-105107346D01*
X163777268Y-104596400D01*
X177498328Y-104596400D01*
X177501400Y-105174250D01*
X177660150Y-105333000D01*
X178873000Y-105333000D01*
X178873000Y-104120150D01*
X178714250Y-103961400D01*
X178136400Y-103958328D01*
X178011918Y-103970588D01*
X177892220Y-104006898D01*
X177781906Y-104065863D01*
X177685215Y-104145215D01*
X177605863Y-104241906D01*
X177546898Y-104352220D01*
X177510588Y-104471918D01*
X177498328Y-104596400D01*
X163777268Y-104596400D01*
X162835000Y-103654133D01*
X162835000Y-102541018D01*
X162839040Y-102499999D01*
X162822918Y-102336311D01*
X162775172Y-102178913D01*
X162697636Y-102033854D01*
X162641230Y-101965123D01*
X162593291Y-101906709D01*
X162561426Y-101880558D01*
X162146433Y-101465565D01*
X162714040Y-101465565D01*
X162781020Y-101705656D01*
X163030048Y-101822756D01*
X163297135Y-101889023D01*
X163572017Y-101901910D01*
X163844133Y-101860922D01*
X164103023Y-101767636D01*
X164218980Y-101705656D01*
X164285960Y-101465565D01*
X163500000Y-100679605D01*
X162714040Y-101465565D01*
X162146433Y-101465565D01*
X162055647Y-101374780D01*
X162198005Y-101161727D01*
X162227692Y-101090057D01*
X162232364Y-101103023D01*
X162294344Y-101218980D01*
X162534435Y-101285960D01*
X163320395Y-100500000D01*
X163306253Y-100485858D01*
X163485858Y-100306253D01*
X163500000Y-100320395D01*
X163514143Y-100306253D01*
X163693748Y-100485858D01*
X163679605Y-100500000D01*
X164465565Y-101285960D01*
X164705656Y-101218980D01*
X164769485Y-101083240D01*
X164801995Y-101161727D01*
X164954880Y-101390535D01*
X165149465Y-101585120D01*
X165378273Y-101738005D01*
X165632510Y-101843314D01*
X165902408Y-101897000D01*
X166177592Y-101897000D01*
X166447490Y-101843314D01*
X166701727Y-101738005D01*
X166930535Y-101585120D01*
X167125120Y-101390535D01*
X167278005Y-101161727D01*
X167383314Y-100907490D01*
X167414640Y-100750000D01*
X197979928Y-100750000D01*
X197983000Y-101314250D01*
X198141750Y-101473000D01*
X199341000Y-101473000D01*
X199341000Y-100273750D01*
X199595000Y-100273750D01*
X199595000Y-101473000D01*
X200794250Y-101473000D01*
X200953000Y-101314250D01*
X200956072Y-100750000D01*
X200943812Y-100625518D01*
X200907502Y-100505820D01*
X200848537Y-100395506D01*
X200769185Y-100298815D01*
X200672494Y-100219463D01*
X200562180Y-100160498D01*
X200442482Y-100124188D01*
X200318000Y-100111928D01*
X199753750Y-100115000D01*
X199595000Y-100273750D01*
X199341000Y-100273750D01*
X199182250Y-100115000D01*
X198618000Y-100111928D01*
X198493518Y-100124188D01*
X198373820Y-100160498D01*
X198263506Y-100219463D01*
X198166815Y-100298815D01*
X198087463Y-100395506D01*
X198028498Y-100505820D01*
X197992188Y-100625518D01*
X197979928Y-100750000D01*
X167414640Y-100750000D01*
X167437000Y-100637592D01*
X167437000Y-100362408D01*
X167383314Y-100092510D01*
X167278005Y-99838273D01*
X167192296Y-99710000D01*
X199965279Y-99710000D01*
X200249899Y-99737907D01*
X200490285Y-99810484D01*
X200711991Y-99928368D01*
X200906577Y-100087068D01*
X201066635Y-100280545D01*
X201186064Y-100501424D01*
X201260317Y-100741297D01*
X201290000Y-101023716D01*
X201290001Y-113965269D01*
X201243048Y-114444133D01*
X201114063Y-114871353D01*
X200904554Y-115265384D01*
X200622501Y-115611214D01*
X200278651Y-115895672D01*
X199886093Y-116107927D01*
X199459788Y-116239891D01*
X198983036Y-116290000D01*
X150034721Y-116290000D01*
X149555867Y-116243048D01*
X149128647Y-116114063D01*
X148734616Y-115904554D01*
X148388786Y-115622501D01*
X148104328Y-115278651D01*
X147892073Y-114886093D01*
X147760109Y-114459788D01*
X147726828Y-114143137D01*
X160665000Y-114143137D01*
X160665000Y-114356863D01*
X160706696Y-114566483D01*
X160788485Y-114763940D01*
X160907225Y-114941647D01*
X161058353Y-115092775D01*
X161236060Y-115211515D01*
X161433517Y-115293304D01*
X161643137Y-115335000D01*
X161856863Y-115335000D01*
X162066483Y-115293304D01*
X162263940Y-115211515D01*
X162303623Y-115185000D01*
X182704068Y-115185000D01*
X182750000Y-115189524D01*
X182795932Y-115185000D01*
X182933292Y-115171471D01*
X183109540Y-115118007D01*
X183271972Y-115031186D01*
X183414344Y-114914344D01*
X183443631Y-114878658D01*
X183519674Y-114802615D01*
X183566483Y-114793304D01*
X183763940Y-114711515D01*
X183941647Y-114592775D01*
X184092775Y-114441647D01*
X184211515Y-114263940D01*
X184293304Y-114066483D01*
X184314588Y-113959481D01*
X184368007Y-113859540D01*
X184421471Y-113683292D01*
X184423273Y-113665000D01*
X184439524Y-113500001D01*
X184435000Y-113454069D01*
X184435000Y-112522911D01*
X187315000Y-112522911D01*
X187315000Y-112707089D01*
X187350932Y-112887729D01*
X187421414Y-113057889D01*
X187523738Y-113211028D01*
X187653972Y-113341262D01*
X187807111Y-113443586D01*
X187977271Y-113514068D01*
X188157911Y-113550000D01*
X188342089Y-113550000D01*
X188522729Y-113514068D01*
X188677404Y-113450000D01*
X195246576Y-113450000D01*
X195287594Y-113454040D01*
X195328612Y-113450000D01*
X195328613Y-113450000D01*
X195451283Y-113437918D01*
X195608681Y-113390172D01*
X195753740Y-113312636D01*
X195880885Y-113208291D01*
X195907039Y-113176422D01*
X196194918Y-112888544D01*
X196339670Y-112828586D01*
X196492809Y-112726262D01*
X196623043Y-112596028D01*
X196725367Y-112442889D01*
X196795849Y-112272729D01*
X196831781Y-112092089D01*
X196831781Y-111907911D01*
X196795849Y-111727271D01*
X196725367Y-111557111D01*
X196623043Y-111403972D01*
X196492809Y-111273738D01*
X196339670Y-111171414D01*
X196169510Y-111100932D01*
X195988870Y-111065000D01*
X195804692Y-111065000D01*
X195624052Y-111100932D01*
X195453892Y-111171414D01*
X195300753Y-111273738D01*
X195170519Y-111403972D01*
X195068195Y-111557111D01*
X195000017Y-111721709D01*
X194941726Y-111780000D01*
X188677404Y-111780000D01*
X188522729Y-111715932D01*
X188342089Y-111680000D01*
X188157911Y-111680000D01*
X187977271Y-111715932D01*
X187807111Y-111786414D01*
X187653972Y-111888738D01*
X187523738Y-112018972D01*
X187421414Y-112172111D01*
X187350932Y-112342271D01*
X187315000Y-112522911D01*
X184435000Y-112522911D01*
X184435000Y-108045931D01*
X184439524Y-108000000D01*
X184435000Y-107954068D01*
X184435000Y-106387289D01*
X185005395Y-105816895D01*
X187553528Y-105816895D01*
X187593211Y-105843410D01*
X187790668Y-105925199D01*
X188000288Y-105966895D01*
X188214014Y-105966895D01*
X188423634Y-105925199D01*
X188621091Y-105843410D01*
X188660774Y-105816895D01*
X191715652Y-105816895D01*
X191706696Y-105838517D01*
X191665000Y-106048137D01*
X191665000Y-106261863D01*
X191706696Y-106471483D01*
X191788485Y-106668940D01*
X191907225Y-106846647D01*
X192058353Y-106997775D01*
X192236060Y-107116515D01*
X192433517Y-107198304D01*
X192643137Y-107240000D01*
X192856863Y-107240000D01*
X193066483Y-107198304D01*
X193263940Y-107116515D01*
X193303623Y-107090000D01*
X193475711Y-107090000D01*
X194700711Y-108315000D01*
X192553623Y-108315000D01*
X192513940Y-108288485D01*
X192316483Y-108206696D01*
X192106863Y-108165000D01*
X191893137Y-108165000D01*
X191683517Y-108206696D01*
X191486060Y-108288485D01*
X191308353Y-108407225D01*
X191157225Y-108558353D01*
X191038485Y-108736060D01*
X190956696Y-108933517D01*
X190915000Y-109143137D01*
X190915000Y-109356863D01*
X190956696Y-109566483D01*
X191038485Y-109763940D01*
X191157225Y-109941647D01*
X191308353Y-110092775D01*
X191486060Y-110211515D01*
X191683517Y-110293304D01*
X191893137Y-110335000D01*
X192106863Y-110335000D01*
X192316483Y-110293304D01*
X192513940Y-110211515D01*
X192553623Y-110185000D01*
X196608083Y-110185000D01*
X197988033Y-111588436D01*
X197983000Y-111613740D01*
X197983000Y-111906260D01*
X198040068Y-112193158D01*
X198152010Y-112463411D01*
X198314525Y-112706632D01*
X198521368Y-112913475D01*
X198695760Y-113030000D01*
X198521368Y-113146525D01*
X198314525Y-113353368D01*
X198152010Y-113596589D01*
X198123673Y-113665000D01*
X195442221Y-113665000D01*
X195401213Y-113660961D01*
X195360205Y-113665000D01*
X195360195Y-113665000D01*
X195237525Y-113677082D01*
X195080127Y-113724828D01*
X194935068Y-113802364D01*
X194807923Y-113906709D01*
X194781768Y-113938579D01*
X194704867Y-114015480D01*
X194704861Y-114015485D01*
X194678077Y-114042269D01*
X194523402Y-114106337D01*
X194370263Y-114208661D01*
X194240029Y-114338895D01*
X194137705Y-114492034D01*
X194067223Y-114662194D01*
X194031291Y-114842834D01*
X194031291Y-115027012D01*
X194067223Y-115207652D01*
X194137705Y-115377812D01*
X194240029Y-115530951D01*
X194370263Y-115661185D01*
X194523402Y-115763509D01*
X194693562Y-115833991D01*
X194874202Y-115869923D01*
X195058380Y-115869923D01*
X195239020Y-115833991D01*
X195409180Y-115763509D01*
X195562319Y-115661185D01*
X195692553Y-115530951D01*
X195794877Y-115377812D01*
X195812610Y-115335000D01*
X198402893Y-115335000D01*
X198521368Y-115453475D01*
X198764589Y-115615990D01*
X199034842Y-115727932D01*
X199321740Y-115785000D01*
X199614260Y-115785000D01*
X199901158Y-115727932D01*
X200171411Y-115615990D01*
X200414632Y-115453475D01*
X200621475Y-115246632D01*
X200783990Y-115003411D01*
X200895932Y-114733158D01*
X200953000Y-114446260D01*
X200953000Y-114153740D01*
X200895932Y-113866842D01*
X200783990Y-113596589D01*
X200621475Y-113353368D01*
X200414632Y-113146525D01*
X200240240Y-113030000D01*
X200414632Y-112913475D01*
X200621475Y-112706632D01*
X200783990Y-112463411D01*
X200895932Y-112193158D01*
X200953000Y-111906260D01*
X200953000Y-111613740D01*
X200895932Y-111326842D01*
X200783990Y-111056589D01*
X200621475Y-110813368D01*
X200414632Y-110606525D01*
X200240240Y-110490000D01*
X200414632Y-110373475D01*
X200621475Y-110166632D01*
X200783990Y-109923411D01*
X200895932Y-109653158D01*
X200953000Y-109366260D01*
X200953000Y-109073740D01*
X200895932Y-108786842D01*
X200783990Y-108516589D01*
X200621475Y-108273368D01*
X200414632Y-108066525D01*
X200240240Y-107950000D01*
X200414632Y-107833475D01*
X200621475Y-107626632D01*
X200783990Y-107383411D01*
X200895932Y-107113158D01*
X200953000Y-106826260D01*
X200953000Y-106533740D01*
X200895932Y-106246842D01*
X200783990Y-105976589D01*
X200621475Y-105733368D01*
X200414632Y-105526525D01*
X200240240Y-105410000D01*
X200414632Y-105293475D01*
X200621475Y-105086632D01*
X200783990Y-104843411D01*
X200895932Y-104573158D01*
X200953000Y-104286260D01*
X200953000Y-103993740D01*
X200895932Y-103706842D01*
X200783990Y-103436589D01*
X200621475Y-103193368D01*
X200489620Y-103061513D01*
X200562180Y-103039502D01*
X200672494Y-102980537D01*
X200769185Y-102901185D01*
X200848537Y-102804494D01*
X200907502Y-102694180D01*
X200943812Y-102574482D01*
X200956072Y-102450000D01*
X200953000Y-101885750D01*
X200794250Y-101727000D01*
X199595000Y-101727000D01*
X199595000Y-101747000D01*
X199341000Y-101747000D01*
X199341000Y-101727000D01*
X198141750Y-101727000D01*
X197983000Y-101885750D01*
X197979928Y-102450000D01*
X197992188Y-102574482D01*
X198028498Y-102694180D01*
X198087463Y-102804494D01*
X198166815Y-102901185D01*
X198263506Y-102980537D01*
X198373820Y-103039502D01*
X198446380Y-103061513D01*
X198314525Y-103193368D01*
X198152010Y-103436589D01*
X198040068Y-103706842D01*
X197983000Y-103993740D01*
X197983000Y-104165000D01*
X196326153Y-104165000D01*
X195619442Y-103458291D01*
X195619438Y-103458286D01*
X193944730Y-101783579D01*
X193918575Y-101751709D01*
X193791430Y-101647364D01*
X193646371Y-101569828D01*
X193488973Y-101522082D01*
X193366303Y-101510000D01*
X193366302Y-101510000D01*
X193325284Y-101505960D01*
X193284266Y-101510000D01*
X188677404Y-101510000D01*
X188522729Y-101445932D01*
X188342089Y-101410000D01*
X188157911Y-101410000D01*
X187977271Y-101445932D01*
X187807111Y-101516414D01*
X187653972Y-101618738D01*
X187523738Y-101748972D01*
X187421414Y-101902111D01*
X187350932Y-102072271D01*
X187315000Y-102252911D01*
X187315000Y-102437089D01*
X187350932Y-102617729D01*
X187421414Y-102787889D01*
X187523738Y-102941028D01*
X187653972Y-103071262D01*
X187807111Y-103173586D01*
X187977271Y-103244068D01*
X188157911Y-103280000D01*
X188342089Y-103280000D01*
X188522729Y-103244068D01*
X188677404Y-103180000D01*
X191918146Y-103180000D01*
X191850932Y-103342271D01*
X191815000Y-103522911D01*
X191815000Y-103707089D01*
X191850932Y-103887729D01*
X191875439Y-103946895D01*
X188660774Y-103946895D01*
X188621091Y-103920380D01*
X188423634Y-103838591D01*
X188214014Y-103796895D01*
X188000288Y-103796895D01*
X187790668Y-103838591D01*
X187593211Y-103920380D01*
X187553528Y-103946895D01*
X184664036Y-103946895D01*
X184618104Y-103942371D01*
X184434812Y-103960424D01*
X184390322Y-103973920D01*
X184258565Y-104013888D01*
X184096133Y-104100709D01*
X183953761Y-104217551D01*
X183924479Y-104253231D01*
X183009849Y-105167861D01*
X182981010Y-105022875D01*
X182868042Y-104750147D01*
X182704039Y-104504698D01*
X182495302Y-104295961D01*
X182249853Y-104131958D01*
X181977125Y-104018990D01*
X181687599Y-103961400D01*
X181392401Y-103961400D01*
X181102875Y-104018990D01*
X180830147Y-104131958D01*
X180584698Y-104295961D01*
X180470636Y-104410023D01*
X180453102Y-104352220D01*
X180394137Y-104241906D01*
X180314785Y-104145215D01*
X180218094Y-104065863D01*
X180107780Y-104006898D01*
X179988082Y-103970588D01*
X179863600Y-103958328D01*
X179285750Y-103961400D01*
X179127000Y-104120150D01*
X179127000Y-105333000D01*
X179147000Y-105333000D01*
X179147000Y-105587000D01*
X179127000Y-105587000D01*
X179127000Y-105607000D01*
X178873000Y-105607000D01*
X178873000Y-105587000D01*
X177660150Y-105587000D01*
X177501400Y-105745750D01*
X177498328Y-106323600D01*
X177510588Y-106448082D01*
X177546898Y-106567780D01*
X177605863Y-106678094D01*
X177685215Y-106774785D01*
X177781906Y-106854137D01*
X177892220Y-106913102D01*
X177950023Y-106930636D01*
X177835961Y-107044698D01*
X177671958Y-107290147D01*
X177558990Y-107562875D01*
X177501400Y-107852401D01*
X177501400Y-108147599D01*
X177558990Y-108437125D01*
X177671958Y-108709853D01*
X177835961Y-108955302D01*
X178044698Y-109164039D01*
X178203281Y-109270000D01*
X178044698Y-109375961D01*
X177835961Y-109584698D01*
X177671958Y-109830147D01*
X177558990Y-110102875D01*
X177501400Y-110392401D01*
X177501400Y-110687599D01*
X177558990Y-110977125D01*
X177671958Y-111249853D01*
X177835961Y-111495302D01*
X178044698Y-111704039D01*
X178290147Y-111868042D01*
X178562875Y-111981010D01*
X178852401Y-112038600D01*
X179147599Y-112038600D01*
X179437125Y-111981010D01*
X179709853Y-111868042D01*
X179955302Y-111704039D01*
X180164039Y-111495302D01*
X180270000Y-111336719D01*
X180375961Y-111495302D01*
X180584698Y-111704039D01*
X180830147Y-111868042D01*
X181102875Y-111981010D01*
X181392401Y-112038600D01*
X181687599Y-112038600D01*
X181977125Y-111981010D01*
X182249853Y-111868042D01*
X182495302Y-111704039D01*
X182565000Y-111634341D01*
X182565000Y-112902784D01*
X182558353Y-112907225D01*
X182407225Y-113058353D01*
X182288485Y-113236060D01*
X182255787Y-113315000D01*
X162303623Y-113315000D01*
X162263940Y-113288485D01*
X162066483Y-113206696D01*
X161856863Y-113165000D01*
X161643137Y-113165000D01*
X161433517Y-113206696D01*
X161236060Y-113288485D01*
X161058353Y-113407225D01*
X160907225Y-113558353D01*
X160788485Y-113736060D01*
X160706696Y-113933517D01*
X160665000Y-114143137D01*
X147726828Y-114143137D01*
X147710000Y-113983036D01*
X147710000Y-110602945D01*
X150620340Y-110602945D01*
X150643045Y-110806117D01*
X150830001Y-110886836D01*
X151029112Y-110929530D01*
X151232726Y-110932560D01*
X151433019Y-110895808D01*
X151622293Y-110820688D01*
X151649555Y-110806117D01*
X151672260Y-110602945D01*
X151146300Y-110076985D01*
X150620340Y-110602945D01*
X147710000Y-110602945D01*
X147710000Y-109983806D01*
X150111120Y-109983806D01*
X150147872Y-110184099D01*
X150222992Y-110373373D01*
X150237563Y-110400635D01*
X150440735Y-110423340D01*
X150966695Y-109897380D01*
X151325905Y-109897380D01*
X151851865Y-110423340D01*
X152055037Y-110400635D01*
X152135756Y-110213679D01*
X152178450Y-110014568D01*
X152181480Y-109810954D01*
X152144728Y-109610661D01*
X152069608Y-109421387D01*
X152055037Y-109394125D01*
X151851865Y-109371420D01*
X151325905Y-109897380D01*
X150966695Y-109897380D01*
X150440735Y-109371420D01*
X150237563Y-109394125D01*
X150156844Y-109581081D01*
X150114150Y-109780192D01*
X150111120Y-109983806D01*
X147710000Y-109983806D01*
X147710000Y-109191815D01*
X150620340Y-109191815D01*
X151146300Y-109717775D01*
X151672260Y-109191815D01*
X151649555Y-108988643D01*
X151462599Y-108907924D01*
X151263488Y-108865230D01*
X151059874Y-108862200D01*
X150859581Y-108898952D01*
X150670307Y-108974072D01*
X150643045Y-108988643D01*
X150620340Y-109191815D01*
X147710000Y-109191815D01*
X147710000Y-105998262D01*
X150115060Y-105998262D01*
X150115060Y-106201898D01*
X150154788Y-106401622D01*
X150232716Y-106589758D01*
X150345851Y-106759076D01*
X150489844Y-106903069D01*
X150659162Y-107016204D01*
X150847298Y-107094132D01*
X151047022Y-107133860D01*
X151250658Y-107133860D01*
X151450382Y-107094132D01*
X151638518Y-107016204D01*
X151807836Y-106903069D01*
X151951829Y-106759076D01*
X152064964Y-106589758D01*
X152142892Y-106401622D01*
X152182620Y-106201898D01*
X152182620Y-105998262D01*
X152142892Y-105798538D01*
X152064964Y-105610402D01*
X151951829Y-105441084D01*
X151807836Y-105297091D01*
X151638518Y-105183956D01*
X151450382Y-105106028D01*
X151250658Y-105066300D01*
X151047022Y-105066300D01*
X150847298Y-105106028D01*
X150659162Y-105183956D01*
X150489844Y-105297091D01*
X150345851Y-105441084D01*
X150232716Y-105610402D01*
X150154788Y-105798538D01*
X150115060Y-105998262D01*
X147710000Y-105998262D01*
X147710000Y-104952057D01*
X152356080Y-104952057D01*
X152356080Y-105165783D01*
X152397776Y-105375403D01*
X152479565Y-105572860D01*
X152506080Y-105612543D01*
X152506081Y-109920473D01*
X152469857Y-110007926D01*
X152428161Y-110217546D01*
X152428161Y-110431272D01*
X152469857Y-110640892D01*
X152551646Y-110838349D01*
X152670386Y-111016056D01*
X152821514Y-111167184D01*
X152999221Y-111285924D01*
X153196678Y-111367713D01*
X153406298Y-111409409D01*
X153620024Y-111409409D01*
X153829644Y-111367713D01*
X154027101Y-111285924D01*
X154204808Y-111167184D01*
X154355936Y-111016056D01*
X154474676Y-110838349D01*
X154556465Y-110640892D01*
X154598161Y-110431272D01*
X154598161Y-110217546D01*
X154556465Y-110007926D01*
X154474676Y-109810469D01*
X154376080Y-109662910D01*
X154376080Y-109428668D01*
X154407911Y-109435000D01*
X154592089Y-109435000D01*
X154772729Y-109399068D01*
X154942889Y-109328586D01*
X155096028Y-109226262D01*
X155226262Y-109096028D01*
X155328586Y-108942889D01*
X155373275Y-108835000D01*
X158572596Y-108835000D01*
X158727271Y-108899068D01*
X158907911Y-108935000D01*
X159092089Y-108935000D01*
X159272729Y-108899068D01*
X159442889Y-108828586D01*
X159596028Y-108726262D01*
X159726262Y-108596028D01*
X159828586Y-108442889D01*
X159899068Y-108272729D01*
X159935000Y-108092089D01*
X159935000Y-107907911D01*
X159899068Y-107727271D01*
X159828586Y-107557111D01*
X159726262Y-107403972D01*
X159596028Y-107273738D01*
X159560502Y-107250000D01*
X159596028Y-107226262D01*
X159726262Y-107096028D01*
X159828586Y-106942889D01*
X159899068Y-106772729D01*
X159935000Y-106592089D01*
X159935000Y-106407911D01*
X159899068Y-106227271D01*
X159828586Y-106057111D01*
X159726262Y-105903972D01*
X159596028Y-105773738D01*
X159442889Y-105671414D01*
X159272729Y-105600932D01*
X159092089Y-105565000D01*
X158907911Y-105565000D01*
X158727271Y-105600932D01*
X158572596Y-105665000D01*
X155541018Y-105665000D01*
X155500000Y-105660960D01*
X155458982Y-105665000D01*
X155458981Y-105665000D01*
X155336311Y-105677082D01*
X155178913Y-105724828D01*
X155033854Y-105802364D01*
X154906709Y-105906709D01*
X154880563Y-105938568D01*
X154376080Y-106443052D01*
X154376080Y-105612543D01*
X154402595Y-105572860D01*
X154484384Y-105375403D01*
X154526080Y-105165783D01*
X154526080Y-104952057D01*
X154484384Y-104742437D01*
X154402595Y-104544980D01*
X154283855Y-104367273D01*
X154132727Y-104216145D01*
X153955020Y-104097405D01*
X153757563Y-104015616D01*
X153547943Y-103973920D01*
X153334217Y-103973920D01*
X153124597Y-104015616D01*
X152927140Y-104097405D01*
X152749433Y-104216145D01*
X152598305Y-104367273D01*
X152479565Y-104544980D01*
X152397776Y-104742437D01*
X152356080Y-104952057D01*
X147710000Y-104952057D01*
X147710000Y-102034721D01*
X147756953Y-101555866D01*
X147885938Y-101128645D01*
X148095446Y-100734616D01*
X148377499Y-100388786D01*
X148721351Y-100104327D01*
X149113910Y-99892071D01*
X149540213Y-99760108D01*
X150016964Y-99710000D01*
X159807704Y-99710000D01*
X159721995Y-99838273D01*
G37*
X159721995Y-99838273D02*
X159616686Y-100092510D01*
X159563000Y-100362408D01*
X159563000Y-100637592D01*
X159616686Y-100907490D01*
X159721995Y-101161727D01*
X159874880Y-101390535D01*
X160069465Y-101585120D01*
X160139598Y-101631981D01*
X160184828Y-101781086D01*
X160262364Y-101926145D01*
X160366709Y-102053291D01*
X160398579Y-102079446D01*
X160760513Y-102441381D01*
X160683517Y-102456696D01*
X160486060Y-102538485D01*
X160308353Y-102657225D01*
X160157225Y-102808353D01*
X160038485Y-102986060D01*
X159956696Y-103183517D01*
X159915000Y-103393137D01*
X159915000Y-103606863D01*
X159956696Y-103816483D01*
X160038485Y-104013940D01*
X160065000Y-104053623D01*
X160065001Y-110454058D01*
X160060476Y-110500000D01*
X160078529Y-110683292D01*
X160131993Y-110859540D01*
X160218814Y-111021972D01*
X160335656Y-111164344D01*
X160478028Y-111281186D01*
X160640460Y-111368007D01*
X160816708Y-111421471D01*
X160954068Y-111435000D01*
X161000000Y-111439524D01*
X161045932Y-111435000D01*
X162446377Y-111435000D01*
X162486060Y-111461515D01*
X162683517Y-111543304D01*
X162893137Y-111585000D01*
X163106863Y-111585000D01*
X163316483Y-111543304D01*
X163513940Y-111461515D01*
X163691647Y-111342775D01*
X163842775Y-111191647D01*
X163961515Y-111013940D01*
X164043304Y-110816483D01*
X164085000Y-110606863D01*
X164085000Y-110393137D01*
X164043304Y-110183517D01*
X163961515Y-109986060D01*
X163842775Y-109808353D01*
X163691647Y-109657225D01*
X163513940Y-109538485D01*
X163316483Y-109456696D01*
X163106863Y-109415000D01*
X162893137Y-109415000D01*
X162683517Y-109456696D01*
X162486060Y-109538485D01*
X162446377Y-109565000D01*
X161935000Y-109565000D01*
X161935000Y-105115867D01*
X163107346Y-106288214D01*
X163171414Y-106442889D01*
X163273738Y-106596028D01*
X163403972Y-106726262D01*
X163557111Y-106828586D01*
X163727271Y-106899068D01*
X163907911Y-106935000D01*
X164092089Y-106935000D01*
X164272729Y-106899068D01*
X164442889Y-106828586D01*
X164596028Y-106726262D01*
X164664379Y-106657911D01*
X168565000Y-106657911D01*
X168565000Y-106842089D01*
X168600932Y-107022729D01*
X168665000Y-107177405D01*
X168665001Y-108822594D01*
X168600932Y-108977271D01*
X168565000Y-109157911D01*
X168565000Y-109342089D01*
X168600932Y-109522729D01*
X168671414Y-109692889D01*
X168773738Y-109846028D01*
X168903972Y-109976262D01*
X169057111Y-110078586D01*
X169227271Y-110149068D01*
X169407911Y-110185000D01*
X169592089Y-110185000D01*
X169772729Y-110149068D01*
X169942889Y-110078586D01*
X170096028Y-109976262D01*
X170226262Y-109846028D01*
X170328586Y-109692889D01*
X170399068Y-109522729D01*
X170435000Y-109342089D01*
X170435000Y-109157911D01*
X170399068Y-108977271D01*
X170335000Y-108822596D01*
X170335000Y-107177404D01*
X170399068Y-107022729D01*
X170435000Y-106842089D01*
X170435000Y-106657911D01*
X172565000Y-106657911D01*
X172565000Y-106842089D01*
X172600932Y-107022729D01*
X172665000Y-107177405D01*
X172665001Y-108822594D01*
X172600932Y-108977271D01*
X172565000Y-109157911D01*
X172565000Y-109342089D01*
X172600932Y-109522729D01*
X172671414Y-109692889D01*
X172773738Y-109846028D01*
X172903972Y-109976262D01*
X173057111Y-110078586D01*
X173227271Y-110149068D01*
X173407911Y-110185000D01*
X173592089Y-110185000D01*
X173772729Y-110149068D01*
X173942889Y-110078586D01*
X174096028Y-109976262D01*
X174226262Y-109846028D01*
X174328586Y-109692889D01*
X174399068Y-109522729D01*
X174435000Y-109342089D01*
X174435000Y-109157911D01*
X174399068Y-108977271D01*
X174335000Y-108822596D01*
X174335000Y-107177404D01*
X174399068Y-107022729D01*
X174435000Y-106842089D01*
X174435000Y-106657911D01*
X174399068Y-106477271D01*
X174328586Y-106307111D01*
X174226262Y-106153972D01*
X174096028Y-106023738D01*
X173942889Y-105921414D01*
X173772729Y-105850932D01*
X173592089Y-105815000D01*
X173407911Y-105815000D01*
X173227271Y-105850932D01*
X173057111Y-105921414D01*
X172903972Y-106023738D01*
X172773738Y-106153972D01*
X172671414Y-106307111D01*
X172600932Y-106477271D01*
X172565000Y-106657911D01*
X170435000Y-106657911D01*
X170399068Y-106477271D01*
X170328586Y-106307111D01*
X170226262Y-106153972D01*
X170096028Y-106023738D01*
X169942889Y-105921414D01*
X169772729Y-105850932D01*
X169592089Y-105815000D01*
X169407911Y-105815000D01*
X169227271Y-105850932D01*
X169057111Y-105921414D01*
X168903972Y-106023738D01*
X168773738Y-106153972D01*
X168671414Y-106307111D01*
X168600932Y-106477271D01*
X168565000Y-106657911D01*
X164664379Y-106657911D01*
X164726262Y-106596028D01*
X164828586Y-106442889D01*
X164899068Y-106272729D01*
X164935000Y-106092089D01*
X164935000Y-105907911D01*
X164899068Y-105727271D01*
X164828586Y-105557111D01*
X164726262Y-105403972D01*
X164596028Y-105273738D01*
X164442889Y-105171414D01*
X164288214Y-105107346D01*
X163777268Y-104596400D01*
X177498328Y-104596400D01*
X177501400Y-105174250D01*
X177660150Y-105333000D01*
X178873000Y-105333000D01*
X178873000Y-104120150D01*
X178714250Y-103961400D01*
X178136400Y-103958328D01*
X178011918Y-103970588D01*
X177892220Y-104006898D01*
X177781906Y-104065863D01*
X177685215Y-104145215D01*
X177605863Y-104241906D01*
X177546898Y-104352220D01*
X177510588Y-104471918D01*
X177498328Y-104596400D01*
X163777268Y-104596400D01*
X162835000Y-103654133D01*
X162835000Y-102541018D01*
X162839040Y-102499999D01*
X162822918Y-102336311D01*
X162775172Y-102178913D01*
X162697636Y-102033854D01*
X162641230Y-101965123D01*
X162593291Y-101906709D01*
X162561426Y-101880558D01*
X162146433Y-101465565D01*
X162714040Y-101465565D01*
X162781020Y-101705656D01*
X163030048Y-101822756D01*
X163297135Y-101889023D01*
X163572017Y-101901910D01*
X163844133Y-101860922D01*
X164103023Y-101767636D01*
X164218980Y-101705656D01*
X164285960Y-101465565D01*
X163500000Y-100679605D01*
X162714040Y-101465565D01*
X162146433Y-101465565D01*
X162055647Y-101374780D01*
X162198005Y-101161727D01*
X162227692Y-101090057D01*
X162232364Y-101103023D01*
X162294344Y-101218980D01*
X162534435Y-101285960D01*
X163320395Y-100500000D01*
X163306253Y-100485858D01*
X163485858Y-100306253D01*
X163500000Y-100320395D01*
X163514143Y-100306253D01*
X163693748Y-100485858D01*
X163679605Y-100500000D01*
X164465565Y-101285960D01*
X164705656Y-101218980D01*
X164769485Y-101083240D01*
X164801995Y-101161727D01*
X164954880Y-101390535D01*
X165149465Y-101585120D01*
X165378273Y-101738005D01*
X165632510Y-101843314D01*
X165902408Y-101897000D01*
X166177592Y-101897000D01*
X166447490Y-101843314D01*
X166701727Y-101738005D01*
X166930535Y-101585120D01*
X167125120Y-101390535D01*
X167278005Y-101161727D01*
X167383314Y-100907490D01*
X167414640Y-100750000D01*
X197979928Y-100750000D01*
X197983000Y-101314250D01*
X198141750Y-101473000D01*
X199341000Y-101473000D01*
X199341000Y-100273750D01*
X199595000Y-100273750D01*
X199595000Y-101473000D01*
X200794250Y-101473000D01*
X200953000Y-101314250D01*
X200956072Y-100750000D01*
X200943812Y-100625518D01*
X200907502Y-100505820D01*
X200848537Y-100395506D01*
X200769185Y-100298815D01*
X200672494Y-100219463D01*
X200562180Y-100160498D01*
X200442482Y-100124188D01*
X200318000Y-100111928D01*
X199753750Y-100115000D01*
X199595000Y-100273750D01*
X199341000Y-100273750D01*
X199182250Y-100115000D01*
X198618000Y-100111928D01*
X198493518Y-100124188D01*
X198373820Y-100160498D01*
X198263506Y-100219463D01*
X198166815Y-100298815D01*
X198087463Y-100395506D01*
X198028498Y-100505820D01*
X197992188Y-100625518D01*
X197979928Y-100750000D01*
X167414640Y-100750000D01*
X167437000Y-100637592D01*
X167437000Y-100362408D01*
X167383314Y-100092510D01*
X167278005Y-99838273D01*
X167192296Y-99710000D01*
X199965279Y-99710000D01*
X200249899Y-99737907D01*
X200490285Y-99810484D01*
X200711991Y-99928368D01*
X200906577Y-100087068D01*
X201066635Y-100280545D01*
X201186064Y-100501424D01*
X201260317Y-100741297D01*
X201290000Y-101023716D01*
X201290001Y-113965269D01*
X201243048Y-114444133D01*
X201114063Y-114871353D01*
X200904554Y-115265384D01*
X200622501Y-115611214D01*
X200278651Y-115895672D01*
X199886093Y-116107927D01*
X199459788Y-116239891D01*
X198983036Y-116290000D01*
X150034721Y-116290000D01*
X149555867Y-116243048D01*
X149128647Y-116114063D01*
X148734616Y-115904554D01*
X148388786Y-115622501D01*
X148104328Y-115278651D01*
X147892073Y-114886093D01*
X147760109Y-114459788D01*
X147726828Y-114143137D01*
X160665000Y-114143137D01*
X160665000Y-114356863D01*
X160706696Y-114566483D01*
X160788485Y-114763940D01*
X160907225Y-114941647D01*
X161058353Y-115092775D01*
X161236060Y-115211515D01*
X161433517Y-115293304D01*
X161643137Y-115335000D01*
X161856863Y-115335000D01*
X162066483Y-115293304D01*
X162263940Y-115211515D01*
X162303623Y-115185000D01*
X182704068Y-115185000D01*
X182750000Y-115189524D01*
X182795932Y-115185000D01*
X182933292Y-115171471D01*
X183109540Y-115118007D01*
X183271972Y-115031186D01*
X183414344Y-114914344D01*
X183443631Y-114878658D01*
X183519674Y-114802615D01*
X183566483Y-114793304D01*
X183763940Y-114711515D01*
X183941647Y-114592775D01*
X184092775Y-114441647D01*
X184211515Y-114263940D01*
X184293304Y-114066483D01*
X184314588Y-113959481D01*
X184368007Y-113859540D01*
X184421471Y-113683292D01*
X184423273Y-113665000D01*
X184439524Y-113500001D01*
X184435000Y-113454069D01*
X184435000Y-112522911D01*
X187315000Y-112522911D01*
X187315000Y-112707089D01*
X187350932Y-112887729D01*
X187421414Y-113057889D01*
X187523738Y-113211028D01*
X187653972Y-113341262D01*
X187807111Y-113443586D01*
X187977271Y-113514068D01*
X188157911Y-113550000D01*
X188342089Y-113550000D01*
X188522729Y-113514068D01*
X188677404Y-113450000D01*
X195246576Y-113450000D01*
X195287594Y-113454040D01*
X195328612Y-113450000D01*
X195328613Y-113450000D01*
X195451283Y-113437918D01*
X195608681Y-113390172D01*
X195753740Y-113312636D01*
X195880885Y-113208291D01*
X195907039Y-113176422D01*
X196194918Y-112888544D01*
X196339670Y-112828586D01*
X196492809Y-112726262D01*
X196623043Y-112596028D01*
X196725367Y-112442889D01*
X196795849Y-112272729D01*
X196831781Y-112092089D01*
X196831781Y-111907911D01*
X196795849Y-111727271D01*
X196725367Y-111557111D01*
X196623043Y-111403972D01*
X196492809Y-111273738D01*
X196339670Y-111171414D01*
X196169510Y-111100932D01*
X195988870Y-111065000D01*
X195804692Y-111065000D01*
X195624052Y-111100932D01*
X195453892Y-111171414D01*
X195300753Y-111273738D01*
X195170519Y-111403972D01*
X195068195Y-111557111D01*
X195000017Y-111721709D01*
X194941726Y-111780000D01*
X188677404Y-111780000D01*
X188522729Y-111715932D01*
X188342089Y-111680000D01*
X188157911Y-111680000D01*
X187977271Y-111715932D01*
X187807111Y-111786414D01*
X187653972Y-111888738D01*
X187523738Y-112018972D01*
X187421414Y-112172111D01*
X187350932Y-112342271D01*
X187315000Y-112522911D01*
X184435000Y-112522911D01*
X184435000Y-108045931D01*
X184439524Y-108000000D01*
X184435000Y-107954068D01*
X184435000Y-106387289D01*
X185005395Y-105816895D01*
X187553528Y-105816895D01*
X187593211Y-105843410D01*
X187790668Y-105925199D01*
X188000288Y-105966895D01*
X188214014Y-105966895D01*
X188423634Y-105925199D01*
X188621091Y-105843410D01*
X188660774Y-105816895D01*
X191715652Y-105816895D01*
X191706696Y-105838517D01*
X191665000Y-106048137D01*
X191665000Y-106261863D01*
X191706696Y-106471483D01*
X191788485Y-106668940D01*
X191907225Y-106846647D01*
X192058353Y-106997775D01*
X192236060Y-107116515D01*
X192433517Y-107198304D01*
X192643137Y-107240000D01*
X192856863Y-107240000D01*
X193066483Y-107198304D01*
X193263940Y-107116515D01*
X193303623Y-107090000D01*
X193475711Y-107090000D01*
X194700711Y-108315000D01*
X192553623Y-108315000D01*
X192513940Y-108288485D01*
X192316483Y-108206696D01*
X192106863Y-108165000D01*
X191893137Y-108165000D01*
X191683517Y-108206696D01*
X191486060Y-108288485D01*
X191308353Y-108407225D01*
X191157225Y-108558353D01*
X191038485Y-108736060D01*
X190956696Y-108933517D01*
X190915000Y-109143137D01*
X190915000Y-109356863D01*
X190956696Y-109566483D01*
X191038485Y-109763940D01*
X191157225Y-109941647D01*
X191308353Y-110092775D01*
X191486060Y-110211515D01*
X191683517Y-110293304D01*
X191893137Y-110335000D01*
X192106863Y-110335000D01*
X192316483Y-110293304D01*
X192513940Y-110211515D01*
X192553623Y-110185000D01*
X196608083Y-110185000D01*
X197988033Y-111588436D01*
X197983000Y-111613740D01*
X197983000Y-111906260D01*
X198040068Y-112193158D01*
X198152010Y-112463411D01*
X198314525Y-112706632D01*
X198521368Y-112913475D01*
X198695760Y-113030000D01*
X198521368Y-113146525D01*
X198314525Y-113353368D01*
X198152010Y-113596589D01*
X198123673Y-113665000D01*
X195442221Y-113665000D01*
X195401213Y-113660961D01*
X195360205Y-113665000D01*
X195360195Y-113665000D01*
X195237525Y-113677082D01*
X195080127Y-113724828D01*
X194935068Y-113802364D01*
X194807923Y-113906709D01*
X194781768Y-113938579D01*
X194704867Y-114015480D01*
X194704861Y-114015485D01*
X194678077Y-114042269D01*
X194523402Y-114106337D01*
X194370263Y-114208661D01*
X194240029Y-114338895D01*
X194137705Y-114492034D01*
X194067223Y-114662194D01*
X194031291Y-114842834D01*
X194031291Y-115027012D01*
X194067223Y-115207652D01*
X194137705Y-115377812D01*
X194240029Y-115530951D01*
X194370263Y-115661185D01*
X194523402Y-115763509D01*
X194693562Y-115833991D01*
X194874202Y-115869923D01*
X195058380Y-115869923D01*
X195239020Y-115833991D01*
X195409180Y-115763509D01*
X195562319Y-115661185D01*
X195692553Y-115530951D01*
X195794877Y-115377812D01*
X195812610Y-115335000D01*
X198402893Y-115335000D01*
X198521368Y-115453475D01*
X198764589Y-115615990D01*
X199034842Y-115727932D01*
X199321740Y-115785000D01*
X199614260Y-115785000D01*
X199901158Y-115727932D01*
X200171411Y-115615990D01*
X200414632Y-115453475D01*
X200621475Y-115246632D01*
X200783990Y-115003411D01*
X200895932Y-114733158D01*
X200953000Y-114446260D01*
X200953000Y-114153740D01*
X200895932Y-113866842D01*
X200783990Y-113596589D01*
X200621475Y-113353368D01*
X200414632Y-113146525D01*
X200240240Y-113030000D01*
X200414632Y-112913475D01*
X200621475Y-112706632D01*
X200783990Y-112463411D01*
X200895932Y-112193158D01*
X200953000Y-111906260D01*
X200953000Y-111613740D01*
X200895932Y-111326842D01*
X200783990Y-111056589D01*
X200621475Y-110813368D01*
X200414632Y-110606525D01*
X200240240Y-110490000D01*
X200414632Y-110373475D01*
X200621475Y-110166632D01*
X200783990Y-109923411D01*
X200895932Y-109653158D01*
X200953000Y-109366260D01*
X200953000Y-109073740D01*
X200895932Y-108786842D01*
X200783990Y-108516589D01*
X200621475Y-108273368D01*
X200414632Y-108066525D01*
X200240240Y-107950000D01*
X200414632Y-107833475D01*
X200621475Y-107626632D01*
X200783990Y-107383411D01*
X200895932Y-107113158D01*
X200953000Y-106826260D01*
X200953000Y-106533740D01*
X200895932Y-106246842D01*
X200783990Y-105976589D01*
X200621475Y-105733368D01*
X200414632Y-105526525D01*
X200240240Y-105410000D01*
X200414632Y-105293475D01*
X200621475Y-105086632D01*
X200783990Y-104843411D01*
X200895932Y-104573158D01*
X200953000Y-104286260D01*
X200953000Y-103993740D01*
X200895932Y-103706842D01*
X200783990Y-103436589D01*
X200621475Y-103193368D01*
X200489620Y-103061513D01*
X200562180Y-103039502D01*
X200672494Y-102980537D01*
X200769185Y-102901185D01*
X200848537Y-102804494D01*
X200907502Y-102694180D01*
X200943812Y-102574482D01*
X200956072Y-102450000D01*
X200953000Y-101885750D01*
X200794250Y-101727000D01*
X199595000Y-101727000D01*
X199595000Y-101747000D01*
X199341000Y-101747000D01*
X199341000Y-101727000D01*
X198141750Y-101727000D01*
X197983000Y-101885750D01*
X197979928Y-102450000D01*
X197992188Y-102574482D01*
X198028498Y-102694180D01*
X198087463Y-102804494D01*
X198166815Y-102901185D01*
X198263506Y-102980537D01*
X198373820Y-103039502D01*
X198446380Y-103061513D01*
X198314525Y-103193368D01*
X198152010Y-103436589D01*
X198040068Y-103706842D01*
X197983000Y-103993740D01*
X197983000Y-104165000D01*
X196326153Y-104165000D01*
X195619442Y-103458291D01*
X195619438Y-103458286D01*
X193944730Y-101783579D01*
X193918575Y-101751709D01*
X193791430Y-101647364D01*
X193646371Y-101569828D01*
X193488973Y-101522082D01*
X193366303Y-101510000D01*
X193366302Y-101510000D01*
X193325284Y-101505960D01*
X193284266Y-101510000D01*
X188677404Y-101510000D01*
X188522729Y-101445932D01*
X188342089Y-101410000D01*
X188157911Y-101410000D01*
X187977271Y-101445932D01*
X187807111Y-101516414D01*
X187653972Y-101618738D01*
X187523738Y-101748972D01*
X187421414Y-101902111D01*
X187350932Y-102072271D01*
X187315000Y-102252911D01*
X187315000Y-102437089D01*
X187350932Y-102617729D01*
X187421414Y-102787889D01*
X187523738Y-102941028D01*
X187653972Y-103071262D01*
X187807111Y-103173586D01*
X187977271Y-103244068D01*
X188157911Y-103280000D01*
X188342089Y-103280000D01*
X188522729Y-103244068D01*
X188677404Y-103180000D01*
X191918146Y-103180000D01*
X191850932Y-103342271D01*
X191815000Y-103522911D01*
X191815000Y-103707089D01*
X191850932Y-103887729D01*
X191875439Y-103946895D01*
X188660774Y-103946895D01*
X188621091Y-103920380D01*
X188423634Y-103838591D01*
X188214014Y-103796895D01*
X188000288Y-103796895D01*
X187790668Y-103838591D01*
X187593211Y-103920380D01*
X187553528Y-103946895D01*
X184664036Y-103946895D01*
X184618104Y-103942371D01*
X184434812Y-103960424D01*
X184390322Y-103973920D01*
X184258565Y-104013888D01*
X184096133Y-104100709D01*
X183953761Y-104217551D01*
X183924479Y-104253231D01*
X183009849Y-105167861D01*
X182981010Y-105022875D01*
X182868042Y-104750147D01*
X182704039Y-104504698D01*
X182495302Y-104295961D01*
X182249853Y-104131958D01*
X181977125Y-104018990D01*
X181687599Y-103961400D01*
X181392401Y-103961400D01*
X181102875Y-104018990D01*
X180830147Y-104131958D01*
X180584698Y-104295961D01*
X180470636Y-104410023D01*
X180453102Y-104352220D01*
X180394137Y-104241906D01*
X180314785Y-104145215D01*
X180218094Y-104065863D01*
X180107780Y-104006898D01*
X179988082Y-103970588D01*
X179863600Y-103958328D01*
X179285750Y-103961400D01*
X179127000Y-104120150D01*
X179127000Y-105333000D01*
X179147000Y-105333000D01*
X179147000Y-105587000D01*
X179127000Y-105587000D01*
X179127000Y-105607000D01*
X178873000Y-105607000D01*
X178873000Y-105587000D01*
X177660150Y-105587000D01*
X177501400Y-105745750D01*
X177498328Y-106323600D01*
X177510588Y-106448082D01*
X177546898Y-106567780D01*
X177605863Y-106678094D01*
X177685215Y-106774785D01*
X177781906Y-106854137D01*
X177892220Y-106913102D01*
X177950023Y-106930636D01*
X177835961Y-107044698D01*
X177671958Y-107290147D01*
X177558990Y-107562875D01*
X177501400Y-107852401D01*
X177501400Y-108147599D01*
X177558990Y-108437125D01*
X177671958Y-108709853D01*
X177835961Y-108955302D01*
X178044698Y-109164039D01*
X178203281Y-109270000D01*
X178044698Y-109375961D01*
X177835961Y-109584698D01*
X177671958Y-109830147D01*
X177558990Y-110102875D01*
X177501400Y-110392401D01*
X177501400Y-110687599D01*
X177558990Y-110977125D01*
X177671958Y-111249853D01*
X177835961Y-111495302D01*
X178044698Y-111704039D01*
X178290147Y-111868042D01*
X178562875Y-111981010D01*
X178852401Y-112038600D01*
X179147599Y-112038600D01*
X179437125Y-111981010D01*
X179709853Y-111868042D01*
X179955302Y-111704039D01*
X180164039Y-111495302D01*
X180270000Y-111336719D01*
X180375961Y-111495302D01*
X180584698Y-111704039D01*
X180830147Y-111868042D01*
X181102875Y-111981010D01*
X181392401Y-112038600D01*
X181687599Y-112038600D01*
X181977125Y-111981010D01*
X182249853Y-111868042D01*
X182495302Y-111704039D01*
X182565000Y-111634341D01*
X182565000Y-112902784D01*
X182558353Y-112907225D01*
X182407225Y-113058353D01*
X182288485Y-113236060D01*
X182255787Y-113315000D01*
X162303623Y-113315000D01*
X162263940Y-113288485D01*
X162066483Y-113206696D01*
X161856863Y-113165000D01*
X161643137Y-113165000D01*
X161433517Y-113206696D01*
X161236060Y-113288485D01*
X161058353Y-113407225D01*
X160907225Y-113558353D01*
X160788485Y-113736060D01*
X160706696Y-113933517D01*
X160665000Y-114143137D01*
X147726828Y-114143137D01*
X147710000Y-113983036D01*
X147710000Y-110602945D01*
X150620340Y-110602945D01*
X150643045Y-110806117D01*
X150830001Y-110886836D01*
X151029112Y-110929530D01*
X151232726Y-110932560D01*
X151433019Y-110895808D01*
X151622293Y-110820688D01*
X151649555Y-110806117D01*
X151672260Y-110602945D01*
X151146300Y-110076985D01*
X150620340Y-110602945D01*
X147710000Y-110602945D01*
X147710000Y-109983806D01*
X150111120Y-109983806D01*
X150147872Y-110184099D01*
X150222992Y-110373373D01*
X150237563Y-110400635D01*
X150440735Y-110423340D01*
X150966695Y-109897380D01*
X151325905Y-109897380D01*
X151851865Y-110423340D01*
X152055037Y-110400635D01*
X152135756Y-110213679D01*
X152178450Y-110014568D01*
X152181480Y-109810954D01*
X152144728Y-109610661D01*
X152069608Y-109421387D01*
X152055037Y-109394125D01*
X151851865Y-109371420D01*
X151325905Y-109897380D01*
X150966695Y-109897380D01*
X150440735Y-109371420D01*
X150237563Y-109394125D01*
X150156844Y-109581081D01*
X150114150Y-109780192D01*
X150111120Y-109983806D01*
X147710000Y-109983806D01*
X147710000Y-109191815D01*
X150620340Y-109191815D01*
X151146300Y-109717775D01*
X151672260Y-109191815D01*
X151649555Y-108988643D01*
X151462599Y-108907924D01*
X151263488Y-108865230D01*
X151059874Y-108862200D01*
X150859581Y-108898952D01*
X150670307Y-108974072D01*
X150643045Y-108988643D01*
X150620340Y-109191815D01*
X147710000Y-109191815D01*
X147710000Y-105998262D01*
X150115060Y-105998262D01*
X150115060Y-106201898D01*
X150154788Y-106401622D01*
X150232716Y-106589758D01*
X150345851Y-106759076D01*
X150489844Y-106903069D01*
X150659162Y-107016204D01*
X150847298Y-107094132D01*
X151047022Y-107133860D01*
X151250658Y-107133860D01*
X151450382Y-107094132D01*
X151638518Y-107016204D01*
X151807836Y-106903069D01*
X151951829Y-106759076D01*
X152064964Y-106589758D01*
X152142892Y-106401622D01*
X152182620Y-106201898D01*
X152182620Y-105998262D01*
X152142892Y-105798538D01*
X152064964Y-105610402D01*
X151951829Y-105441084D01*
X151807836Y-105297091D01*
X151638518Y-105183956D01*
X151450382Y-105106028D01*
X151250658Y-105066300D01*
X151047022Y-105066300D01*
X150847298Y-105106028D01*
X150659162Y-105183956D01*
X150489844Y-105297091D01*
X150345851Y-105441084D01*
X150232716Y-105610402D01*
X150154788Y-105798538D01*
X150115060Y-105998262D01*
X147710000Y-105998262D01*
X147710000Y-104952057D01*
X152356080Y-104952057D01*
X152356080Y-105165783D01*
X152397776Y-105375403D01*
X152479565Y-105572860D01*
X152506080Y-105612543D01*
X152506081Y-109920473D01*
X152469857Y-110007926D01*
X152428161Y-110217546D01*
X152428161Y-110431272D01*
X152469857Y-110640892D01*
X152551646Y-110838349D01*
X152670386Y-111016056D01*
X152821514Y-111167184D01*
X152999221Y-111285924D01*
X153196678Y-111367713D01*
X153406298Y-111409409D01*
X153620024Y-111409409D01*
X153829644Y-111367713D01*
X154027101Y-111285924D01*
X154204808Y-111167184D01*
X154355936Y-111016056D01*
X154474676Y-110838349D01*
X154556465Y-110640892D01*
X154598161Y-110431272D01*
X154598161Y-110217546D01*
X154556465Y-110007926D01*
X154474676Y-109810469D01*
X154376080Y-109662910D01*
X154376080Y-109428668D01*
X154407911Y-109435000D01*
X154592089Y-109435000D01*
X154772729Y-109399068D01*
X154942889Y-109328586D01*
X155096028Y-109226262D01*
X155226262Y-109096028D01*
X155328586Y-108942889D01*
X155373275Y-108835000D01*
X158572596Y-108835000D01*
X158727271Y-108899068D01*
X158907911Y-108935000D01*
X159092089Y-108935000D01*
X159272729Y-108899068D01*
X159442889Y-108828586D01*
X159596028Y-108726262D01*
X159726262Y-108596028D01*
X159828586Y-108442889D01*
X159899068Y-108272729D01*
X159935000Y-108092089D01*
X159935000Y-107907911D01*
X159899068Y-107727271D01*
X159828586Y-107557111D01*
X159726262Y-107403972D01*
X159596028Y-107273738D01*
X159560502Y-107250000D01*
X159596028Y-107226262D01*
X159726262Y-107096028D01*
X159828586Y-106942889D01*
X159899068Y-106772729D01*
X159935000Y-106592089D01*
X159935000Y-106407911D01*
X159899068Y-106227271D01*
X159828586Y-106057111D01*
X159726262Y-105903972D01*
X159596028Y-105773738D01*
X159442889Y-105671414D01*
X159272729Y-105600932D01*
X159092089Y-105565000D01*
X158907911Y-105565000D01*
X158727271Y-105600932D01*
X158572596Y-105665000D01*
X155541018Y-105665000D01*
X155500000Y-105660960D01*
X155458982Y-105665000D01*
X155458981Y-105665000D01*
X155336311Y-105677082D01*
X155178913Y-105724828D01*
X155033854Y-105802364D01*
X154906709Y-105906709D01*
X154880563Y-105938568D01*
X154376080Y-106443052D01*
X154376080Y-105612543D01*
X154402595Y-105572860D01*
X154484384Y-105375403D01*
X154526080Y-105165783D01*
X154526080Y-104952057D01*
X154484384Y-104742437D01*
X154402595Y-104544980D01*
X154283855Y-104367273D01*
X154132727Y-104216145D01*
X153955020Y-104097405D01*
X153757563Y-104015616D01*
X153547943Y-103973920D01*
X153334217Y-103973920D01*
X153124597Y-104015616D01*
X152927140Y-104097405D01*
X152749433Y-104216145D01*
X152598305Y-104367273D01*
X152479565Y-104544980D01*
X152397776Y-104742437D01*
X152356080Y-104952057D01*
X147710000Y-104952057D01*
X147710000Y-102034721D01*
X147756953Y-101555866D01*
X147885938Y-101128645D01*
X148095446Y-100734616D01*
X148377499Y-100388786D01*
X148721351Y-100104327D01*
X149113910Y-99892071D01*
X149540213Y-99760108D01*
X150016964Y-99710000D01*
X159807704Y-99710000D01*
X159721995Y-99838273D01*
M02*
