G04 #@! TF.GenerationSoftware,KiCad,Pcbnew,5.1.5+dfsg1-2build2*
G04 #@! TF.CreationDate,2021-03-26T23:39:21+01:00*
G04 #@! TF.ProjectId,USB-I2C,5553422d-4932-4432-9e6b-696361645f70,rev?*
G04 #@! TF.SameCoordinates,Original*
G04 #@! TF.FileFunction,Legend,Top*
G04 #@! TF.FilePolarity,Positive*
%FSLAX46Y46*%
G04 Gerber Fmt 4.6, Leading zero omitted, Abs format (unit mm)*
G04 Created by KiCad (PCBNEW 5.1.5+dfsg1-2build2) date 2021-03-26 23:39:21*
%MOMM*%
%LPD*%
G04 APERTURE LIST*
%ADD10C,0.225000*%
%ADD11C,0.150000*%
%ADD12C,0.300000*%
%ADD13C,0.120000*%
%ADD14C,0.200660*%
G04 APERTURE END LIST*
D10*
X149300000Y-115507142D02*
X149300000Y-116235714D01*
X149342857Y-116321428D01*
X149385714Y-116364285D01*
X149471428Y-116407142D01*
X149642857Y-116407142D01*
X149728571Y-116364285D01*
X149771428Y-116321428D01*
X149814285Y-116235714D01*
X149814285Y-115507142D01*
X150200000Y-116364285D02*
X150328571Y-116407142D01*
X150542857Y-116407142D01*
X150628571Y-116364285D01*
X150671428Y-116321428D01*
X150714285Y-116235714D01*
X150714285Y-116150000D01*
X150671428Y-116064285D01*
X150628571Y-116021428D01*
X150542857Y-115978571D01*
X150371428Y-115935714D01*
X150285714Y-115892857D01*
X150242857Y-115850000D01*
X150200000Y-115764285D01*
X150200000Y-115678571D01*
X150242857Y-115592857D01*
X150285714Y-115550000D01*
X150371428Y-115507142D01*
X150585714Y-115507142D01*
X150714285Y-115550000D01*
X151400000Y-115935714D02*
X151528571Y-115978571D01*
X151571428Y-116021428D01*
X151614285Y-116107142D01*
X151614285Y-116235714D01*
X151571428Y-116321428D01*
X151528571Y-116364285D01*
X151442857Y-116407142D01*
X151100000Y-116407142D01*
X151100000Y-115507142D01*
X151400000Y-115507142D01*
X151485714Y-115550000D01*
X151528571Y-115592857D01*
X151571428Y-115678571D01*
X151571428Y-115764285D01*
X151528571Y-115850000D01*
X151485714Y-115892857D01*
X151400000Y-115935714D01*
X151100000Y-115935714D01*
X152000000Y-116064285D02*
X152685714Y-116064285D01*
X153114285Y-116407142D02*
X153114285Y-115507142D01*
X153500000Y-115592857D02*
X153542857Y-115550000D01*
X153628571Y-115507142D01*
X153842857Y-115507142D01*
X153928571Y-115550000D01*
X153971428Y-115592857D01*
X154014285Y-115678571D01*
X154014285Y-115764285D01*
X153971428Y-115892857D01*
X153457142Y-116407142D01*
X154014285Y-116407142D01*
X154914285Y-116321428D02*
X154871428Y-116364285D01*
X154742857Y-116407142D01*
X154657142Y-116407142D01*
X154528571Y-116364285D01*
X154442857Y-116278571D01*
X154400000Y-116192857D01*
X154357142Y-116021428D01*
X154357142Y-115892857D01*
X154400000Y-115721428D01*
X154442857Y-115635714D01*
X154528571Y-115550000D01*
X154657142Y-115507142D01*
X154742857Y-115507142D01*
X154871428Y-115550000D01*
X154914285Y-115592857D01*
X155900000Y-115807142D02*
X156114285Y-116407142D01*
X156328571Y-115807142D01*
X157142857Y-116407142D02*
X156628571Y-116407142D01*
X156885714Y-116407142D02*
X156885714Y-115507142D01*
X156800000Y-115635714D01*
X156714285Y-115721428D01*
X156628571Y-115764285D01*
X157528571Y-116321428D02*
X157571428Y-116364285D01*
X157528571Y-116407142D01*
X157485714Y-116364285D01*
X157528571Y-116321428D01*
X157528571Y-116407142D01*
X157914285Y-115592857D02*
X157957142Y-115550000D01*
X158042857Y-115507142D01*
X158257142Y-115507142D01*
X158342857Y-115550000D01*
X158385714Y-115592857D01*
X158428571Y-115678571D01*
X158428571Y-115764285D01*
X158385714Y-115892857D01*
X157871428Y-116407142D01*
X158428571Y-116407142D01*
X160014285Y-116321428D02*
X159971428Y-116364285D01*
X159842857Y-116407142D01*
X159757142Y-116407142D01*
X159628571Y-116364285D01*
X159542857Y-116278571D01*
X159500000Y-116192857D01*
X159457142Y-116021428D01*
X159457142Y-115892857D01*
X159500000Y-115721428D01*
X159542857Y-115635714D01*
X159628571Y-115550000D01*
X159757142Y-115507142D01*
X159842857Y-115507142D01*
X159971428Y-115550000D01*
X160014285Y-115592857D01*
X160914285Y-116321428D02*
X160871428Y-116364285D01*
X160742857Y-116407142D01*
X160657142Y-116407142D01*
X160528571Y-116364285D01*
X160442857Y-116278571D01*
X160400000Y-116192857D01*
X160357142Y-116021428D01*
X160357142Y-115892857D01*
X160400000Y-115721428D01*
X160442857Y-115635714D01*
X160528571Y-115550000D01*
X160657142Y-115507142D01*
X160742857Y-115507142D01*
X160871428Y-115550000D01*
X160914285Y-115592857D01*
X161300000Y-116064285D02*
X161985714Y-116064285D01*
X162714285Y-115935714D02*
X162842857Y-115978571D01*
X162885714Y-116021428D01*
X162928571Y-116107142D01*
X162928571Y-116235714D01*
X162885714Y-116321428D01*
X162842857Y-116364285D01*
X162757142Y-116407142D01*
X162414285Y-116407142D01*
X162414285Y-115507142D01*
X162714285Y-115507142D01*
X162800000Y-115550000D01*
X162842857Y-115592857D01*
X162885714Y-115678571D01*
X162885714Y-115764285D01*
X162842857Y-115850000D01*
X162800000Y-115892857D01*
X162714285Y-115935714D01*
X162414285Y-115935714D01*
X163485714Y-115978571D02*
X163485714Y-116407142D01*
X163185714Y-115507142D02*
X163485714Y-115978571D01*
X163785714Y-115507142D01*
X164085714Y-116064285D02*
X164771428Y-116064285D01*
X165157142Y-116364285D02*
X165285714Y-116407142D01*
X165500000Y-116407142D01*
X165585714Y-116364285D01*
X165628571Y-116321428D01*
X165671428Y-116235714D01*
X165671428Y-116150000D01*
X165628571Y-116064285D01*
X165585714Y-116021428D01*
X165500000Y-115978571D01*
X165328571Y-115935714D01*
X165242857Y-115892857D01*
X165200000Y-115850000D01*
X165157142Y-115764285D01*
X165157142Y-115678571D01*
X165200000Y-115592857D01*
X165242857Y-115550000D01*
X165328571Y-115507142D01*
X165542857Y-115507142D01*
X165671428Y-115550000D01*
X166014285Y-116150000D02*
X166442857Y-116150000D01*
X165928571Y-116407142D02*
X166228571Y-115507142D01*
X166528571Y-116407142D01*
X167900000Y-116407142D02*
X167900000Y-115507142D01*
X167900000Y-116364285D02*
X167814285Y-116407142D01*
X167642857Y-116407142D01*
X167557142Y-116364285D01*
X167514285Y-116321428D01*
X167471428Y-116235714D01*
X167471428Y-115978571D01*
X167514285Y-115892857D01*
X167557142Y-115850000D01*
X167642857Y-115807142D01*
X167814285Y-115807142D01*
X167900000Y-115850000D01*
X168328571Y-116407142D02*
X168328571Y-115807142D01*
X168328571Y-115978571D02*
X168371428Y-115892857D01*
X168414285Y-115850000D01*
X168500000Y-115807142D01*
X168585714Y-115807142D01*
X169271428Y-116407142D02*
X169271428Y-115935714D01*
X169228571Y-115850000D01*
X169142857Y-115807142D01*
X168971428Y-115807142D01*
X168885714Y-115850000D01*
X169271428Y-116364285D02*
X169185714Y-116407142D01*
X168971428Y-116407142D01*
X168885714Y-116364285D01*
X168842857Y-116278571D01*
X168842857Y-116192857D01*
X168885714Y-116107142D01*
X168971428Y-116064285D01*
X169185714Y-116064285D01*
X169271428Y-116021428D01*
X169700000Y-116407142D02*
X169700000Y-115507142D01*
X169785714Y-116064285D02*
X170042857Y-116407142D01*
X170042857Y-115807142D02*
X169700000Y-116150000D01*
X170771428Y-116364285D02*
X170685714Y-116407142D01*
X170514285Y-116407142D01*
X170428571Y-116364285D01*
X170385714Y-116278571D01*
X170385714Y-115935714D01*
X170428571Y-115850000D01*
X170514285Y-115807142D01*
X170685714Y-115807142D01*
X170771428Y-115850000D01*
X170814285Y-115935714D01*
X170814285Y-116021428D01*
X170385714Y-116107142D01*
X171200000Y-116321428D02*
X171242857Y-116364285D01*
X171200000Y-116407142D01*
X171157142Y-116364285D01*
X171200000Y-116321428D01*
X171200000Y-116407142D01*
X172014285Y-116364285D02*
X171928571Y-116407142D01*
X171757142Y-116407142D01*
X171671428Y-116364285D01*
X171628571Y-116321428D01*
X171585714Y-116235714D01*
X171585714Y-115978571D01*
X171628571Y-115892857D01*
X171671428Y-115850000D01*
X171757142Y-115807142D01*
X171928571Y-115807142D01*
X172014285Y-115850000D01*
X172314285Y-115807142D02*
X172785714Y-115807142D01*
X172314285Y-116407142D01*
X172785714Y-116407142D01*
D11*
X162142857Y-103654761D02*
X162285714Y-103702380D01*
X162523809Y-103702380D01*
X162619047Y-103654761D01*
X162666666Y-103607142D01*
X162714285Y-103511904D01*
X162714285Y-103416666D01*
X162666666Y-103321428D01*
X162619047Y-103273809D01*
X162523809Y-103226190D01*
X162333333Y-103178571D01*
X162238095Y-103130952D01*
X162190476Y-103083333D01*
X162142857Y-102988095D01*
X162142857Y-102892857D01*
X162190476Y-102797619D01*
X162238095Y-102750000D01*
X162333333Y-102702380D01*
X162571428Y-102702380D01*
X162714285Y-102750000D01*
X163047619Y-102702380D02*
X163285714Y-103702380D01*
X163476190Y-102988095D01*
X163666666Y-103702380D01*
X163904761Y-102702380D01*
X164285714Y-103702380D02*
X164285714Y-102702380D01*
X164523809Y-102702380D01*
X164666666Y-102750000D01*
X164761904Y-102845238D01*
X164809523Y-102940476D01*
X164857142Y-103130952D01*
X164857142Y-103273809D01*
X164809523Y-103464285D01*
X164761904Y-103559523D01*
X164666666Y-103654761D01*
X164523809Y-103702380D01*
X164285714Y-103702380D01*
D12*
X196670000Y-114657142D02*
X196670000Y-113942857D01*
X197098571Y-114800000D02*
X195598571Y-114300000D01*
X197098571Y-113800000D01*
X195598571Y-111402857D02*
X195598571Y-112117142D01*
X196312857Y-112188571D01*
X196241428Y-112117142D01*
X196170000Y-111974285D01*
X196170000Y-111617142D01*
X196241428Y-111474285D01*
X196312857Y-111402857D01*
X196455714Y-111331428D01*
X196812857Y-111331428D01*
X196955714Y-111402857D01*
X197027142Y-111474285D01*
X197098571Y-111617142D01*
X197098571Y-111974285D01*
X197027142Y-112117142D01*
X196955714Y-112188571D01*
X195598571Y-109720000D02*
X195598571Y-108791428D01*
X196170000Y-109291428D01*
X196170000Y-109077142D01*
X196241428Y-108934285D01*
X196312857Y-108862857D01*
X196455714Y-108791428D01*
X196812857Y-108791428D01*
X196955714Y-108862857D01*
X197027142Y-108934285D01*
X197098571Y-109077142D01*
X197098571Y-109505714D01*
X197027142Y-109648571D01*
X196955714Y-109720000D01*
X197098571Y-107072857D02*
X195598571Y-107072857D01*
X195598571Y-106715714D01*
X195670000Y-106501428D01*
X195812857Y-106358571D01*
X195955714Y-106287142D01*
X196241428Y-106215714D01*
X196455714Y-106215714D01*
X196741428Y-106287142D01*
X196884285Y-106358571D01*
X197027142Y-106501428D01*
X197098571Y-106715714D01*
X197098571Y-107072857D01*
X196955714Y-103675714D02*
X197027142Y-103747142D01*
X197098571Y-103961428D01*
X197098571Y-104104285D01*
X197027142Y-104318571D01*
X196884285Y-104461428D01*
X196741428Y-104532857D01*
X196455714Y-104604285D01*
X196241428Y-104604285D01*
X195955714Y-104532857D01*
X195812857Y-104461428D01*
X195670000Y-104318571D01*
X195598571Y-104104285D01*
X195598571Y-103961428D01*
X195670000Y-103747142D01*
X195741428Y-103675714D01*
X195750000Y-101207142D02*
X195678571Y-101350000D01*
X195678571Y-101564285D01*
X195750000Y-101778571D01*
X195892857Y-101921428D01*
X196035714Y-101992857D01*
X196321428Y-102064285D01*
X196535714Y-102064285D01*
X196821428Y-101992857D01*
X196964285Y-101921428D01*
X197107142Y-101778571D01*
X197178571Y-101564285D01*
X197178571Y-101421428D01*
X197107142Y-101207142D01*
X197035714Y-101135714D01*
X196535714Y-101135714D01*
X196535714Y-101421428D01*
D13*
X175345000Y-99860000D02*
X177885000Y-99860000D01*
X175345000Y-99860000D02*
X175345000Y-102400000D01*
X175595000Y-100110000D02*
X184945000Y-100110000D01*
X175595000Y-115890000D02*
X175595000Y-100110000D01*
X184945000Y-115890000D02*
X175595000Y-115890000D01*
X184945000Y-100110000D02*
X184945000Y-115890000D01*
X163500000Y-113435000D02*
X166950000Y-113435000D01*
X163500000Y-113435000D02*
X161550000Y-113435000D01*
X163500000Y-104565000D02*
X165450000Y-104565000D01*
X163500000Y-104565000D02*
X161550000Y-104565000D01*
D14*
X151900680Y-111898900D02*
X146899420Y-111898900D01*
X151900680Y-104101100D02*
X151900680Y-111898900D01*
X146899420Y-104101100D02*
X151900680Y-104101100D01*
X147100080Y-103798840D02*
X146899420Y-103798840D01*
X147100080Y-112201160D02*
X147100080Y-103798840D01*
X146899420Y-112201160D02*
X147100080Y-112201160D01*
X146899420Y-103798840D02*
X146899420Y-112201160D01*
X147001020Y-103798840D02*
X147001020Y-112201160D01*
D11*
X189000000Y-99500000D02*
X189000000Y-100000000D01*
X192000000Y-100000000D02*
X189000000Y-100000000D01*
X192000000Y-99500000D02*
X192000000Y-100000000D01*
X193000000Y-109000000D02*
X188000000Y-109000000D01*
X193000000Y-99500000D02*
X188000000Y-99500000D01*
X188000000Y-99500000D02*
X188000000Y-109000000D01*
X193000000Y-99500000D02*
X193000000Y-109000000D01*
X189000000Y-109770000D02*
X189000000Y-110270000D01*
X192000000Y-110270000D02*
X189000000Y-110270000D01*
X192000000Y-109770000D02*
X192000000Y-110270000D01*
X193000000Y-116730000D02*
X188000000Y-116730000D01*
X193000000Y-109770000D02*
X188000000Y-109770000D01*
X188000000Y-109770000D02*
X188000000Y-116730000D01*
X193000000Y-109770000D02*
X193000000Y-116730000D01*
X167310000Y-99230000D02*
X167310000Y-101770000D01*
X159690000Y-99230000D02*
X167310000Y-99230000D01*
X159690000Y-101770000D02*
X159690000Y-99230000D01*
X167310000Y-101770000D02*
X159690000Y-101770000D01*
X164770000Y-101770000D02*
X164770000Y-99230000D01*
D13*
X171491422Y-112710000D02*
X172008578Y-112710000D01*
X171491422Y-111290000D02*
X172008578Y-111290000D01*
X156790000Y-101241422D02*
X156790000Y-101758578D01*
X158210000Y-101241422D02*
X158210000Y-101758578D01*
X156258578Y-113540000D02*
X155741422Y-113540000D01*
X156258578Y-114960000D02*
X155741422Y-114960000D01*
X156040000Y-106215000D02*
X156040000Y-108900000D01*
X157960000Y-106215000D02*
X156040000Y-106215000D01*
X157960000Y-108900000D02*
X157960000Y-106215000D01*
X156208578Y-110290000D02*
X155691422Y-110290000D01*
X156208578Y-111710000D02*
X155691422Y-111710000D01*
X168790000Y-101241422D02*
X168790000Y-101758578D01*
X170210000Y-101241422D02*
X170210000Y-101758578D01*
X170790000Y-101241422D02*
X170790000Y-101758578D01*
X172210000Y-101241422D02*
X172210000Y-101758578D01*
X172790000Y-101241422D02*
X172790000Y-101758578D01*
X174210000Y-101241422D02*
X174210000Y-101758578D01*
X154400000Y-99890000D02*
X151950000Y-99890000D01*
X152600000Y-103110000D02*
X154400000Y-103110000D01*
D11*
X179936666Y-98308380D02*
X179936666Y-99022666D01*
X179889047Y-99165523D01*
X179793809Y-99260761D01*
X179650952Y-99308380D01*
X179555714Y-99308380D01*
X180317619Y-98308380D02*
X180936666Y-98308380D01*
X180603333Y-98689333D01*
X180746190Y-98689333D01*
X180841428Y-98736952D01*
X180889047Y-98784571D01*
X180936666Y-98879809D01*
X180936666Y-99117904D01*
X180889047Y-99213142D01*
X180841428Y-99260761D01*
X180746190Y-99308380D01*
X180460476Y-99308380D01*
X180365238Y-99260761D01*
X180317619Y-99213142D01*
X162738095Y-113732380D02*
X162738095Y-114541904D01*
X162785714Y-114637142D01*
X162833333Y-114684761D01*
X162928571Y-114732380D01*
X163119047Y-114732380D01*
X163214285Y-114684761D01*
X163261904Y-114637142D01*
X163309523Y-114541904D01*
X163309523Y-113732380D01*
X163738095Y-113827619D02*
X163785714Y-113780000D01*
X163880952Y-113732380D01*
X164119047Y-113732380D01*
X164214285Y-113780000D01*
X164261904Y-113827619D01*
X164309523Y-113922857D01*
X164309523Y-114018095D01*
X164261904Y-114160952D01*
X163690476Y-114732380D01*
X164309523Y-114732380D01*
X189690476Y-100452380D02*
X190357142Y-101452380D01*
X190357142Y-100452380D02*
X189690476Y-101452380D01*
X191261904Y-101452380D02*
X190690476Y-101452380D01*
X190976190Y-101452380D02*
X190976190Y-100452380D01*
X190880952Y-100595238D01*
X190785714Y-100690476D01*
X190690476Y-100738095D01*
X189690476Y-110952380D02*
X190357142Y-111952380D01*
X190357142Y-110952380D02*
X189690476Y-111952380D01*
X190690476Y-111047619D02*
X190738095Y-111000000D01*
X190833333Y-110952380D01*
X191071428Y-110952380D01*
X191166666Y-111000000D01*
X191214285Y-111047619D01*
X191261904Y-111142857D01*
X191261904Y-111238095D01*
X191214285Y-111380952D01*
X190642857Y-111952380D01*
X191261904Y-111952380D01*
X168833333Y-112357142D02*
X168785714Y-112404761D01*
X168642857Y-112452380D01*
X168547619Y-112452380D01*
X168404761Y-112404761D01*
X168309523Y-112309523D01*
X168261904Y-112214285D01*
X168214285Y-112023809D01*
X168214285Y-111880952D01*
X168261904Y-111690476D01*
X168309523Y-111595238D01*
X168404761Y-111500000D01*
X168547619Y-111452380D01*
X168642857Y-111452380D01*
X168785714Y-111500000D01*
X168833333Y-111547619D01*
X169785714Y-112452380D02*
X169214285Y-112452380D01*
X169500000Y-112452380D02*
X169500000Y-111452380D01*
X169404761Y-111595238D01*
X169309523Y-111690476D01*
X169214285Y-111738095D01*
X159357142Y-104166666D02*
X159404761Y-104214285D01*
X159452380Y-104357142D01*
X159452380Y-104452380D01*
X159404761Y-104595238D01*
X159309523Y-104690476D01*
X159214285Y-104738095D01*
X159023809Y-104785714D01*
X158880952Y-104785714D01*
X158690476Y-104738095D01*
X158595238Y-104690476D01*
X158500000Y-104595238D01*
X158452380Y-104452380D01*
X158452380Y-104357142D01*
X158500000Y-104214285D01*
X158547619Y-104166666D01*
X158547619Y-103785714D02*
X158500000Y-103738095D01*
X158452380Y-103642857D01*
X158452380Y-103404761D01*
X158500000Y-103309523D01*
X158547619Y-103261904D01*
X158642857Y-103214285D01*
X158738095Y-103214285D01*
X158880952Y-103261904D01*
X159452380Y-103833333D01*
X159452380Y-103214285D01*
X153083333Y-113857142D02*
X153035714Y-113904761D01*
X152892857Y-113952380D01*
X152797619Y-113952380D01*
X152654761Y-113904761D01*
X152559523Y-113809523D01*
X152511904Y-113714285D01*
X152464285Y-113523809D01*
X152464285Y-113380952D01*
X152511904Y-113190476D01*
X152559523Y-113095238D01*
X152654761Y-113000000D01*
X152797619Y-112952380D01*
X152892857Y-112952380D01*
X153035714Y-113000000D01*
X153083333Y-113047619D01*
X153416666Y-112952380D02*
X154035714Y-112952380D01*
X153702380Y-113333333D01*
X153845238Y-113333333D01*
X153940476Y-113380952D01*
X153988095Y-113428571D01*
X154035714Y-113523809D01*
X154035714Y-113761904D01*
X153988095Y-113857142D01*
X153940476Y-113904761D01*
X153845238Y-113952380D01*
X153559523Y-113952380D01*
X153464285Y-113904761D01*
X153416666Y-113857142D01*
X155702380Y-106738095D02*
X154702380Y-106738095D01*
X154702380Y-106500000D01*
X154750000Y-106357142D01*
X154845238Y-106261904D01*
X154940476Y-106214285D01*
X155130952Y-106166666D01*
X155273809Y-106166666D01*
X155464285Y-106214285D01*
X155559523Y-106261904D01*
X155654761Y-106357142D01*
X155702380Y-106500000D01*
X155702380Y-106738095D01*
X155702380Y-105214285D02*
X155702380Y-105785714D01*
X155702380Y-105500000D02*
X154702380Y-105500000D01*
X154845238Y-105595238D01*
X154940476Y-105690476D01*
X154988095Y-105785714D01*
X153083333Y-112202380D02*
X152750000Y-111726190D01*
X152511904Y-112202380D02*
X152511904Y-111202380D01*
X152892857Y-111202380D01*
X152988095Y-111250000D01*
X153035714Y-111297619D01*
X153083333Y-111392857D01*
X153083333Y-111535714D01*
X153035714Y-111630952D01*
X152988095Y-111678571D01*
X152892857Y-111726190D01*
X152511904Y-111726190D01*
X154035714Y-112202380D02*
X153464285Y-112202380D01*
X153750000Y-112202380D02*
X153750000Y-111202380D01*
X153654761Y-111345238D01*
X153559523Y-111440476D01*
X153464285Y-111488095D01*
X169952380Y-104666666D02*
X169476190Y-105000000D01*
X169952380Y-105238095D02*
X168952380Y-105238095D01*
X168952380Y-104857142D01*
X169000000Y-104761904D01*
X169047619Y-104714285D01*
X169142857Y-104666666D01*
X169285714Y-104666666D01*
X169380952Y-104714285D01*
X169428571Y-104761904D01*
X169476190Y-104857142D01*
X169476190Y-105238095D01*
X169047619Y-104285714D02*
X169000000Y-104238095D01*
X168952380Y-104142857D01*
X168952380Y-103904761D01*
X169000000Y-103809523D01*
X169047619Y-103761904D01*
X169142857Y-103714285D01*
X169238095Y-103714285D01*
X169380952Y-103761904D01*
X169952380Y-104333333D01*
X169952380Y-103714285D01*
X171952380Y-104666666D02*
X171476190Y-105000000D01*
X171952380Y-105238095D02*
X170952380Y-105238095D01*
X170952380Y-104857142D01*
X171000000Y-104761904D01*
X171047619Y-104714285D01*
X171142857Y-104666666D01*
X171285714Y-104666666D01*
X171380952Y-104714285D01*
X171428571Y-104761904D01*
X171476190Y-104857142D01*
X171476190Y-105238095D01*
X170952380Y-104333333D02*
X170952380Y-103714285D01*
X171333333Y-104047619D01*
X171333333Y-103904761D01*
X171380952Y-103809523D01*
X171428571Y-103761904D01*
X171523809Y-103714285D01*
X171761904Y-103714285D01*
X171857142Y-103761904D01*
X171904761Y-103809523D01*
X171952380Y-103904761D01*
X171952380Y-104190476D01*
X171904761Y-104285714D01*
X171857142Y-104333333D01*
X173952380Y-104666666D02*
X173476190Y-105000000D01*
X173952380Y-105238095D02*
X172952380Y-105238095D01*
X172952380Y-104857142D01*
X173000000Y-104761904D01*
X173047619Y-104714285D01*
X173142857Y-104666666D01*
X173285714Y-104666666D01*
X173380952Y-104714285D01*
X173428571Y-104761904D01*
X173476190Y-104857142D01*
X173476190Y-105238095D01*
X173285714Y-103809523D02*
X173952380Y-103809523D01*
X172904761Y-104047619D02*
X173619047Y-104285714D01*
X173619047Y-103666666D01*
X149488095Y-100952380D02*
X149488095Y-101761904D01*
X149535714Y-101857142D01*
X149583333Y-101904761D01*
X149678571Y-101952380D01*
X149869047Y-101952380D01*
X149964285Y-101904761D01*
X150011904Y-101857142D01*
X150059523Y-101761904D01*
X150059523Y-100952380D01*
X151059523Y-101952380D02*
X150488095Y-101952380D01*
X150773809Y-101952380D02*
X150773809Y-100952380D01*
X150678571Y-101095238D01*
X150583333Y-101190476D01*
X150488095Y-101238095D01*
M02*
