G04 #@! TF.FileFunction,Copper,L1,Top,Signal*
%FSLAX46Y46*%
G04 Gerber Fmt 4.6, Leading zero omitted, Abs format (unit mm)*
G04 Created by KiCad (PCBNEW 4.0.7-e2-6376~58~ubuntu16.04.1) date Wed Aug 15 22:40:32 2018*
%MOMM*%
%LPD*%
G01*
G04 APERTURE LIST*
%ADD10C,0.100000*%
%ADD11R,1.897380X1.897380*%
%ADD12R,2.000000X0.398780*%
%ADD13C,0.797560*%
%ADD14R,1.000000X1.250000*%
%ADD15R,1.250000X1.000000*%
%ADD16R,1.200000X1.200000*%
%ADD17R,1.700000X1.700000*%
%ADD18O,1.700000X1.700000*%
%ADD19R,0.700000X1.300000*%
%ADD20R,1.300000X0.700000*%
%ADD21R,1.220000X0.650000*%
%ADD22R,0.600000X1.200000*%
%ADD23R,1.200000X0.600000*%
%ADD24R,3.000000X1.500000*%
%ADD25C,1.524000*%
%ADD26C,0.600000*%
%ADD27C,0.900000*%
%ADD28C,0.400000*%
%ADD29C,0.600000*%
G04 APERTURE END LIST*
D10*
D11*
X149000000Y-106801120D03*
X149000000Y-109198880D03*
X149000000Y-111949700D03*
X149000000Y-104050300D03*
D12*
X152000000Y-106699520D03*
X152000000Y-107352300D03*
X152000000Y-108000000D03*
X152000000Y-108647700D03*
X152000000Y-109300480D03*
D13*
X151146300Y-109897380D03*
X151148840Y-106100080D03*
D14*
X170750000Y-112000000D03*
X172750000Y-112000000D03*
D15*
X157500000Y-100500000D03*
X157500000Y-102500000D03*
D14*
X157000000Y-114250000D03*
X155000000Y-114250000D03*
X170750000Y-107000000D03*
X172750000Y-107000000D03*
X170750000Y-109500000D03*
X172750000Y-109500000D03*
D16*
X157000000Y-109000000D03*
X157000000Y-106800000D03*
D17*
X188468000Y-101600000D03*
D18*
X188468000Y-104140000D03*
X188468000Y-106680000D03*
X188468000Y-109220000D03*
X188468000Y-111760000D03*
X188468000Y-114300000D03*
D19*
X156900000Y-111000000D03*
X155000000Y-111000000D03*
D20*
X169500000Y-100550000D03*
X169500000Y-102450000D03*
X171500000Y-100550000D03*
X171500000Y-102450000D03*
X173500000Y-100550000D03*
X173500000Y-102450000D03*
D21*
X152190000Y-100550000D03*
X152190000Y-101500000D03*
X152190000Y-102450000D03*
X154810000Y-102450000D03*
X154810000Y-100550000D03*
D22*
X161200000Y-114250000D03*
X162000000Y-114250000D03*
X162800000Y-114250000D03*
X163600000Y-114250000D03*
X164400000Y-114250000D03*
X165200000Y-114250000D03*
X166000000Y-114250000D03*
X166800000Y-114250000D03*
D23*
X168250000Y-112800000D03*
X168250000Y-112000000D03*
X168250000Y-111200000D03*
X168250000Y-110400000D03*
X168250000Y-109600000D03*
X168250000Y-108800000D03*
X168250000Y-108000000D03*
X168250000Y-107200000D03*
D22*
X166800000Y-105750000D03*
X166000000Y-105750000D03*
X165200000Y-105750000D03*
X164400000Y-105750000D03*
X163600000Y-105750000D03*
X162800000Y-105750000D03*
X162000000Y-105750000D03*
X161200000Y-105750000D03*
D23*
X159750000Y-107200000D03*
X159750000Y-108000000D03*
X159750000Y-108800000D03*
X159750000Y-109600000D03*
X159750000Y-110400000D03*
X159750000Y-111200000D03*
X159750000Y-112000000D03*
X159750000Y-112800000D03*
D24*
X181750000Y-101075000D03*
X177250000Y-102345000D03*
X181750000Y-103615000D03*
X177250000Y-104885000D03*
X181750000Y-106155000D03*
X177250000Y-107425000D03*
X181750000Y-111345000D03*
X177250000Y-112615000D03*
X181750000Y-113885000D03*
X177250000Y-115155000D03*
D25*
X166040000Y-100500000D03*
X163500000Y-100500000D03*
X160960000Y-100500000D03*
D26*
X170000000Y-112000000D03*
X163500000Y-111500000D03*
D27*
X151106974Y-112299859D03*
X174217576Y-110164688D03*
X157500000Y-104500000D03*
X162000000Y-112500000D03*
X181750000Y-101075000D03*
X181750000Y-111345000D03*
X166500000Y-107500000D03*
X149000000Y-101500000D03*
X174155909Y-115518483D03*
X158000000Y-114250000D03*
X177107151Y-104881895D03*
X174500000Y-107000000D03*
X170000000Y-109500000D03*
X166500000Y-109500000D03*
X153513161Y-110324409D03*
X174000000Y-113500000D03*
X153441080Y-105058920D03*
X182141879Y-106795662D03*
D26*
X163500000Y-107500000D03*
X154500000Y-107500000D03*
X162500000Y-108500000D03*
X154500000Y-108500000D03*
X167103419Y-104251795D03*
X184896781Y-113224187D03*
X172500000Y-103500000D03*
X184807481Y-105289494D03*
X177250000Y-112615000D03*
X177250000Y-102345000D03*
X181809990Y-103319613D03*
X167569989Y-102871784D03*
X174500000Y-103500000D03*
X183966291Y-114934923D03*
X169500000Y-104000000D03*
X165000000Y-107500000D03*
X162107671Y-102131209D03*
X162086495Y-104460580D03*
X160988761Y-102124878D03*
X160148882Y-104915866D03*
D28*
X170000000Y-112000000D02*
X170750000Y-112000000D01*
X163600000Y-111600000D02*
X163500000Y-111500000D01*
X163600000Y-114250000D02*
X163600000Y-111600000D01*
D29*
X151146300Y-112260533D02*
X151106974Y-112299859D01*
X151146300Y-109897380D02*
X151146300Y-112260533D01*
X174217576Y-109867576D02*
X174217576Y-110164688D01*
X173850000Y-109500000D02*
X174217576Y-109867576D01*
X172750000Y-109500000D02*
X173850000Y-109500000D01*
X157500000Y-102500000D02*
X157500000Y-104500000D01*
X157000000Y-105000000D02*
X157500000Y-104500000D01*
X157000000Y-106800000D02*
X157000000Y-105000000D01*
X159750000Y-112000000D02*
X160950000Y-112000000D01*
X160950000Y-112000000D02*
X161250000Y-112300000D01*
X161250000Y-112300000D02*
X161250000Y-112500000D01*
X161250000Y-112500000D02*
X162000000Y-112500000D01*
X159750000Y-112800000D02*
X160950000Y-112800000D01*
X160950000Y-112800000D02*
X161250000Y-112500000D01*
D28*
X152000000Y-109300480D02*
X151743200Y-109300480D01*
X151743200Y-109300480D02*
X151146300Y-109897380D01*
D29*
X159750000Y-112800000D02*
X156450000Y-112800000D01*
X156450000Y-112800000D02*
X155000000Y-114250000D01*
X172750000Y-109500000D02*
X172750000Y-112000000D01*
X172750000Y-107000000D02*
X172750000Y-109500000D01*
X168250000Y-107200000D02*
X166800000Y-107200000D01*
X166800000Y-107200000D02*
X166500000Y-107500000D01*
X152190000Y-101500000D02*
X149000000Y-101500000D01*
X149000000Y-104050300D02*
X149000000Y-101500000D01*
X149000000Y-106801120D02*
X149000000Y-104050300D01*
X149000000Y-109198880D02*
X149000000Y-106801120D01*
X149000000Y-111949700D02*
X149000000Y-109198880D01*
X174106362Y-106000487D02*
X174136883Y-106000487D01*
X174136883Y-106000487D02*
X174500000Y-106363604D01*
X174500000Y-106363604D02*
X174500000Y-107000000D01*
X172800312Y-105750000D02*
X173855875Y-105750000D01*
X173855875Y-105750000D02*
X174106362Y-106000487D01*
X170747376Y-105750000D02*
X172800312Y-105750000D01*
X172800312Y-105750000D02*
X172807208Y-105756896D01*
X174508483Y-107001514D02*
X175157586Y-107650617D01*
X175157586Y-107650617D02*
X175157586Y-114516806D01*
X168359999Y-101390001D02*
X168359999Y-102000000D01*
X160334998Y-103209998D02*
X164644415Y-103209998D01*
X168359999Y-102000000D02*
X168359999Y-105609999D01*
X157500000Y-100500000D02*
X157625000Y-100500000D01*
X157625000Y-100500000D02*
X160334998Y-103209998D01*
X164644415Y-103209998D02*
X165772639Y-102081774D01*
X165772639Y-102081774D02*
X168278225Y-102081774D01*
X168278225Y-102081774D02*
X168359999Y-102000000D01*
X168000000Y-105750000D02*
X168500000Y-105750000D01*
X168500000Y-105750000D02*
X170747376Y-105750000D01*
X168359999Y-105609999D02*
X168500000Y-105750000D01*
X169500000Y-100550000D02*
X169200000Y-100550000D01*
X169200000Y-100550000D02*
X168359999Y-101390001D01*
X175157586Y-114516806D02*
X176611806Y-114516806D01*
X176611806Y-114516806D02*
X177250000Y-115155000D01*
X174605908Y-115068484D02*
X174155909Y-115518483D01*
X175157586Y-114516806D02*
X174605908Y-115068484D01*
X158000000Y-114250000D02*
X161200000Y-114250000D01*
X157000000Y-114250000D02*
X158000000Y-114250000D01*
X170747376Y-105750000D02*
X170750000Y-105747376D01*
X174500000Y-107000000D02*
X174518394Y-106981606D01*
X168000000Y-105750000D02*
X166800000Y-105750000D01*
X170750000Y-107000000D02*
X170750000Y-105747376D01*
X170750000Y-105747376D02*
X170747837Y-105745213D01*
X170750000Y-107000000D02*
X170750000Y-109500000D01*
X171500000Y-100550000D02*
X169500000Y-100550000D01*
X173500000Y-100550000D02*
X171500000Y-100550000D01*
X154810000Y-100550000D02*
X157450000Y-100550000D01*
X157450000Y-100550000D02*
X157500000Y-100500000D01*
X170000000Y-109500000D02*
X170750000Y-109500000D01*
X164400000Y-111600000D02*
X166500000Y-109500000D01*
X164400000Y-114250000D02*
X164400000Y-111600000D01*
D28*
X157000000Y-109000000D02*
X155500000Y-109000000D01*
X155500000Y-109000000D02*
X155000000Y-109500000D01*
X155000000Y-109500000D02*
X155000000Y-111000000D01*
D29*
X174000000Y-113500000D02*
X171740637Y-115759363D01*
X171740637Y-115759363D02*
X154324517Y-115759363D01*
X154324517Y-115759363D02*
X153528014Y-114962860D01*
X153528014Y-114962860D02*
X153528014Y-110342292D01*
X153528014Y-110342292D02*
X153500939Y-110315217D01*
X152190000Y-100550000D02*
X153324367Y-100550000D01*
X153324367Y-100550000D02*
X153336735Y-100537632D01*
X153336735Y-100537632D02*
X153500000Y-100700897D01*
X153500000Y-100700897D02*
X153500000Y-102350000D01*
X153500000Y-102350000D02*
X153400000Y-102450000D01*
X153400000Y-102450000D02*
X152190000Y-102450000D01*
X152190000Y-105058920D02*
X153441080Y-105058920D01*
X152190000Y-102450000D02*
X152190000Y-105058920D01*
X152190000Y-105058920D02*
X151148840Y-106100080D01*
D28*
X152000000Y-106699520D02*
X151748280Y-106699520D01*
X151748280Y-106699520D02*
X151148840Y-106100080D01*
X163600000Y-105750000D02*
X163600000Y-107400000D01*
X163600000Y-107400000D02*
X163500000Y-107500000D01*
X153547700Y-107500000D02*
X154500000Y-107500000D01*
X153400000Y-107352300D02*
X153547700Y-107500000D01*
X152000000Y-107352300D02*
X153400000Y-107352300D01*
X162500000Y-108500000D02*
X162800000Y-108200000D01*
X162800000Y-108200000D02*
X162800000Y-105750000D01*
X154075736Y-108500000D02*
X154500000Y-108500000D01*
X153713299Y-108500000D02*
X154075736Y-108500000D01*
X153213299Y-108000000D02*
X153713299Y-108500000D01*
X152000000Y-108000000D02*
X153213299Y-108000000D01*
X166679155Y-104251795D02*
X167103419Y-104251795D01*
X166031068Y-104251795D02*
X166679155Y-104251795D01*
X165200000Y-105082863D02*
X166031068Y-104251795D01*
X165200000Y-105750000D02*
X165200000Y-105082863D01*
X184807481Y-113134887D02*
X184896781Y-113224187D01*
X184807481Y-105289494D02*
X184807481Y-113134887D01*
X171800000Y-103500000D02*
X172500000Y-103500000D01*
X171500000Y-102450000D02*
X171500000Y-103200000D01*
X171500000Y-103200000D02*
X171800000Y-103500000D01*
X185107613Y-103319613D02*
X182234254Y-103319613D01*
X188468000Y-106680000D02*
X185107613Y-103319613D01*
X182234254Y-103319613D02*
X181809990Y-103319613D01*
X164400000Y-105750000D02*
X164400000Y-104827307D01*
X164400000Y-104827307D02*
X166355523Y-102871784D01*
X166355523Y-102871784D02*
X167145725Y-102871784D01*
X167145725Y-102871784D02*
X167569989Y-102871784D01*
X187618001Y-107529999D02*
X188468000Y-106680000D01*
X185658718Y-114862486D02*
X185658718Y-109489282D01*
X184331202Y-116190002D02*
X185658718Y-114862486D01*
X181750000Y-115035000D02*
X182905002Y-116190002D01*
X182905002Y-116190002D02*
X184331202Y-116190002D01*
X181750000Y-113885000D02*
X181750000Y-115035000D01*
X185658718Y-109489282D02*
X187618001Y-107529999D01*
X173800000Y-103500000D02*
X174500000Y-103500000D01*
X173500000Y-102450000D02*
X173500000Y-103200000D01*
X173500000Y-103200000D02*
X173800000Y-103500000D01*
X169883336Y-104000000D02*
X170626047Y-104742711D01*
X170626047Y-104742711D02*
X173890140Y-104742711D01*
X173890140Y-104742711D02*
X176572429Y-107425000D01*
X176572429Y-107425000D02*
X177250000Y-107425000D01*
X183966291Y-114510659D02*
X183966291Y-114934923D01*
X183966291Y-110609289D02*
X183966291Y-114510659D01*
X177250000Y-107425000D02*
X180782002Y-107425000D01*
X180782002Y-107425000D02*
X183966291Y-110609289D01*
X169500000Y-103616664D02*
X169883336Y-104000000D01*
X169500000Y-104000000D02*
X169883336Y-104000000D01*
X165250000Y-107500000D02*
X165000000Y-107500000D01*
X166000000Y-105750000D02*
X166000000Y-106750000D01*
X166000000Y-106750000D02*
X165250000Y-107500000D01*
X169500000Y-102450000D02*
X169500000Y-103616664D01*
X159750000Y-111200000D02*
X157100000Y-111200000D01*
X157100000Y-111200000D02*
X156900000Y-111000000D01*
X162531935Y-102131209D02*
X162107671Y-102131209D01*
X164408791Y-102131209D02*
X162531935Y-102131209D01*
X166040000Y-100500000D02*
X164408791Y-102131209D01*
X162000000Y-104547075D02*
X162086495Y-104460580D01*
X162000000Y-105750000D02*
X162000000Y-104547075D01*
X160960000Y-102096117D02*
X160988761Y-102124878D01*
X160960000Y-100500000D02*
X160960000Y-102096117D01*
X160148882Y-105340130D02*
X160148882Y-104915866D01*
X160500000Y-105750000D02*
X160148882Y-105398882D01*
X161200000Y-105750000D02*
X160500000Y-105750000D01*
X160148882Y-105398882D02*
X160148882Y-105340130D01*
X161200000Y-100740000D02*
X160960000Y-100500000D01*
M02*
