G04 #@! TF.GenerationSoftware,KiCad,Pcbnew,5.1.5+dfsg1-2build2*
G04 #@! TF.CreationDate,2021-03-26T23:39:21+01:00*
G04 #@! TF.ProjectId,USB-I2C,5553422d-4932-4432-9e6b-696361645f70,rev?*
G04 #@! TF.SameCoordinates,Original*
G04 #@! TF.FileFunction,Copper,L1,Top*
G04 #@! TF.FilePolarity,Positive*
%FSLAX46Y46*%
G04 Gerber Fmt 4.6, Leading zero omitted, Abs format (unit mm)*
G04 Created by KiCad (PCBNEW 5.1.5+dfsg1-2build2) date 2021-03-26 23:39:21*
%MOMM*%
%LPD*%
G04 APERTURE LIST*
%ADD10O,1.727200X1.727200*%
%ADD11R,1.727200X1.727200*%
%ADD12C,0.100000*%
%ADD13C,0.797560*%
%ADD14R,2.000000X0.398780*%
%ADD15R,1.897380X1.897380*%
%ADD16R,3.000000X1.500000*%
%ADD17C,1.524000*%
%ADD18O,1.700000X1.700000*%
%ADD19R,1.700000X1.700000*%
%ADD20R,1.060000X0.650000*%
%ADD21C,0.900000*%
%ADD22C,0.600000*%
%ADD23C,0.400000*%
%ADD24C,0.600000*%
G04 APERTURE END LIST*
D10*
X181540000Y-110540000D03*
X179000000Y-110540000D03*
X181540000Y-108000000D03*
X179000000Y-108000000D03*
X181540000Y-105460000D03*
D11*
X179000000Y-105460000D03*
G04 #@! TA.AperFunction,SMDPad,CuDef*
D12*
G36*
X161864703Y-112510722D02*
G01*
X161879264Y-112512882D01*
X161893543Y-112516459D01*
X161907403Y-112521418D01*
X161920710Y-112527712D01*
X161933336Y-112535280D01*
X161945159Y-112544048D01*
X161956066Y-112553934D01*
X161965952Y-112564841D01*
X161974720Y-112576664D01*
X161982288Y-112589290D01*
X161988582Y-112602597D01*
X161993541Y-112616457D01*
X161997118Y-112630736D01*
X161999278Y-112645297D01*
X162000000Y-112660000D01*
X162000000Y-112960000D01*
X161999278Y-112974703D01*
X161997118Y-112989264D01*
X161993541Y-113003543D01*
X161988582Y-113017403D01*
X161982288Y-113030710D01*
X161974720Y-113043336D01*
X161965952Y-113055159D01*
X161956066Y-113066066D01*
X161945159Y-113075952D01*
X161933336Y-113084720D01*
X161920710Y-113092288D01*
X161907403Y-113098582D01*
X161893543Y-113103541D01*
X161879264Y-113107118D01*
X161864703Y-113109278D01*
X161850000Y-113110000D01*
X160200000Y-113110000D01*
X160185297Y-113109278D01*
X160170736Y-113107118D01*
X160156457Y-113103541D01*
X160142597Y-113098582D01*
X160129290Y-113092288D01*
X160116664Y-113084720D01*
X160104841Y-113075952D01*
X160093934Y-113066066D01*
X160084048Y-113055159D01*
X160075280Y-113043336D01*
X160067712Y-113030710D01*
X160061418Y-113017403D01*
X160056459Y-113003543D01*
X160052882Y-112989264D01*
X160050722Y-112974703D01*
X160050000Y-112960000D01*
X160050000Y-112660000D01*
X160050722Y-112645297D01*
X160052882Y-112630736D01*
X160056459Y-112616457D01*
X160061418Y-112602597D01*
X160067712Y-112589290D01*
X160075280Y-112576664D01*
X160084048Y-112564841D01*
X160093934Y-112553934D01*
X160104841Y-112544048D01*
X160116664Y-112535280D01*
X160129290Y-112527712D01*
X160142597Y-112521418D01*
X160156457Y-112516459D01*
X160170736Y-112512882D01*
X160185297Y-112510722D01*
X160200000Y-112510000D01*
X161850000Y-112510000D01*
X161864703Y-112510722D01*
G37*
G04 #@! TD.AperFunction*
G04 #@! TA.AperFunction,SMDPad,CuDef*
G36*
X161864703Y-111240722D02*
G01*
X161879264Y-111242882D01*
X161893543Y-111246459D01*
X161907403Y-111251418D01*
X161920710Y-111257712D01*
X161933336Y-111265280D01*
X161945159Y-111274048D01*
X161956066Y-111283934D01*
X161965952Y-111294841D01*
X161974720Y-111306664D01*
X161982288Y-111319290D01*
X161988582Y-111332597D01*
X161993541Y-111346457D01*
X161997118Y-111360736D01*
X161999278Y-111375297D01*
X162000000Y-111390000D01*
X162000000Y-111690000D01*
X161999278Y-111704703D01*
X161997118Y-111719264D01*
X161993541Y-111733543D01*
X161988582Y-111747403D01*
X161982288Y-111760710D01*
X161974720Y-111773336D01*
X161965952Y-111785159D01*
X161956066Y-111796066D01*
X161945159Y-111805952D01*
X161933336Y-111814720D01*
X161920710Y-111822288D01*
X161907403Y-111828582D01*
X161893543Y-111833541D01*
X161879264Y-111837118D01*
X161864703Y-111839278D01*
X161850000Y-111840000D01*
X160200000Y-111840000D01*
X160185297Y-111839278D01*
X160170736Y-111837118D01*
X160156457Y-111833541D01*
X160142597Y-111828582D01*
X160129290Y-111822288D01*
X160116664Y-111814720D01*
X160104841Y-111805952D01*
X160093934Y-111796066D01*
X160084048Y-111785159D01*
X160075280Y-111773336D01*
X160067712Y-111760710D01*
X160061418Y-111747403D01*
X160056459Y-111733543D01*
X160052882Y-111719264D01*
X160050722Y-111704703D01*
X160050000Y-111690000D01*
X160050000Y-111390000D01*
X160050722Y-111375297D01*
X160052882Y-111360736D01*
X160056459Y-111346457D01*
X160061418Y-111332597D01*
X160067712Y-111319290D01*
X160075280Y-111306664D01*
X160084048Y-111294841D01*
X160093934Y-111283934D01*
X160104841Y-111274048D01*
X160116664Y-111265280D01*
X160129290Y-111257712D01*
X160142597Y-111251418D01*
X160156457Y-111246459D01*
X160170736Y-111242882D01*
X160185297Y-111240722D01*
X160200000Y-111240000D01*
X161850000Y-111240000D01*
X161864703Y-111240722D01*
G37*
G04 #@! TD.AperFunction*
G04 #@! TA.AperFunction,SMDPad,CuDef*
G36*
X161864703Y-109970722D02*
G01*
X161879264Y-109972882D01*
X161893543Y-109976459D01*
X161907403Y-109981418D01*
X161920710Y-109987712D01*
X161933336Y-109995280D01*
X161945159Y-110004048D01*
X161956066Y-110013934D01*
X161965952Y-110024841D01*
X161974720Y-110036664D01*
X161982288Y-110049290D01*
X161988582Y-110062597D01*
X161993541Y-110076457D01*
X161997118Y-110090736D01*
X161999278Y-110105297D01*
X162000000Y-110120000D01*
X162000000Y-110420000D01*
X161999278Y-110434703D01*
X161997118Y-110449264D01*
X161993541Y-110463543D01*
X161988582Y-110477403D01*
X161982288Y-110490710D01*
X161974720Y-110503336D01*
X161965952Y-110515159D01*
X161956066Y-110526066D01*
X161945159Y-110535952D01*
X161933336Y-110544720D01*
X161920710Y-110552288D01*
X161907403Y-110558582D01*
X161893543Y-110563541D01*
X161879264Y-110567118D01*
X161864703Y-110569278D01*
X161850000Y-110570000D01*
X160200000Y-110570000D01*
X160185297Y-110569278D01*
X160170736Y-110567118D01*
X160156457Y-110563541D01*
X160142597Y-110558582D01*
X160129290Y-110552288D01*
X160116664Y-110544720D01*
X160104841Y-110535952D01*
X160093934Y-110526066D01*
X160084048Y-110515159D01*
X160075280Y-110503336D01*
X160067712Y-110490710D01*
X160061418Y-110477403D01*
X160056459Y-110463543D01*
X160052882Y-110449264D01*
X160050722Y-110434703D01*
X160050000Y-110420000D01*
X160050000Y-110120000D01*
X160050722Y-110105297D01*
X160052882Y-110090736D01*
X160056459Y-110076457D01*
X160061418Y-110062597D01*
X160067712Y-110049290D01*
X160075280Y-110036664D01*
X160084048Y-110024841D01*
X160093934Y-110013934D01*
X160104841Y-110004048D01*
X160116664Y-109995280D01*
X160129290Y-109987712D01*
X160142597Y-109981418D01*
X160156457Y-109976459D01*
X160170736Y-109972882D01*
X160185297Y-109970722D01*
X160200000Y-109970000D01*
X161850000Y-109970000D01*
X161864703Y-109970722D01*
G37*
G04 #@! TD.AperFunction*
G04 #@! TA.AperFunction,SMDPad,CuDef*
G36*
X161864703Y-108700722D02*
G01*
X161879264Y-108702882D01*
X161893543Y-108706459D01*
X161907403Y-108711418D01*
X161920710Y-108717712D01*
X161933336Y-108725280D01*
X161945159Y-108734048D01*
X161956066Y-108743934D01*
X161965952Y-108754841D01*
X161974720Y-108766664D01*
X161982288Y-108779290D01*
X161988582Y-108792597D01*
X161993541Y-108806457D01*
X161997118Y-108820736D01*
X161999278Y-108835297D01*
X162000000Y-108850000D01*
X162000000Y-109150000D01*
X161999278Y-109164703D01*
X161997118Y-109179264D01*
X161993541Y-109193543D01*
X161988582Y-109207403D01*
X161982288Y-109220710D01*
X161974720Y-109233336D01*
X161965952Y-109245159D01*
X161956066Y-109256066D01*
X161945159Y-109265952D01*
X161933336Y-109274720D01*
X161920710Y-109282288D01*
X161907403Y-109288582D01*
X161893543Y-109293541D01*
X161879264Y-109297118D01*
X161864703Y-109299278D01*
X161850000Y-109300000D01*
X160200000Y-109300000D01*
X160185297Y-109299278D01*
X160170736Y-109297118D01*
X160156457Y-109293541D01*
X160142597Y-109288582D01*
X160129290Y-109282288D01*
X160116664Y-109274720D01*
X160104841Y-109265952D01*
X160093934Y-109256066D01*
X160084048Y-109245159D01*
X160075280Y-109233336D01*
X160067712Y-109220710D01*
X160061418Y-109207403D01*
X160056459Y-109193543D01*
X160052882Y-109179264D01*
X160050722Y-109164703D01*
X160050000Y-109150000D01*
X160050000Y-108850000D01*
X160050722Y-108835297D01*
X160052882Y-108820736D01*
X160056459Y-108806457D01*
X160061418Y-108792597D01*
X160067712Y-108779290D01*
X160075280Y-108766664D01*
X160084048Y-108754841D01*
X160093934Y-108743934D01*
X160104841Y-108734048D01*
X160116664Y-108725280D01*
X160129290Y-108717712D01*
X160142597Y-108711418D01*
X160156457Y-108706459D01*
X160170736Y-108702882D01*
X160185297Y-108700722D01*
X160200000Y-108700000D01*
X161850000Y-108700000D01*
X161864703Y-108700722D01*
G37*
G04 #@! TD.AperFunction*
G04 #@! TA.AperFunction,SMDPad,CuDef*
G36*
X161864703Y-107430722D02*
G01*
X161879264Y-107432882D01*
X161893543Y-107436459D01*
X161907403Y-107441418D01*
X161920710Y-107447712D01*
X161933336Y-107455280D01*
X161945159Y-107464048D01*
X161956066Y-107473934D01*
X161965952Y-107484841D01*
X161974720Y-107496664D01*
X161982288Y-107509290D01*
X161988582Y-107522597D01*
X161993541Y-107536457D01*
X161997118Y-107550736D01*
X161999278Y-107565297D01*
X162000000Y-107580000D01*
X162000000Y-107880000D01*
X161999278Y-107894703D01*
X161997118Y-107909264D01*
X161993541Y-107923543D01*
X161988582Y-107937403D01*
X161982288Y-107950710D01*
X161974720Y-107963336D01*
X161965952Y-107975159D01*
X161956066Y-107986066D01*
X161945159Y-107995952D01*
X161933336Y-108004720D01*
X161920710Y-108012288D01*
X161907403Y-108018582D01*
X161893543Y-108023541D01*
X161879264Y-108027118D01*
X161864703Y-108029278D01*
X161850000Y-108030000D01*
X160200000Y-108030000D01*
X160185297Y-108029278D01*
X160170736Y-108027118D01*
X160156457Y-108023541D01*
X160142597Y-108018582D01*
X160129290Y-108012288D01*
X160116664Y-108004720D01*
X160104841Y-107995952D01*
X160093934Y-107986066D01*
X160084048Y-107975159D01*
X160075280Y-107963336D01*
X160067712Y-107950710D01*
X160061418Y-107937403D01*
X160056459Y-107923543D01*
X160052882Y-107909264D01*
X160050722Y-107894703D01*
X160050000Y-107880000D01*
X160050000Y-107580000D01*
X160050722Y-107565297D01*
X160052882Y-107550736D01*
X160056459Y-107536457D01*
X160061418Y-107522597D01*
X160067712Y-107509290D01*
X160075280Y-107496664D01*
X160084048Y-107484841D01*
X160093934Y-107473934D01*
X160104841Y-107464048D01*
X160116664Y-107455280D01*
X160129290Y-107447712D01*
X160142597Y-107441418D01*
X160156457Y-107436459D01*
X160170736Y-107432882D01*
X160185297Y-107430722D01*
X160200000Y-107430000D01*
X161850000Y-107430000D01*
X161864703Y-107430722D01*
G37*
G04 #@! TD.AperFunction*
G04 #@! TA.AperFunction,SMDPad,CuDef*
G36*
X161864703Y-106160722D02*
G01*
X161879264Y-106162882D01*
X161893543Y-106166459D01*
X161907403Y-106171418D01*
X161920710Y-106177712D01*
X161933336Y-106185280D01*
X161945159Y-106194048D01*
X161956066Y-106203934D01*
X161965952Y-106214841D01*
X161974720Y-106226664D01*
X161982288Y-106239290D01*
X161988582Y-106252597D01*
X161993541Y-106266457D01*
X161997118Y-106280736D01*
X161999278Y-106295297D01*
X162000000Y-106310000D01*
X162000000Y-106610000D01*
X161999278Y-106624703D01*
X161997118Y-106639264D01*
X161993541Y-106653543D01*
X161988582Y-106667403D01*
X161982288Y-106680710D01*
X161974720Y-106693336D01*
X161965952Y-106705159D01*
X161956066Y-106716066D01*
X161945159Y-106725952D01*
X161933336Y-106734720D01*
X161920710Y-106742288D01*
X161907403Y-106748582D01*
X161893543Y-106753541D01*
X161879264Y-106757118D01*
X161864703Y-106759278D01*
X161850000Y-106760000D01*
X160200000Y-106760000D01*
X160185297Y-106759278D01*
X160170736Y-106757118D01*
X160156457Y-106753541D01*
X160142597Y-106748582D01*
X160129290Y-106742288D01*
X160116664Y-106734720D01*
X160104841Y-106725952D01*
X160093934Y-106716066D01*
X160084048Y-106705159D01*
X160075280Y-106693336D01*
X160067712Y-106680710D01*
X160061418Y-106667403D01*
X160056459Y-106653543D01*
X160052882Y-106639264D01*
X160050722Y-106624703D01*
X160050000Y-106610000D01*
X160050000Y-106310000D01*
X160050722Y-106295297D01*
X160052882Y-106280736D01*
X160056459Y-106266457D01*
X160061418Y-106252597D01*
X160067712Y-106239290D01*
X160075280Y-106226664D01*
X160084048Y-106214841D01*
X160093934Y-106203934D01*
X160104841Y-106194048D01*
X160116664Y-106185280D01*
X160129290Y-106177712D01*
X160142597Y-106171418D01*
X160156457Y-106166459D01*
X160170736Y-106162882D01*
X160185297Y-106160722D01*
X160200000Y-106160000D01*
X161850000Y-106160000D01*
X161864703Y-106160722D01*
G37*
G04 #@! TD.AperFunction*
G04 #@! TA.AperFunction,SMDPad,CuDef*
G36*
X161864703Y-104890722D02*
G01*
X161879264Y-104892882D01*
X161893543Y-104896459D01*
X161907403Y-104901418D01*
X161920710Y-104907712D01*
X161933336Y-104915280D01*
X161945159Y-104924048D01*
X161956066Y-104933934D01*
X161965952Y-104944841D01*
X161974720Y-104956664D01*
X161982288Y-104969290D01*
X161988582Y-104982597D01*
X161993541Y-104996457D01*
X161997118Y-105010736D01*
X161999278Y-105025297D01*
X162000000Y-105040000D01*
X162000000Y-105340000D01*
X161999278Y-105354703D01*
X161997118Y-105369264D01*
X161993541Y-105383543D01*
X161988582Y-105397403D01*
X161982288Y-105410710D01*
X161974720Y-105423336D01*
X161965952Y-105435159D01*
X161956066Y-105446066D01*
X161945159Y-105455952D01*
X161933336Y-105464720D01*
X161920710Y-105472288D01*
X161907403Y-105478582D01*
X161893543Y-105483541D01*
X161879264Y-105487118D01*
X161864703Y-105489278D01*
X161850000Y-105490000D01*
X160200000Y-105490000D01*
X160185297Y-105489278D01*
X160170736Y-105487118D01*
X160156457Y-105483541D01*
X160142597Y-105478582D01*
X160129290Y-105472288D01*
X160116664Y-105464720D01*
X160104841Y-105455952D01*
X160093934Y-105446066D01*
X160084048Y-105435159D01*
X160075280Y-105423336D01*
X160067712Y-105410710D01*
X160061418Y-105397403D01*
X160056459Y-105383543D01*
X160052882Y-105369264D01*
X160050722Y-105354703D01*
X160050000Y-105340000D01*
X160050000Y-105040000D01*
X160050722Y-105025297D01*
X160052882Y-105010736D01*
X160056459Y-104996457D01*
X160061418Y-104982597D01*
X160067712Y-104969290D01*
X160075280Y-104956664D01*
X160084048Y-104944841D01*
X160093934Y-104933934D01*
X160104841Y-104924048D01*
X160116664Y-104915280D01*
X160129290Y-104907712D01*
X160142597Y-104901418D01*
X160156457Y-104896459D01*
X160170736Y-104892882D01*
X160185297Y-104890722D01*
X160200000Y-104890000D01*
X161850000Y-104890000D01*
X161864703Y-104890722D01*
G37*
G04 #@! TD.AperFunction*
G04 #@! TA.AperFunction,SMDPad,CuDef*
G36*
X166814703Y-104890722D02*
G01*
X166829264Y-104892882D01*
X166843543Y-104896459D01*
X166857403Y-104901418D01*
X166870710Y-104907712D01*
X166883336Y-104915280D01*
X166895159Y-104924048D01*
X166906066Y-104933934D01*
X166915952Y-104944841D01*
X166924720Y-104956664D01*
X166932288Y-104969290D01*
X166938582Y-104982597D01*
X166943541Y-104996457D01*
X166947118Y-105010736D01*
X166949278Y-105025297D01*
X166950000Y-105040000D01*
X166950000Y-105340000D01*
X166949278Y-105354703D01*
X166947118Y-105369264D01*
X166943541Y-105383543D01*
X166938582Y-105397403D01*
X166932288Y-105410710D01*
X166924720Y-105423336D01*
X166915952Y-105435159D01*
X166906066Y-105446066D01*
X166895159Y-105455952D01*
X166883336Y-105464720D01*
X166870710Y-105472288D01*
X166857403Y-105478582D01*
X166843543Y-105483541D01*
X166829264Y-105487118D01*
X166814703Y-105489278D01*
X166800000Y-105490000D01*
X165150000Y-105490000D01*
X165135297Y-105489278D01*
X165120736Y-105487118D01*
X165106457Y-105483541D01*
X165092597Y-105478582D01*
X165079290Y-105472288D01*
X165066664Y-105464720D01*
X165054841Y-105455952D01*
X165043934Y-105446066D01*
X165034048Y-105435159D01*
X165025280Y-105423336D01*
X165017712Y-105410710D01*
X165011418Y-105397403D01*
X165006459Y-105383543D01*
X165002882Y-105369264D01*
X165000722Y-105354703D01*
X165000000Y-105340000D01*
X165000000Y-105040000D01*
X165000722Y-105025297D01*
X165002882Y-105010736D01*
X165006459Y-104996457D01*
X165011418Y-104982597D01*
X165017712Y-104969290D01*
X165025280Y-104956664D01*
X165034048Y-104944841D01*
X165043934Y-104933934D01*
X165054841Y-104924048D01*
X165066664Y-104915280D01*
X165079290Y-104907712D01*
X165092597Y-104901418D01*
X165106457Y-104896459D01*
X165120736Y-104892882D01*
X165135297Y-104890722D01*
X165150000Y-104890000D01*
X166800000Y-104890000D01*
X166814703Y-104890722D01*
G37*
G04 #@! TD.AperFunction*
G04 #@! TA.AperFunction,SMDPad,CuDef*
G36*
X166814703Y-106160722D02*
G01*
X166829264Y-106162882D01*
X166843543Y-106166459D01*
X166857403Y-106171418D01*
X166870710Y-106177712D01*
X166883336Y-106185280D01*
X166895159Y-106194048D01*
X166906066Y-106203934D01*
X166915952Y-106214841D01*
X166924720Y-106226664D01*
X166932288Y-106239290D01*
X166938582Y-106252597D01*
X166943541Y-106266457D01*
X166947118Y-106280736D01*
X166949278Y-106295297D01*
X166950000Y-106310000D01*
X166950000Y-106610000D01*
X166949278Y-106624703D01*
X166947118Y-106639264D01*
X166943541Y-106653543D01*
X166938582Y-106667403D01*
X166932288Y-106680710D01*
X166924720Y-106693336D01*
X166915952Y-106705159D01*
X166906066Y-106716066D01*
X166895159Y-106725952D01*
X166883336Y-106734720D01*
X166870710Y-106742288D01*
X166857403Y-106748582D01*
X166843543Y-106753541D01*
X166829264Y-106757118D01*
X166814703Y-106759278D01*
X166800000Y-106760000D01*
X165150000Y-106760000D01*
X165135297Y-106759278D01*
X165120736Y-106757118D01*
X165106457Y-106753541D01*
X165092597Y-106748582D01*
X165079290Y-106742288D01*
X165066664Y-106734720D01*
X165054841Y-106725952D01*
X165043934Y-106716066D01*
X165034048Y-106705159D01*
X165025280Y-106693336D01*
X165017712Y-106680710D01*
X165011418Y-106667403D01*
X165006459Y-106653543D01*
X165002882Y-106639264D01*
X165000722Y-106624703D01*
X165000000Y-106610000D01*
X165000000Y-106310000D01*
X165000722Y-106295297D01*
X165002882Y-106280736D01*
X165006459Y-106266457D01*
X165011418Y-106252597D01*
X165017712Y-106239290D01*
X165025280Y-106226664D01*
X165034048Y-106214841D01*
X165043934Y-106203934D01*
X165054841Y-106194048D01*
X165066664Y-106185280D01*
X165079290Y-106177712D01*
X165092597Y-106171418D01*
X165106457Y-106166459D01*
X165120736Y-106162882D01*
X165135297Y-106160722D01*
X165150000Y-106160000D01*
X166800000Y-106160000D01*
X166814703Y-106160722D01*
G37*
G04 #@! TD.AperFunction*
G04 #@! TA.AperFunction,SMDPad,CuDef*
G36*
X166814703Y-107430722D02*
G01*
X166829264Y-107432882D01*
X166843543Y-107436459D01*
X166857403Y-107441418D01*
X166870710Y-107447712D01*
X166883336Y-107455280D01*
X166895159Y-107464048D01*
X166906066Y-107473934D01*
X166915952Y-107484841D01*
X166924720Y-107496664D01*
X166932288Y-107509290D01*
X166938582Y-107522597D01*
X166943541Y-107536457D01*
X166947118Y-107550736D01*
X166949278Y-107565297D01*
X166950000Y-107580000D01*
X166950000Y-107880000D01*
X166949278Y-107894703D01*
X166947118Y-107909264D01*
X166943541Y-107923543D01*
X166938582Y-107937403D01*
X166932288Y-107950710D01*
X166924720Y-107963336D01*
X166915952Y-107975159D01*
X166906066Y-107986066D01*
X166895159Y-107995952D01*
X166883336Y-108004720D01*
X166870710Y-108012288D01*
X166857403Y-108018582D01*
X166843543Y-108023541D01*
X166829264Y-108027118D01*
X166814703Y-108029278D01*
X166800000Y-108030000D01*
X165150000Y-108030000D01*
X165135297Y-108029278D01*
X165120736Y-108027118D01*
X165106457Y-108023541D01*
X165092597Y-108018582D01*
X165079290Y-108012288D01*
X165066664Y-108004720D01*
X165054841Y-107995952D01*
X165043934Y-107986066D01*
X165034048Y-107975159D01*
X165025280Y-107963336D01*
X165017712Y-107950710D01*
X165011418Y-107937403D01*
X165006459Y-107923543D01*
X165002882Y-107909264D01*
X165000722Y-107894703D01*
X165000000Y-107880000D01*
X165000000Y-107580000D01*
X165000722Y-107565297D01*
X165002882Y-107550736D01*
X165006459Y-107536457D01*
X165011418Y-107522597D01*
X165017712Y-107509290D01*
X165025280Y-107496664D01*
X165034048Y-107484841D01*
X165043934Y-107473934D01*
X165054841Y-107464048D01*
X165066664Y-107455280D01*
X165079290Y-107447712D01*
X165092597Y-107441418D01*
X165106457Y-107436459D01*
X165120736Y-107432882D01*
X165135297Y-107430722D01*
X165150000Y-107430000D01*
X166800000Y-107430000D01*
X166814703Y-107430722D01*
G37*
G04 #@! TD.AperFunction*
G04 #@! TA.AperFunction,SMDPad,CuDef*
G36*
X166814703Y-108700722D02*
G01*
X166829264Y-108702882D01*
X166843543Y-108706459D01*
X166857403Y-108711418D01*
X166870710Y-108717712D01*
X166883336Y-108725280D01*
X166895159Y-108734048D01*
X166906066Y-108743934D01*
X166915952Y-108754841D01*
X166924720Y-108766664D01*
X166932288Y-108779290D01*
X166938582Y-108792597D01*
X166943541Y-108806457D01*
X166947118Y-108820736D01*
X166949278Y-108835297D01*
X166950000Y-108850000D01*
X166950000Y-109150000D01*
X166949278Y-109164703D01*
X166947118Y-109179264D01*
X166943541Y-109193543D01*
X166938582Y-109207403D01*
X166932288Y-109220710D01*
X166924720Y-109233336D01*
X166915952Y-109245159D01*
X166906066Y-109256066D01*
X166895159Y-109265952D01*
X166883336Y-109274720D01*
X166870710Y-109282288D01*
X166857403Y-109288582D01*
X166843543Y-109293541D01*
X166829264Y-109297118D01*
X166814703Y-109299278D01*
X166800000Y-109300000D01*
X165150000Y-109300000D01*
X165135297Y-109299278D01*
X165120736Y-109297118D01*
X165106457Y-109293541D01*
X165092597Y-109288582D01*
X165079290Y-109282288D01*
X165066664Y-109274720D01*
X165054841Y-109265952D01*
X165043934Y-109256066D01*
X165034048Y-109245159D01*
X165025280Y-109233336D01*
X165017712Y-109220710D01*
X165011418Y-109207403D01*
X165006459Y-109193543D01*
X165002882Y-109179264D01*
X165000722Y-109164703D01*
X165000000Y-109150000D01*
X165000000Y-108850000D01*
X165000722Y-108835297D01*
X165002882Y-108820736D01*
X165006459Y-108806457D01*
X165011418Y-108792597D01*
X165017712Y-108779290D01*
X165025280Y-108766664D01*
X165034048Y-108754841D01*
X165043934Y-108743934D01*
X165054841Y-108734048D01*
X165066664Y-108725280D01*
X165079290Y-108717712D01*
X165092597Y-108711418D01*
X165106457Y-108706459D01*
X165120736Y-108702882D01*
X165135297Y-108700722D01*
X165150000Y-108700000D01*
X166800000Y-108700000D01*
X166814703Y-108700722D01*
G37*
G04 #@! TD.AperFunction*
G04 #@! TA.AperFunction,SMDPad,CuDef*
G36*
X166814703Y-109970722D02*
G01*
X166829264Y-109972882D01*
X166843543Y-109976459D01*
X166857403Y-109981418D01*
X166870710Y-109987712D01*
X166883336Y-109995280D01*
X166895159Y-110004048D01*
X166906066Y-110013934D01*
X166915952Y-110024841D01*
X166924720Y-110036664D01*
X166932288Y-110049290D01*
X166938582Y-110062597D01*
X166943541Y-110076457D01*
X166947118Y-110090736D01*
X166949278Y-110105297D01*
X166950000Y-110120000D01*
X166950000Y-110420000D01*
X166949278Y-110434703D01*
X166947118Y-110449264D01*
X166943541Y-110463543D01*
X166938582Y-110477403D01*
X166932288Y-110490710D01*
X166924720Y-110503336D01*
X166915952Y-110515159D01*
X166906066Y-110526066D01*
X166895159Y-110535952D01*
X166883336Y-110544720D01*
X166870710Y-110552288D01*
X166857403Y-110558582D01*
X166843543Y-110563541D01*
X166829264Y-110567118D01*
X166814703Y-110569278D01*
X166800000Y-110570000D01*
X165150000Y-110570000D01*
X165135297Y-110569278D01*
X165120736Y-110567118D01*
X165106457Y-110563541D01*
X165092597Y-110558582D01*
X165079290Y-110552288D01*
X165066664Y-110544720D01*
X165054841Y-110535952D01*
X165043934Y-110526066D01*
X165034048Y-110515159D01*
X165025280Y-110503336D01*
X165017712Y-110490710D01*
X165011418Y-110477403D01*
X165006459Y-110463543D01*
X165002882Y-110449264D01*
X165000722Y-110434703D01*
X165000000Y-110420000D01*
X165000000Y-110120000D01*
X165000722Y-110105297D01*
X165002882Y-110090736D01*
X165006459Y-110076457D01*
X165011418Y-110062597D01*
X165017712Y-110049290D01*
X165025280Y-110036664D01*
X165034048Y-110024841D01*
X165043934Y-110013934D01*
X165054841Y-110004048D01*
X165066664Y-109995280D01*
X165079290Y-109987712D01*
X165092597Y-109981418D01*
X165106457Y-109976459D01*
X165120736Y-109972882D01*
X165135297Y-109970722D01*
X165150000Y-109970000D01*
X166800000Y-109970000D01*
X166814703Y-109970722D01*
G37*
G04 #@! TD.AperFunction*
G04 #@! TA.AperFunction,SMDPad,CuDef*
G36*
X166814703Y-111240722D02*
G01*
X166829264Y-111242882D01*
X166843543Y-111246459D01*
X166857403Y-111251418D01*
X166870710Y-111257712D01*
X166883336Y-111265280D01*
X166895159Y-111274048D01*
X166906066Y-111283934D01*
X166915952Y-111294841D01*
X166924720Y-111306664D01*
X166932288Y-111319290D01*
X166938582Y-111332597D01*
X166943541Y-111346457D01*
X166947118Y-111360736D01*
X166949278Y-111375297D01*
X166950000Y-111390000D01*
X166950000Y-111690000D01*
X166949278Y-111704703D01*
X166947118Y-111719264D01*
X166943541Y-111733543D01*
X166938582Y-111747403D01*
X166932288Y-111760710D01*
X166924720Y-111773336D01*
X166915952Y-111785159D01*
X166906066Y-111796066D01*
X166895159Y-111805952D01*
X166883336Y-111814720D01*
X166870710Y-111822288D01*
X166857403Y-111828582D01*
X166843543Y-111833541D01*
X166829264Y-111837118D01*
X166814703Y-111839278D01*
X166800000Y-111840000D01*
X165150000Y-111840000D01*
X165135297Y-111839278D01*
X165120736Y-111837118D01*
X165106457Y-111833541D01*
X165092597Y-111828582D01*
X165079290Y-111822288D01*
X165066664Y-111814720D01*
X165054841Y-111805952D01*
X165043934Y-111796066D01*
X165034048Y-111785159D01*
X165025280Y-111773336D01*
X165017712Y-111760710D01*
X165011418Y-111747403D01*
X165006459Y-111733543D01*
X165002882Y-111719264D01*
X165000722Y-111704703D01*
X165000000Y-111690000D01*
X165000000Y-111390000D01*
X165000722Y-111375297D01*
X165002882Y-111360736D01*
X165006459Y-111346457D01*
X165011418Y-111332597D01*
X165017712Y-111319290D01*
X165025280Y-111306664D01*
X165034048Y-111294841D01*
X165043934Y-111283934D01*
X165054841Y-111274048D01*
X165066664Y-111265280D01*
X165079290Y-111257712D01*
X165092597Y-111251418D01*
X165106457Y-111246459D01*
X165120736Y-111242882D01*
X165135297Y-111240722D01*
X165150000Y-111240000D01*
X166800000Y-111240000D01*
X166814703Y-111240722D01*
G37*
G04 #@! TD.AperFunction*
G04 #@! TA.AperFunction,SMDPad,CuDef*
G36*
X166814703Y-112510722D02*
G01*
X166829264Y-112512882D01*
X166843543Y-112516459D01*
X166857403Y-112521418D01*
X166870710Y-112527712D01*
X166883336Y-112535280D01*
X166895159Y-112544048D01*
X166906066Y-112553934D01*
X166915952Y-112564841D01*
X166924720Y-112576664D01*
X166932288Y-112589290D01*
X166938582Y-112602597D01*
X166943541Y-112616457D01*
X166947118Y-112630736D01*
X166949278Y-112645297D01*
X166950000Y-112660000D01*
X166950000Y-112960000D01*
X166949278Y-112974703D01*
X166947118Y-112989264D01*
X166943541Y-113003543D01*
X166938582Y-113017403D01*
X166932288Y-113030710D01*
X166924720Y-113043336D01*
X166915952Y-113055159D01*
X166906066Y-113066066D01*
X166895159Y-113075952D01*
X166883336Y-113084720D01*
X166870710Y-113092288D01*
X166857403Y-113098582D01*
X166843543Y-113103541D01*
X166829264Y-113107118D01*
X166814703Y-113109278D01*
X166800000Y-113110000D01*
X165150000Y-113110000D01*
X165135297Y-113109278D01*
X165120736Y-113107118D01*
X165106457Y-113103541D01*
X165092597Y-113098582D01*
X165079290Y-113092288D01*
X165066664Y-113084720D01*
X165054841Y-113075952D01*
X165043934Y-113066066D01*
X165034048Y-113055159D01*
X165025280Y-113043336D01*
X165017712Y-113030710D01*
X165011418Y-113017403D01*
X165006459Y-113003543D01*
X165002882Y-112989264D01*
X165000722Y-112974703D01*
X165000000Y-112960000D01*
X165000000Y-112660000D01*
X165000722Y-112645297D01*
X165002882Y-112630736D01*
X165006459Y-112616457D01*
X165011418Y-112602597D01*
X165017712Y-112589290D01*
X165025280Y-112576664D01*
X165034048Y-112564841D01*
X165043934Y-112553934D01*
X165054841Y-112544048D01*
X165066664Y-112535280D01*
X165079290Y-112527712D01*
X165092597Y-112521418D01*
X165106457Y-112516459D01*
X165120736Y-112512882D01*
X165135297Y-112510722D01*
X165150000Y-112510000D01*
X166800000Y-112510000D01*
X166814703Y-112510722D01*
G37*
G04 #@! TD.AperFunction*
D13*
X151148840Y-106100080D03*
X151146300Y-109897380D03*
D14*
X152000000Y-109300480D03*
X152000000Y-108647700D03*
X152000000Y-108000000D03*
X152000000Y-107352300D03*
X152000000Y-106699520D03*
D15*
X149000000Y-104050300D03*
X149000000Y-111949700D03*
X149000000Y-109198880D03*
X149000000Y-106801120D03*
D16*
X188250000Y-107425000D03*
X192750000Y-106155000D03*
X188250000Y-104885000D03*
X192750000Y-103615000D03*
X188250000Y-102345000D03*
X192750000Y-101075000D03*
X188250000Y-115155000D03*
X192750000Y-113885000D03*
X188250000Y-112615000D03*
X192750000Y-111345000D03*
D17*
X160960000Y-100500000D03*
X163500000Y-100500000D03*
X166040000Y-100500000D03*
G04 #@! TA.AperFunction,SMDPad,CuDef*
D12*
G36*
X172955142Y-111301174D02*
G01*
X172978803Y-111304684D01*
X173002007Y-111310496D01*
X173024529Y-111318554D01*
X173046153Y-111328782D01*
X173066670Y-111341079D01*
X173085883Y-111355329D01*
X173103607Y-111371393D01*
X173119671Y-111389117D01*
X173133921Y-111408330D01*
X173146218Y-111428847D01*
X173156446Y-111450471D01*
X173164504Y-111472993D01*
X173170316Y-111496197D01*
X173173826Y-111519858D01*
X173175000Y-111543750D01*
X173175000Y-112456250D01*
X173173826Y-112480142D01*
X173170316Y-112503803D01*
X173164504Y-112527007D01*
X173156446Y-112549529D01*
X173146218Y-112571153D01*
X173133921Y-112591670D01*
X173119671Y-112610883D01*
X173103607Y-112628607D01*
X173085883Y-112644671D01*
X173066670Y-112658921D01*
X173046153Y-112671218D01*
X173024529Y-112681446D01*
X173002007Y-112689504D01*
X172978803Y-112695316D01*
X172955142Y-112698826D01*
X172931250Y-112700000D01*
X172443750Y-112700000D01*
X172419858Y-112698826D01*
X172396197Y-112695316D01*
X172372993Y-112689504D01*
X172350471Y-112681446D01*
X172328847Y-112671218D01*
X172308330Y-112658921D01*
X172289117Y-112644671D01*
X172271393Y-112628607D01*
X172255329Y-112610883D01*
X172241079Y-112591670D01*
X172228782Y-112571153D01*
X172218554Y-112549529D01*
X172210496Y-112527007D01*
X172204684Y-112503803D01*
X172201174Y-112480142D01*
X172200000Y-112456250D01*
X172200000Y-111543750D01*
X172201174Y-111519858D01*
X172204684Y-111496197D01*
X172210496Y-111472993D01*
X172218554Y-111450471D01*
X172228782Y-111428847D01*
X172241079Y-111408330D01*
X172255329Y-111389117D01*
X172271393Y-111371393D01*
X172289117Y-111355329D01*
X172308330Y-111341079D01*
X172328847Y-111328782D01*
X172350471Y-111318554D01*
X172372993Y-111310496D01*
X172396197Y-111304684D01*
X172419858Y-111301174D01*
X172443750Y-111300000D01*
X172931250Y-111300000D01*
X172955142Y-111301174D01*
G37*
G04 #@! TD.AperFunction*
G04 #@! TA.AperFunction,SMDPad,CuDef*
G36*
X171080142Y-111301174D02*
G01*
X171103803Y-111304684D01*
X171127007Y-111310496D01*
X171149529Y-111318554D01*
X171171153Y-111328782D01*
X171191670Y-111341079D01*
X171210883Y-111355329D01*
X171228607Y-111371393D01*
X171244671Y-111389117D01*
X171258921Y-111408330D01*
X171271218Y-111428847D01*
X171281446Y-111450471D01*
X171289504Y-111472993D01*
X171295316Y-111496197D01*
X171298826Y-111519858D01*
X171300000Y-111543750D01*
X171300000Y-112456250D01*
X171298826Y-112480142D01*
X171295316Y-112503803D01*
X171289504Y-112527007D01*
X171281446Y-112549529D01*
X171271218Y-112571153D01*
X171258921Y-112591670D01*
X171244671Y-112610883D01*
X171228607Y-112628607D01*
X171210883Y-112644671D01*
X171191670Y-112658921D01*
X171171153Y-112671218D01*
X171149529Y-112681446D01*
X171127007Y-112689504D01*
X171103803Y-112695316D01*
X171080142Y-112698826D01*
X171056250Y-112700000D01*
X170568750Y-112700000D01*
X170544858Y-112698826D01*
X170521197Y-112695316D01*
X170497993Y-112689504D01*
X170475471Y-112681446D01*
X170453847Y-112671218D01*
X170433330Y-112658921D01*
X170414117Y-112644671D01*
X170396393Y-112628607D01*
X170380329Y-112610883D01*
X170366079Y-112591670D01*
X170353782Y-112571153D01*
X170343554Y-112549529D01*
X170335496Y-112527007D01*
X170329684Y-112503803D01*
X170326174Y-112480142D01*
X170325000Y-112456250D01*
X170325000Y-111543750D01*
X170326174Y-111519858D01*
X170329684Y-111496197D01*
X170335496Y-111472993D01*
X170343554Y-111450471D01*
X170353782Y-111428847D01*
X170366079Y-111408330D01*
X170380329Y-111389117D01*
X170396393Y-111371393D01*
X170414117Y-111355329D01*
X170433330Y-111341079D01*
X170453847Y-111328782D01*
X170475471Y-111318554D01*
X170497993Y-111310496D01*
X170521197Y-111304684D01*
X170544858Y-111301174D01*
X170568750Y-111300000D01*
X171056250Y-111300000D01*
X171080142Y-111301174D01*
G37*
G04 #@! TD.AperFunction*
G04 #@! TA.AperFunction,SMDPad,CuDef*
G36*
X157980142Y-101951174D02*
G01*
X158003803Y-101954684D01*
X158027007Y-101960496D01*
X158049529Y-101968554D01*
X158071153Y-101978782D01*
X158091670Y-101991079D01*
X158110883Y-102005329D01*
X158128607Y-102021393D01*
X158144671Y-102039117D01*
X158158921Y-102058330D01*
X158171218Y-102078847D01*
X158181446Y-102100471D01*
X158189504Y-102122993D01*
X158195316Y-102146197D01*
X158198826Y-102169858D01*
X158200000Y-102193750D01*
X158200000Y-102681250D01*
X158198826Y-102705142D01*
X158195316Y-102728803D01*
X158189504Y-102752007D01*
X158181446Y-102774529D01*
X158171218Y-102796153D01*
X158158921Y-102816670D01*
X158144671Y-102835883D01*
X158128607Y-102853607D01*
X158110883Y-102869671D01*
X158091670Y-102883921D01*
X158071153Y-102896218D01*
X158049529Y-102906446D01*
X158027007Y-102914504D01*
X158003803Y-102920316D01*
X157980142Y-102923826D01*
X157956250Y-102925000D01*
X157043750Y-102925000D01*
X157019858Y-102923826D01*
X156996197Y-102920316D01*
X156972993Y-102914504D01*
X156950471Y-102906446D01*
X156928847Y-102896218D01*
X156908330Y-102883921D01*
X156889117Y-102869671D01*
X156871393Y-102853607D01*
X156855329Y-102835883D01*
X156841079Y-102816670D01*
X156828782Y-102796153D01*
X156818554Y-102774529D01*
X156810496Y-102752007D01*
X156804684Y-102728803D01*
X156801174Y-102705142D01*
X156800000Y-102681250D01*
X156800000Y-102193750D01*
X156801174Y-102169858D01*
X156804684Y-102146197D01*
X156810496Y-102122993D01*
X156818554Y-102100471D01*
X156828782Y-102078847D01*
X156841079Y-102058330D01*
X156855329Y-102039117D01*
X156871393Y-102021393D01*
X156889117Y-102005329D01*
X156908330Y-101991079D01*
X156928847Y-101978782D01*
X156950471Y-101968554D01*
X156972993Y-101960496D01*
X156996197Y-101954684D01*
X157019858Y-101951174D01*
X157043750Y-101950000D01*
X157956250Y-101950000D01*
X157980142Y-101951174D01*
G37*
G04 #@! TD.AperFunction*
G04 #@! TA.AperFunction,SMDPad,CuDef*
G36*
X157980142Y-100076174D02*
G01*
X158003803Y-100079684D01*
X158027007Y-100085496D01*
X158049529Y-100093554D01*
X158071153Y-100103782D01*
X158091670Y-100116079D01*
X158110883Y-100130329D01*
X158128607Y-100146393D01*
X158144671Y-100164117D01*
X158158921Y-100183330D01*
X158171218Y-100203847D01*
X158181446Y-100225471D01*
X158189504Y-100247993D01*
X158195316Y-100271197D01*
X158198826Y-100294858D01*
X158200000Y-100318750D01*
X158200000Y-100806250D01*
X158198826Y-100830142D01*
X158195316Y-100853803D01*
X158189504Y-100877007D01*
X158181446Y-100899529D01*
X158171218Y-100921153D01*
X158158921Y-100941670D01*
X158144671Y-100960883D01*
X158128607Y-100978607D01*
X158110883Y-100994671D01*
X158091670Y-101008921D01*
X158071153Y-101021218D01*
X158049529Y-101031446D01*
X158027007Y-101039504D01*
X158003803Y-101045316D01*
X157980142Y-101048826D01*
X157956250Y-101050000D01*
X157043750Y-101050000D01*
X157019858Y-101048826D01*
X156996197Y-101045316D01*
X156972993Y-101039504D01*
X156950471Y-101031446D01*
X156928847Y-101021218D01*
X156908330Y-101008921D01*
X156889117Y-100994671D01*
X156871393Y-100978607D01*
X156855329Y-100960883D01*
X156841079Y-100941670D01*
X156828782Y-100921153D01*
X156818554Y-100899529D01*
X156810496Y-100877007D01*
X156804684Y-100853803D01*
X156801174Y-100830142D01*
X156800000Y-100806250D01*
X156800000Y-100318750D01*
X156801174Y-100294858D01*
X156804684Y-100271197D01*
X156810496Y-100247993D01*
X156818554Y-100225471D01*
X156828782Y-100203847D01*
X156841079Y-100183330D01*
X156855329Y-100164117D01*
X156871393Y-100146393D01*
X156889117Y-100130329D01*
X156908330Y-100116079D01*
X156928847Y-100103782D01*
X156950471Y-100093554D01*
X156972993Y-100085496D01*
X156996197Y-100079684D01*
X157019858Y-100076174D01*
X157043750Y-100075000D01*
X157956250Y-100075000D01*
X157980142Y-100076174D01*
G37*
G04 #@! TD.AperFunction*
G04 #@! TA.AperFunction,SMDPad,CuDef*
G36*
X155330142Y-113551174D02*
G01*
X155353803Y-113554684D01*
X155377007Y-113560496D01*
X155399529Y-113568554D01*
X155421153Y-113578782D01*
X155441670Y-113591079D01*
X155460883Y-113605329D01*
X155478607Y-113621393D01*
X155494671Y-113639117D01*
X155508921Y-113658330D01*
X155521218Y-113678847D01*
X155531446Y-113700471D01*
X155539504Y-113722993D01*
X155545316Y-113746197D01*
X155548826Y-113769858D01*
X155550000Y-113793750D01*
X155550000Y-114706250D01*
X155548826Y-114730142D01*
X155545316Y-114753803D01*
X155539504Y-114777007D01*
X155531446Y-114799529D01*
X155521218Y-114821153D01*
X155508921Y-114841670D01*
X155494671Y-114860883D01*
X155478607Y-114878607D01*
X155460883Y-114894671D01*
X155441670Y-114908921D01*
X155421153Y-114921218D01*
X155399529Y-114931446D01*
X155377007Y-114939504D01*
X155353803Y-114945316D01*
X155330142Y-114948826D01*
X155306250Y-114950000D01*
X154818750Y-114950000D01*
X154794858Y-114948826D01*
X154771197Y-114945316D01*
X154747993Y-114939504D01*
X154725471Y-114931446D01*
X154703847Y-114921218D01*
X154683330Y-114908921D01*
X154664117Y-114894671D01*
X154646393Y-114878607D01*
X154630329Y-114860883D01*
X154616079Y-114841670D01*
X154603782Y-114821153D01*
X154593554Y-114799529D01*
X154585496Y-114777007D01*
X154579684Y-114753803D01*
X154576174Y-114730142D01*
X154575000Y-114706250D01*
X154575000Y-113793750D01*
X154576174Y-113769858D01*
X154579684Y-113746197D01*
X154585496Y-113722993D01*
X154593554Y-113700471D01*
X154603782Y-113678847D01*
X154616079Y-113658330D01*
X154630329Y-113639117D01*
X154646393Y-113621393D01*
X154664117Y-113605329D01*
X154683330Y-113591079D01*
X154703847Y-113578782D01*
X154725471Y-113568554D01*
X154747993Y-113560496D01*
X154771197Y-113554684D01*
X154794858Y-113551174D01*
X154818750Y-113550000D01*
X155306250Y-113550000D01*
X155330142Y-113551174D01*
G37*
G04 #@! TD.AperFunction*
G04 #@! TA.AperFunction,SMDPad,CuDef*
G36*
X157205142Y-113551174D02*
G01*
X157228803Y-113554684D01*
X157252007Y-113560496D01*
X157274529Y-113568554D01*
X157296153Y-113578782D01*
X157316670Y-113591079D01*
X157335883Y-113605329D01*
X157353607Y-113621393D01*
X157369671Y-113639117D01*
X157383921Y-113658330D01*
X157396218Y-113678847D01*
X157406446Y-113700471D01*
X157414504Y-113722993D01*
X157420316Y-113746197D01*
X157423826Y-113769858D01*
X157425000Y-113793750D01*
X157425000Y-114706250D01*
X157423826Y-114730142D01*
X157420316Y-114753803D01*
X157414504Y-114777007D01*
X157406446Y-114799529D01*
X157396218Y-114821153D01*
X157383921Y-114841670D01*
X157369671Y-114860883D01*
X157353607Y-114878607D01*
X157335883Y-114894671D01*
X157316670Y-114908921D01*
X157296153Y-114921218D01*
X157274529Y-114931446D01*
X157252007Y-114939504D01*
X157228803Y-114945316D01*
X157205142Y-114948826D01*
X157181250Y-114950000D01*
X156693750Y-114950000D01*
X156669858Y-114948826D01*
X156646197Y-114945316D01*
X156622993Y-114939504D01*
X156600471Y-114931446D01*
X156578847Y-114921218D01*
X156558330Y-114908921D01*
X156539117Y-114894671D01*
X156521393Y-114878607D01*
X156505329Y-114860883D01*
X156491079Y-114841670D01*
X156478782Y-114821153D01*
X156468554Y-114799529D01*
X156460496Y-114777007D01*
X156454684Y-114753803D01*
X156451174Y-114730142D01*
X156450000Y-114706250D01*
X156450000Y-113793750D01*
X156451174Y-113769858D01*
X156454684Y-113746197D01*
X156460496Y-113722993D01*
X156468554Y-113700471D01*
X156478782Y-113678847D01*
X156491079Y-113658330D01*
X156505329Y-113639117D01*
X156521393Y-113621393D01*
X156539117Y-113605329D01*
X156558330Y-113591079D01*
X156578847Y-113578782D01*
X156600471Y-113568554D01*
X156622993Y-113560496D01*
X156646197Y-113554684D01*
X156669858Y-113551174D01*
X156693750Y-113550000D01*
X157181250Y-113550000D01*
X157205142Y-113551174D01*
G37*
G04 #@! TD.AperFunction*
G04 #@! TA.AperFunction,SMDPad,CuDef*
G36*
X157480142Y-108351174D02*
G01*
X157503803Y-108354684D01*
X157527007Y-108360496D01*
X157549529Y-108368554D01*
X157571153Y-108378782D01*
X157591670Y-108391079D01*
X157610883Y-108405329D01*
X157628607Y-108421393D01*
X157644671Y-108439117D01*
X157658921Y-108458330D01*
X157671218Y-108478847D01*
X157681446Y-108500471D01*
X157689504Y-108522993D01*
X157695316Y-108546197D01*
X157698826Y-108569858D01*
X157700000Y-108593750D01*
X157700000Y-109081250D01*
X157698826Y-109105142D01*
X157695316Y-109128803D01*
X157689504Y-109152007D01*
X157681446Y-109174529D01*
X157671218Y-109196153D01*
X157658921Y-109216670D01*
X157644671Y-109235883D01*
X157628607Y-109253607D01*
X157610883Y-109269671D01*
X157591670Y-109283921D01*
X157571153Y-109296218D01*
X157549529Y-109306446D01*
X157527007Y-109314504D01*
X157503803Y-109320316D01*
X157480142Y-109323826D01*
X157456250Y-109325000D01*
X156543750Y-109325000D01*
X156519858Y-109323826D01*
X156496197Y-109320316D01*
X156472993Y-109314504D01*
X156450471Y-109306446D01*
X156428847Y-109296218D01*
X156408330Y-109283921D01*
X156389117Y-109269671D01*
X156371393Y-109253607D01*
X156355329Y-109235883D01*
X156341079Y-109216670D01*
X156328782Y-109196153D01*
X156318554Y-109174529D01*
X156310496Y-109152007D01*
X156304684Y-109128803D01*
X156301174Y-109105142D01*
X156300000Y-109081250D01*
X156300000Y-108593750D01*
X156301174Y-108569858D01*
X156304684Y-108546197D01*
X156310496Y-108522993D01*
X156318554Y-108500471D01*
X156328782Y-108478847D01*
X156341079Y-108458330D01*
X156355329Y-108439117D01*
X156371393Y-108421393D01*
X156389117Y-108405329D01*
X156408330Y-108391079D01*
X156428847Y-108378782D01*
X156450471Y-108368554D01*
X156472993Y-108360496D01*
X156496197Y-108354684D01*
X156519858Y-108351174D01*
X156543750Y-108350000D01*
X157456250Y-108350000D01*
X157480142Y-108351174D01*
G37*
G04 #@! TD.AperFunction*
G04 #@! TA.AperFunction,SMDPad,CuDef*
G36*
X157480142Y-106476174D02*
G01*
X157503803Y-106479684D01*
X157527007Y-106485496D01*
X157549529Y-106493554D01*
X157571153Y-106503782D01*
X157591670Y-106516079D01*
X157610883Y-106530329D01*
X157628607Y-106546393D01*
X157644671Y-106564117D01*
X157658921Y-106583330D01*
X157671218Y-106603847D01*
X157681446Y-106625471D01*
X157689504Y-106647993D01*
X157695316Y-106671197D01*
X157698826Y-106694858D01*
X157700000Y-106718750D01*
X157700000Y-107206250D01*
X157698826Y-107230142D01*
X157695316Y-107253803D01*
X157689504Y-107277007D01*
X157681446Y-107299529D01*
X157671218Y-107321153D01*
X157658921Y-107341670D01*
X157644671Y-107360883D01*
X157628607Y-107378607D01*
X157610883Y-107394671D01*
X157591670Y-107408921D01*
X157571153Y-107421218D01*
X157549529Y-107431446D01*
X157527007Y-107439504D01*
X157503803Y-107445316D01*
X157480142Y-107448826D01*
X157456250Y-107450000D01*
X156543750Y-107450000D01*
X156519858Y-107448826D01*
X156496197Y-107445316D01*
X156472993Y-107439504D01*
X156450471Y-107431446D01*
X156428847Y-107421218D01*
X156408330Y-107408921D01*
X156389117Y-107394671D01*
X156371393Y-107378607D01*
X156355329Y-107360883D01*
X156341079Y-107341670D01*
X156328782Y-107321153D01*
X156318554Y-107299529D01*
X156310496Y-107277007D01*
X156304684Y-107253803D01*
X156301174Y-107230142D01*
X156300000Y-107206250D01*
X156300000Y-106718750D01*
X156301174Y-106694858D01*
X156304684Y-106671197D01*
X156310496Y-106647993D01*
X156318554Y-106625471D01*
X156328782Y-106603847D01*
X156341079Y-106583330D01*
X156355329Y-106564117D01*
X156371393Y-106546393D01*
X156389117Y-106530329D01*
X156408330Y-106516079D01*
X156428847Y-106503782D01*
X156450471Y-106493554D01*
X156472993Y-106485496D01*
X156496197Y-106479684D01*
X156519858Y-106476174D01*
X156543750Y-106475000D01*
X157456250Y-106475000D01*
X157480142Y-106476174D01*
G37*
G04 #@! TD.AperFunction*
D18*
X199468000Y-114300000D03*
X199468000Y-111760000D03*
X199468000Y-109220000D03*
X199468000Y-106680000D03*
X199468000Y-104140000D03*
D19*
X199468000Y-101600000D03*
G04 #@! TA.AperFunction,SMDPad,CuDef*
D12*
G36*
X155280142Y-110301174D02*
G01*
X155303803Y-110304684D01*
X155327007Y-110310496D01*
X155349529Y-110318554D01*
X155371153Y-110328782D01*
X155391670Y-110341079D01*
X155410883Y-110355329D01*
X155428607Y-110371393D01*
X155444671Y-110389117D01*
X155458921Y-110408330D01*
X155471218Y-110428847D01*
X155481446Y-110450471D01*
X155489504Y-110472993D01*
X155495316Y-110496197D01*
X155498826Y-110519858D01*
X155500000Y-110543750D01*
X155500000Y-111456250D01*
X155498826Y-111480142D01*
X155495316Y-111503803D01*
X155489504Y-111527007D01*
X155481446Y-111549529D01*
X155471218Y-111571153D01*
X155458921Y-111591670D01*
X155444671Y-111610883D01*
X155428607Y-111628607D01*
X155410883Y-111644671D01*
X155391670Y-111658921D01*
X155371153Y-111671218D01*
X155349529Y-111681446D01*
X155327007Y-111689504D01*
X155303803Y-111695316D01*
X155280142Y-111698826D01*
X155256250Y-111700000D01*
X154768750Y-111700000D01*
X154744858Y-111698826D01*
X154721197Y-111695316D01*
X154697993Y-111689504D01*
X154675471Y-111681446D01*
X154653847Y-111671218D01*
X154633330Y-111658921D01*
X154614117Y-111644671D01*
X154596393Y-111628607D01*
X154580329Y-111610883D01*
X154566079Y-111591670D01*
X154553782Y-111571153D01*
X154543554Y-111549529D01*
X154535496Y-111527007D01*
X154529684Y-111503803D01*
X154526174Y-111480142D01*
X154525000Y-111456250D01*
X154525000Y-110543750D01*
X154526174Y-110519858D01*
X154529684Y-110496197D01*
X154535496Y-110472993D01*
X154543554Y-110450471D01*
X154553782Y-110428847D01*
X154566079Y-110408330D01*
X154580329Y-110389117D01*
X154596393Y-110371393D01*
X154614117Y-110355329D01*
X154633330Y-110341079D01*
X154653847Y-110328782D01*
X154675471Y-110318554D01*
X154697993Y-110310496D01*
X154721197Y-110304684D01*
X154744858Y-110301174D01*
X154768750Y-110300000D01*
X155256250Y-110300000D01*
X155280142Y-110301174D01*
G37*
G04 #@! TD.AperFunction*
G04 #@! TA.AperFunction,SMDPad,CuDef*
G36*
X157155142Y-110301174D02*
G01*
X157178803Y-110304684D01*
X157202007Y-110310496D01*
X157224529Y-110318554D01*
X157246153Y-110328782D01*
X157266670Y-110341079D01*
X157285883Y-110355329D01*
X157303607Y-110371393D01*
X157319671Y-110389117D01*
X157333921Y-110408330D01*
X157346218Y-110428847D01*
X157356446Y-110450471D01*
X157364504Y-110472993D01*
X157370316Y-110496197D01*
X157373826Y-110519858D01*
X157375000Y-110543750D01*
X157375000Y-111456250D01*
X157373826Y-111480142D01*
X157370316Y-111503803D01*
X157364504Y-111527007D01*
X157356446Y-111549529D01*
X157346218Y-111571153D01*
X157333921Y-111591670D01*
X157319671Y-111610883D01*
X157303607Y-111628607D01*
X157285883Y-111644671D01*
X157266670Y-111658921D01*
X157246153Y-111671218D01*
X157224529Y-111681446D01*
X157202007Y-111689504D01*
X157178803Y-111695316D01*
X157155142Y-111698826D01*
X157131250Y-111700000D01*
X156643750Y-111700000D01*
X156619858Y-111698826D01*
X156596197Y-111695316D01*
X156572993Y-111689504D01*
X156550471Y-111681446D01*
X156528847Y-111671218D01*
X156508330Y-111658921D01*
X156489117Y-111644671D01*
X156471393Y-111628607D01*
X156455329Y-111610883D01*
X156441079Y-111591670D01*
X156428782Y-111571153D01*
X156418554Y-111549529D01*
X156410496Y-111527007D01*
X156404684Y-111503803D01*
X156401174Y-111480142D01*
X156400000Y-111456250D01*
X156400000Y-110543750D01*
X156401174Y-110519858D01*
X156404684Y-110496197D01*
X156410496Y-110472993D01*
X156418554Y-110450471D01*
X156428782Y-110428847D01*
X156441079Y-110408330D01*
X156455329Y-110389117D01*
X156471393Y-110371393D01*
X156489117Y-110355329D01*
X156508330Y-110341079D01*
X156528847Y-110328782D01*
X156550471Y-110318554D01*
X156572993Y-110310496D01*
X156596197Y-110304684D01*
X156619858Y-110301174D01*
X156643750Y-110300000D01*
X157131250Y-110300000D01*
X157155142Y-110301174D01*
G37*
G04 #@! TD.AperFunction*
G04 #@! TA.AperFunction,SMDPad,CuDef*
G36*
X169980142Y-101951174D02*
G01*
X170003803Y-101954684D01*
X170027007Y-101960496D01*
X170049529Y-101968554D01*
X170071153Y-101978782D01*
X170091670Y-101991079D01*
X170110883Y-102005329D01*
X170128607Y-102021393D01*
X170144671Y-102039117D01*
X170158921Y-102058330D01*
X170171218Y-102078847D01*
X170181446Y-102100471D01*
X170189504Y-102122993D01*
X170195316Y-102146197D01*
X170198826Y-102169858D01*
X170200000Y-102193750D01*
X170200000Y-102681250D01*
X170198826Y-102705142D01*
X170195316Y-102728803D01*
X170189504Y-102752007D01*
X170181446Y-102774529D01*
X170171218Y-102796153D01*
X170158921Y-102816670D01*
X170144671Y-102835883D01*
X170128607Y-102853607D01*
X170110883Y-102869671D01*
X170091670Y-102883921D01*
X170071153Y-102896218D01*
X170049529Y-102906446D01*
X170027007Y-102914504D01*
X170003803Y-102920316D01*
X169980142Y-102923826D01*
X169956250Y-102925000D01*
X169043750Y-102925000D01*
X169019858Y-102923826D01*
X168996197Y-102920316D01*
X168972993Y-102914504D01*
X168950471Y-102906446D01*
X168928847Y-102896218D01*
X168908330Y-102883921D01*
X168889117Y-102869671D01*
X168871393Y-102853607D01*
X168855329Y-102835883D01*
X168841079Y-102816670D01*
X168828782Y-102796153D01*
X168818554Y-102774529D01*
X168810496Y-102752007D01*
X168804684Y-102728803D01*
X168801174Y-102705142D01*
X168800000Y-102681250D01*
X168800000Y-102193750D01*
X168801174Y-102169858D01*
X168804684Y-102146197D01*
X168810496Y-102122993D01*
X168818554Y-102100471D01*
X168828782Y-102078847D01*
X168841079Y-102058330D01*
X168855329Y-102039117D01*
X168871393Y-102021393D01*
X168889117Y-102005329D01*
X168908330Y-101991079D01*
X168928847Y-101978782D01*
X168950471Y-101968554D01*
X168972993Y-101960496D01*
X168996197Y-101954684D01*
X169019858Y-101951174D01*
X169043750Y-101950000D01*
X169956250Y-101950000D01*
X169980142Y-101951174D01*
G37*
G04 #@! TD.AperFunction*
G04 #@! TA.AperFunction,SMDPad,CuDef*
G36*
X169980142Y-100076174D02*
G01*
X170003803Y-100079684D01*
X170027007Y-100085496D01*
X170049529Y-100093554D01*
X170071153Y-100103782D01*
X170091670Y-100116079D01*
X170110883Y-100130329D01*
X170128607Y-100146393D01*
X170144671Y-100164117D01*
X170158921Y-100183330D01*
X170171218Y-100203847D01*
X170181446Y-100225471D01*
X170189504Y-100247993D01*
X170195316Y-100271197D01*
X170198826Y-100294858D01*
X170200000Y-100318750D01*
X170200000Y-100806250D01*
X170198826Y-100830142D01*
X170195316Y-100853803D01*
X170189504Y-100877007D01*
X170181446Y-100899529D01*
X170171218Y-100921153D01*
X170158921Y-100941670D01*
X170144671Y-100960883D01*
X170128607Y-100978607D01*
X170110883Y-100994671D01*
X170091670Y-101008921D01*
X170071153Y-101021218D01*
X170049529Y-101031446D01*
X170027007Y-101039504D01*
X170003803Y-101045316D01*
X169980142Y-101048826D01*
X169956250Y-101050000D01*
X169043750Y-101050000D01*
X169019858Y-101048826D01*
X168996197Y-101045316D01*
X168972993Y-101039504D01*
X168950471Y-101031446D01*
X168928847Y-101021218D01*
X168908330Y-101008921D01*
X168889117Y-100994671D01*
X168871393Y-100978607D01*
X168855329Y-100960883D01*
X168841079Y-100941670D01*
X168828782Y-100921153D01*
X168818554Y-100899529D01*
X168810496Y-100877007D01*
X168804684Y-100853803D01*
X168801174Y-100830142D01*
X168800000Y-100806250D01*
X168800000Y-100318750D01*
X168801174Y-100294858D01*
X168804684Y-100271197D01*
X168810496Y-100247993D01*
X168818554Y-100225471D01*
X168828782Y-100203847D01*
X168841079Y-100183330D01*
X168855329Y-100164117D01*
X168871393Y-100146393D01*
X168889117Y-100130329D01*
X168908330Y-100116079D01*
X168928847Y-100103782D01*
X168950471Y-100093554D01*
X168972993Y-100085496D01*
X168996197Y-100079684D01*
X169019858Y-100076174D01*
X169043750Y-100075000D01*
X169956250Y-100075000D01*
X169980142Y-100076174D01*
G37*
G04 #@! TD.AperFunction*
G04 #@! TA.AperFunction,SMDPad,CuDef*
G36*
X171980142Y-101951174D02*
G01*
X172003803Y-101954684D01*
X172027007Y-101960496D01*
X172049529Y-101968554D01*
X172071153Y-101978782D01*
X172091670Y-101991079D01*
X172110883Y-102005329D01*
X172128607Y-102021393D01*
X172144671Y-102039117D01*
X172158921Y-102058330D01*
X172171218Y-102078847D01*
X172181446Y-102100471D01*
X172189504Y-102122993D01*
X172195316Y-102146197D01*
X172198826Y-102169858D01*
X172200000Y-102193750D01*
X172200000Y-102681250D01*
X172198826Y-102705142D01*
X172195316Y-102728803D01*
X172189504Y-102752007D01*
X172181446Y-102774529D01*
X172171218Y-102796153D01*
X172158921Y-102816670D01*
X172144671Y-102835883D01*
X172128607Y-102853607D01*
X172110883Y-102869671D01*
X172091670Y-102883921D01*
X172071153Y-102896218D01*
X172049529Y-102906446D01*
X172027007Y-102914504D01*
X172003803Y-102920316D01*
X171980142Y-102923826D01*
X171956250Y-102925000D01*
X171043750Y-102925000D01*
X171019858Y-102923826D01*
X170996197Y-102920316D01*
X170972993Y-102914504D01*
X170950471Y-102906446D01*
X170928847Y-102896218D01*
X170908330Y-102883921D01*
X170889117Y-102869671D01*
X170871393Y-102853607D01*
X170855329Y-102835883D01*
X170841079Y-102816670D01*
X170828782Y-102796153D01*
X170818554Y-102774529D01*
X170810496Y-102752007D01*
X170804684Y-102728803D01*
X170801174Y-102705142D01*
X170800000Y-102681250D01*
X170800000Y-102193750D01*
X170801174Y-102169858D01*
X170804684Y-102146197D01*
X170810496Y-102122993D01*
X170818554Y-102100471D01*
X170828782Y-102078847D01*
X170841079Y-102058330D01*
X170855329Y-102039117D01*
X170871393Y-102021393D01*
X170889117Y-102005329D01*
X170908330Y-101991079D01*
X170928847Y-101978782D01*
X170950471Y-101968554D01*
X170972993Y-101960496D01*
X170996197Y-101954684D01*
X171019858Y-101951174D01*
X171043750Y-101950000D01*
X171956250Y-101950000D01*
X171980142Y-101951174D01*
G37*
G04 #@! TD.AperFunction*
G04 #@! TA.AperFunction,SMDPad,CuDef*
G36*
X171980142Y-100076174D02*
G01*
X172003803Y-100079684D01*
X172027007Y-100085496D01*
X172049529Y-100093554D01*
X172071153Y-100103782D01*
X172091670Y-100116079D01*
X172110883Y-100130329D01*
X172128607Y-100146393D01*
X172144671Y-100164117D01*
X172158921Y-100183330D01*
X172171218Y-100203847D01*
X172181446Y-100225471D01*
X172189504Y-100247993D01*
X172195316Y-100271197D01*
X172198826Y-100294858D01*
X172200000Y-100318750D01*
X172200000Y-100806250D01*
X172198826Y-100830142D01*
X172195316Y-100853803D01*
X172189504Y-100877007D01*
X172181446Y-100899529D01*
X172171218Y-100921153D01*
X172158921Y-100941670D01*
X172144671Y-100960883D01*
X172128607Y-100978607D01*
X172110883Y-100994671D01*
X172091670Y-101008921D01*
X172071153Y-101021218D01*
X172049529Y-101031446D01*
X172027007Y-101039504D01*
X172003803Y-101045316D01*
X171980142Y-101048826D01*
X171956250Y-101050000D01*
X171043750Y-101050000D01*
X171019858Y-101048826D01*
X170996197Y-101045316D01*
X170972993Y-101039504D01*
X170950471Y-101031446D01*
X170928847Y-101021218D01*
X170908330Y-101008921D01*
X170889117Y-100994671D01*
X170871393Y-100978607D01*
X170855329Y-100960883D01*
X170841079Y-100941670D01*
X170828782Y-100921153D01*
X170818554Y-100899529D01*
X170810496Y-100877007D01*
X170804684Y-100853803D01*
X170801174Y-100830142D01*
X170800000Y-100806250D01*
X170800000Y-100318750D01*
X170801174Y-100294858D01*
X170804684Y-100271197D01*
X170810496Y-100247993D01*
X170818554Y-100225471D01*
X170828782Y-100203847D01*
X170841079Y-100183330D01*
X170855329Y-100164117D01*
X170871393Y-100146393D01*
X170889117Y-100130329D01*
X170908330Y-100116079D01*
X170928847Y-100103782D01*
X170950471Y-100093554D01*
X170972993Y-100085496D01*
X170996197Y-100079684D01*
X171019858Y-100076174D01*
X171043750Y-100075000D01*
X171956250Y-100075000D01*
X171980142Y-100076174D01*
G37*
G04 #@! TD.AperFunction*
G04 #@! TA.AperFunction,SMDPad,CuDef*
G36*
X173980142Y-101951174D02*
G01*
X174003803Y-101954684D01*
X174027007Y-101960496D01*
X174049529Y-101968554D01*
X174071153Y-101978782D01*
X174091670Y-101991079D01*
X174110883Y-102005329D01*
X174128607Y-102021393D01*
X174144671Y-102039117D01*
X174158921Y-102058330D01*
X174171218Y-102078847D01*
X174181446Y-102100471D01*
X174189504Y-102122993D01*
X174195316Y-102146197D01*
X174198826Y-102169858D01*
X174200000Y-102193750D01*
X174200000Y-102681250D01*
X174198826Y-102705142D01*
X174195316Y-102728803D01*
X174189504Y-102752007D01*
X174181446Y-102774529D01*
X174171218Y-102796153D01*
X174158921Y-102816670D01*
X174144671Y-102835883D01*
X174128607Y-102853607D01*
X174110883Y-102869671D01*
X174091670Y-102883921D01*
X174071153Y-102896218D01*
X174049529Y-102906446D01*
X174027007Y-102914504D01*
X174003803Y-102920316D01*
X173980142Y-102923826D01*
X173956250Y-102925000D01*
X173043750Y-102925000D01*
X173019858Y-102923826D01*
X172996197Y-102920316D01*
X172972993Y-102914504D01*
X172950471Y-102906446D01*
X172928847Y-102896218D01*
X172908330Y-102883921D01*
X172889117Y-102869671D01*
X172871393Y-102853607D01*
X172855329Y-102835883D01*
X172841079Y-102816670D01*
X172828782Y-102796153D01*
X172818554Y-102774529D01*
X172810496Y-102752007D01*
X172804684Y-102728803D01*
X172801174Y-102705142D01*
X172800000Y-102681250D01*
X172800000Y-102193750D01*
X172801174Y-102169858D01*
X172804684Y-102146197D01*
X172810496Y-102122993D01*
X172818554Y-102100471D01*
X172828782Y-102078847D01*
X172841079Y-102058330D01*
X172855329Y-102039117D01*
X172871393Y-102021393D01*
X172889117Y-102005329D01*
X172908330Y-101991079D01*
X172928847Y-101978782D01*
X172950471Y-101968554D01*
X172972993Y-101960496D01*
X172996197Y-101954684D01*
X173019858Y-101951174D01*
X173043750Y-101950000D01*
X173956250Y-101950000D01*
X173980142Y-101951174D01*
G37*
G04 #@! TD.AperFunction*
G04 #@! TA.AperFunction,SMDPad,CuDef*
G36*
X173980142Y-100076174D02*
G01*
X174003803Y-100079684D01*
X174027007Y-100085496D01*
X174049529Y-100093554D01*
X174071153Y-100103782D01*
X174091670Y-100116079D01*
X174110883Y-100130329D01*
X174128607Y-100146393D01*
X174144671Y-100164117D01*
X174158921Y-100183330D01*
X174171218Y-100203847D01*
X174181446Y-100225471D01*
X174189504Y-100247993D01*
X174195316Y-100271197D01*
X174198826Y-100294858D01*
X174200000Y-100318750D01*
X174200000Y-100806250D01*
X174198826Y-100830142D01*
X174195316Y-100853803D01*
X174189504Y-100877007D01*
X174181446Y-100899529D01*
X174171218Y-100921153D01*
X174158921Y-100941670D01*
X174144671Y-100960883D01*
X174128607Y-100978607D01*
X174110883Y-100994671D01*
X174091670Y-101008921D01*
X174071153Y-101021218D01*
X174049529Y-101031446D01*
X174027007Y-101039504D01*
X174003803Y-101045316D01*
X173980142Y-101048826D01*
X173956250Y-101050000D01*
X173043750Y-101050000D01*
X173019858Y-101048826D01*
X172996197Y-101045316D01*
X172972993Y-101039504D01*
X172950471Y-101031446D01*
X172928847Y-101021218D01*
X172908330Y-101008921D01*
X172889117Y-100994671D01*
X172871393Y-100978607D01*
X172855329Y-100960883D01*
X172841079Y-100941670D01*
X172828782Y-100921153D01*
X172818554Y-100899529D01*
X172810496Y-100877007D01*
X172804684Y-100853803D01*
X172801174Y-100830142D01*
X172800000Y-100806250D01*
X172800000Y-100318750D01*
X172801174Y-100294858D01*
X172804684Y-100271197D01*
X172810496Y-100247993D01*
X172818554Y-100225471D01*
X172828782Y-100203847D01*
X172841079Y-100183330D01*
X172855329Y-100164117D01*
X172871393Y-100146393D01*
X172889117Y-100130329D01*
X172908330Y-100116079D01*
X172928847Y-100103782D01*
X172950471Y-100093554D01*
X172972993Y-100085496D01*
X172996197Y-100079684D01*
X173019858Y-100076174D01*
X173043750Y-100075000D01*
X173956250Y-100075000D01*
X173980142Y-100076174D01*
G37*
G04 #@! TD.AperFunction*
D20*
X154600000Y-100550000D03*
X154600000Y-102450000D03*
X152400000Y-102450000D03*
X152400000Y-101500000D03*
X152400000Y-100550000D03*
D21*
X151106974Y-112299859D03*
X157500000Y-104500000D03*
X192750000Y-101075000D03*
X192750000Y-111345000D03*
X149000000Y-101500000D03*
X159000000Y-109500000D03*
X155062500Y-112750000D03*
X174000000Y-112000000D03*
X188107151Y-104881895D03*
X161000000Y-103500000D03*
X163000000Y-110500000D03*
X161750000Y-114250000D03*
X183250000Y-113750000D03*
X153513161Y-110324409D03*
X153441080Y-105058920D03*
X192750000Y-106155000D03*
X192000000Y-109250000D03*
D22*
X154500000Y-107500000D03*
X159000000Y-106500000D03*
X154500000Y-108500000D03*
X159000000Y-108000000D03*
X188250000Y-102345000D03*
X195896781Y-112000000D03*
X195807481Y-105000000D03*
X188250000Y-112615000D03*
X173500000Y-106750000D03*
X173500000Y-109250000D03*
X192750000Y-103615000D03*
X194966291Y-114934923D03*
X169500000Y-106750000D03*
X169500000Y-109250000D03*
X164000000Y-106000000D03*
D23*
X164000000Y-107250000D02*
X164790000Y-106460000D01*
X164000000Y-114250000D02*
X164000000Y-107250000D01*
X164750000Y-115000000D02*
X164000000Y-114250000D01*
X169750000Y-115000000D02*
X164750000Y-115000000D01*
X164790000Y-106460000D02*
X165975000Y-106460000D01*
X170812500Y-113937500D02*
X169750000Y-115000000D01*
X170812500Y-112000000D02*
X170812500Y-113937500D01*
D24*
X151146300Y-112260533D02*
X151106974Y-112299859D01*
X151146300Y-109897380D02*
X151146300Y-112260533D01*
X157500000Y-102500000D02*
X157500000Y-104500000D01*
X157000000Y-105000000D02*
X157500000Y-104500000D01*
X157000000Y-106800000D02*
X157000000Y-105000000D01*
D23*
X152000000Y-109300480D02*
X151743200Y-109300480D01*
X151743200Y-109300480D02*
X151146300Y-109897380D01*
D24*
X152190000Y-101500000D02*
X149000000Y-101500000D01*
X149000000Y-104050300D02*
X149000000Y-101500000D01*
X149000000Y-106801120D02*
X149000000Y-104050300D01*
X149000000Y-109198880D02*
X149000000Y-106801120D01*
X149000000Y-111949700D02*
X149000000Y-109198880D01*
X161025000Y-109000000D02*
X159500000Y-109000000D01*
X159500000Y-109000000D02*
X159000000Y-109500000D01*
X155062500Y-114250000D02*
X155062500Y-112750000D01*
X172687500Y-112000000D02*
X174000000Y-112000000D01*
X171500000Y-100550000D02*
X169500000Y-100550000D01*
X173500000Y-100550000D02*
X171500000Y-100550000D01*
X154810000Y-100550000D02*
X157450000Y-100550000D01*
X169500000Y-100550000D02*
X169200000Y-100550000D01*
X157500000Y-100562500D02*
X158062500Y-100562500D01*
X158062500Y-100562500D02*
X161000000Y-103500000D01*
X162770000Y-110270000D02*
X163000000Y-110500000D01*
X161025000Y-110270000D02*
X162770000Y-110270000D01*
X162250000Y-114250000D02*
X163000000Y-113500000D01*
X163000000Y-113500000D02*
X163000000Y-110500000D01*
X157000000Y-114250000D02*
X162250000Y-114250000D01*
X168187500Y-100562500D02*
X169500000Y-100562500D01*
X163000000Y-105750000D02*
X168187500Y-100562500D01*
X163000000Y-110500000D02*
X163000000Y-105750000D01*
X184655000Y-115155000D02*
X188250000Y-115155000D01*
X183250000Y-113750000D02*
X184655000Y-115155000D01*
D23*
X157000000Y-109000000D02*
X155500000Y-109000000D01*
X155500000Y-109000000D02*
X155000000Y-109500000D01*
X155000000Y-109500000D02*
X155000000Y-111000000D01*
D24*
X171740637Y-115759363D02*
X154324517Y-115759363D01*
X154324517Y-115759363D02*
X153528014Y-114962860D01*
X153528014Y-114962860D02*
X153528014Y-110342292D01*
X153528014Y-110342292D02*
X153500939Y-110315217D01*
X152190000Y-100550000D02*
X153324367Y-100550000D01*
X153324367Y-100550000D02*
X153336735Y-100537632D01*
X153336735Y-100537632D02*
X153500000Y-100700897D01*
X153500000Y-100700897D02*
X153500000Y-102350000D01*
X153500000Y-102350000D02*
X153400000Y-102450000D01*
X153400000Y-102450000D02*
X152190000Y-102450000D01*
X152190000Y-105058920D02*
X153441080Y-105058920D01*
X152190000Y-102450000D02*
X152190000Y-105058920D01*
X152190000Y-105058920D02*
X151148840Y-106100080D01*
D23*
X152000000Y-106699520D02*
X151748280Y-106699520D01*
X151748280Y-106699520D02*
X151148840Y-106100080D01*
D24*
X179000000Y-110540000D02*
X179000000Y-115750000D01*
X171740637Y-115759363D02*
X179000000Y-115750000D01*
X186250000Y-109250000D02*
X192000000Y-109250000D01*
X179750000Y-115750000D02*
X186250000Y-109250000D01*
X179000000Y-115750000D02*
X179750000Y-115750000D01*
D23*
X153547700Y-107500000D02*
X154500000Y-107500000D01*
X153400000Y-107352300D02*
X153547700Y-107500000D01*
X152000000Y-107352300D02*
X153400000Y-107352300D01*
X159040000Y-106460000D02*
X159000000Y-106500000D01*
X161025000Y-106460000D02*
X159040000Y-106460000D01*
X152000000Y-108000000D02*
X153213299Y-108000000D01*
X153213299Y-108000000D02*
X153713299Y-108500000D01*
X153713299Y-108500000D02*
X154075736Y-108500000D01*
X154075736Y-108500000D02*
X154500000Y-108500000D01*
X159270000Y-107730000D02*
X159000000Y-108000000D01*
X161025000Y-107730000D02*
X159270000Y-107730000D01*
X195807481Y-111910700D02*
X195896781Y-112000000D01*
X195807481Y-105000000D02*
X195807481Y-111910700D01*
X176020000Y-107730000D02*
X177003601Y-106746399D01*
X177003601Y-106746399D02*
X180246399Y-106746399D01*
X181532798Y-105460000D02*
X181540000Y-105460000D01*
X180246399Y-106746399D02*
X181532798Y-105460000D01*
X171500000Y-102437500D02*
X171500000Y-107750000D01*
X171500000Y-107750000D02*
X176020000Y-107730000D01*
X165975000Y-107730000D02*
X171500000Y-107750000D01*
X184655000Y-102345000D02*
X181540000Y-105460000D01*
X188250000Y-102345000D02*
X184655000Y-102345000D01*
X198618001Y-107529999D02*
X199468000Y-106680000D01*
X196658718Y-114862486D02*
X196658718Y-109489282D01*
X195331202Y-116190002D02*
X196658718Y-114862486D01*
X192750000Y-115035000D02*
X193905002Y-116190002D01*
X193905002Y-116190002D02*
X195331202Y-116190002D01*
X192750000Y-113885000D02*
X192750000Y-115035000D01*
X196658718Y-109489282D02*
X198618001Y-107529999D01*
X176250000Y-108500000D02*
X176750000Y-108000000D01*
X176750000Y-108000000D02*
X179000000Y-108000000D01*
X168250000Y-109000000D02*
X168750000Y-108500000D01*
X165975000Y-109000000D02*
X168250000Y-109000000D01*
X173500000Y-102437500D02*
X173500000Y-106750000D01*
X173500000Y-109250000D02*
X173500000Y-108500000D01*
X173500000Y-108500000D02*
X176250000Y-108500000D01*
X168750000Y-108500000D02*
X173500000Y-108500000D01*
X196288000Y-103500000D02*
X199468000Y-106680000D01*
X192865000Y-103500000D02*
X196288000Y-103500000D01*
X192750000Y-103615000D02*
X192865000Y-103500000D01*
X174062500Y-102437500D02*
X173500000Y-102437500D01*
X175750000Y-100750000D02*
X174062500Y-102437500D01*
X190000000Y-100750000D02*
X175750000Y-100750000D01*
X190500000Y-102750000D02*
X190500000Y-101250000D01*
X190500000Y-101250000D02*
X190000000Y-100750000D01*
X191365000Y-103615000D02*
X190500000Y-102750000D01*
X192750000Y-103615000D02*
X191365000Y-103615000D01*
X194966291Y-114510659D02*
X194966291Y-114934923D01*
X194966291Y-110609289D02*
X194966291Y-114510659D01*
X188250000Y-107425000D02*
X191782002Y-107425000D01*
X191782002Y-107425000D02*
X194966291Y-110609289D01*
X187572429Y-107425000D02*
X188250000Y-107425000D01*
X169500000Y-102437500D02*
X169500000Y-106750000D01*
X165975000Y-112810000D02*
X168940000Y-112810000D01*
X168940000Y-112810000D02*
X169500000Y-112250000D01*
X181710000Y-110540000D02*
X181540000Y-110540000D01*
X184825000Y-107425000D02*
X181710000Y-110540000D01*
X188250000Y-107425000D02*
X184825000Y-107425000D01*
X174996399Y-109253601D02*
X174000000Y-110250000D01*
X180246399Y-109253601D02*
X174996399Y-109253601D01*
X180250000Y-109250000D02*
X180246399Y-109253601D01*
X181540000Y-110540000D02*
X180250000Y-109250000D01*
X174000000Y-110250000D02*
X169500000Y-110250000D01*
X169500000Y-110250000D02*
X169500000Y-109250000D01*
X169500000Y-112250000D02*
X169500000Y-110250000D01*
X161810000Y-105190000D02*
X166040000Y-100960000D01*
X166040000Y-100960000D02*
X166040000Y-100500000D01*
X161025000Y-105190000D02*
X161810000Y-105190000D01*
X161200000Y-100740000D02*
X160960000Y-100500000D01*
X164810000Y-105190000D02*
X165975000Y-105190000D01*
X164000000Y-106000000D02*
X164810000Y-105190000D01*
X157100000Y-111200000D02*
X156900000Y-111000000D01*
X158500000Y-111200000D02*
X157100000Y-111200000D01*
X158840000Y-111540000D02*
X158500000Y-111200000D01*
X161025000Y-111540000D02*
X158840000Y-111540000D01*
M02*
