G04 #@! TF.GenerationSoftware,KiCad,Pcbnew,5.1.5+dfsg1-2build2*
G04 #@! TF.CreationDate,2021-03-26T23:39:21+01:00*
G04 #@! TF.ProjectId,USB-I2C,5553422d-4932-4432-9e6b-696361645f70,rev?*
G04 #@! TF.SameCoordinates,Original*
G04 #@! TF.FileFunction,Soldermask,Top*
G04 #@! TF.FilePolarity,Negative*
%FSLAX46Y46*%
G04 Gerber Fmt 4.6, Leading zero omitted, Abs format (unit mm)*
G04 Created by KiCad (PCBNEW 5.1.5+dfsg1-2build2) date 2021-03-26 23:39:21*
%MOMM*%
%LPD*%
G04 APERTURE LIST*
%ADD10C,0.100000*%
G04 APERTURE END LIST*
D10*
G36*
X189950000Y-116105000D02*
G01*
X186550000Y-116105000D01*
X186550000Y-114205000D01*
X189950000Y-114205000D01*
X189950000Y-116105000D01*
G37*
G36*
X199594819Y-113254655D02*
G01*
X199774274Y-113290350D01*
X199965362Y-113369502D01*
X200137336Y-113484411D01*
X200283589Y-113630664D01*
X200398498Y-113802638D01*
X200477650Y-113993726D01*
X200518000Y-114196584D01*
X200518000Y-114403416D01*
X200477650Y-114606274D01*
X200398498Y-114797362D01*
X200283589Y-114969336D01*
X200137336Y-115115589D01*
X199965362Y-115230498D01*
X199774274Y-115309650D01*
X199596687Y-115344973D01*
X199571417Y-115350000D01*
X199364583Y-115350000D01*
X199339313Y-115344973D01*
X199161726Y-115309650D01*
X198970638Y-115230498D01*
X198798664Y-115115589D01*
X198652411Y-114969336D01*
X198537502Y-114797362D01*
X198458350Y-114606274D01*
X198418000Y-114403416D01*
X198418000Y-114196584D01*
X198458350Y-113993726D01*
X198537502Y-113802638D01*
X198652411Y-113630664D01*
X198798664Y-113484411D01*
X198970638Y-113369502D01*
X199161726Y-113290350D01*
X199341181Y-113254655D01*
X199364583Y-113250000D01*
X199571417Y-113250000D01*
X199594819Y-113254655D01*
G37*
G36*
X155523499Y-113355997D02*
G01*
X155576147Y-113371968D01*
X155624668Y-113397902D01*
X155667195Y-113432805D01*
X155702098Y-113475332D01*
X155728032Y-113523853D01*
X155744003Y-113576501D01*
X155750000Y-113637390D01*
X155750000Y-114862610D01*
X155744003Y-114923499D01*
X155728032Y-114976147D01*
X155702098Y-115024668D01*
X155667195Y-115067195D01*
X155624668Y-115102098D01*
X155576147Y-115128032D01*
X155523499Y-115144003D01*
X155462610Y-115150000D01*
X154662390Y-115150000D01*
X154601501Y-115144003D01*
X154548853Y-115128032D01*
X154500332Y-115102098D01*
X154457805Y-115067195D01*
X154422902Y-115024668D01*
X154396968Y-114976147D01*
X154380997Y-114923499D01*
X154375000Y-114862610D01*
X154375000Y-113637390D01*
X154380997Y-113576501D01*
X154396968Y-113523853D01*
X154422902Y-113475332D01*
X154457805Y-113432805D01*
X154500332Y-113397902D01*
X154548853Y-113371968D01*
X154601501Y-113355997D01*
X154662390Y-113350000D01*
X155462610Y-113350000D01*
X155523499Y-113355997D01*
G37*
G36*
X157398499Y-113355997D02*
G01*
X157451147Y-113371968D01*
X157499668Y-113397902D01*
X157542195Y-113432805D01*
X157577098Y-113475332D01*
X157603032Y-113523853D01*
X157619003Y-113576501D01*
X157625000Y-113637390D01*
X157625000Y-114862610D01*
X157619003Y-114923499D01*
X157603032Y-114976147D01*
X157577098Y-115024668D01*
X157542195Y-115067195D01*
X157499668Y-115102098D01*
X157451147Y-115128032D01*
X157398499Y-115144003D01*
X157337610Y-115150000D01*
X156537390Y-115150000D01*
X156476501Y-115144003D01*
X156423853Y-115128032D01*
X156375332Y-115102098D01*
X156332805Y-115067195D01*
X156297902Y-115024668D01*
X156271968Y-114976147D01*
X156255997Y-114923499D01*
X156250000Y-114862610D01*
X156250000Y-113637390D01*
X156255997Y-113576501D01*
X156271968Y-113523853D01*
X156297902Y-113475332D01*
X156332805Y-113432805D01*
X156375332Y-113397902D01*
X156423853Y-113371968D01*
X156476501Y-113355997D01*
X156537390Y-113350000D01*
X157337610Y-113350000D01*
X157398499Y-113355997D01*
G37*
G36*
X194450000Y-114835000D02*
G01*
X191050000Y-114835000D01*
X191050000Y-112935000D01*
X194450000Y-112935000D01*
X194450000Y-114835000D01*
G37*
G36*
X189950000Y-113565000D02*
G01*
X186550000Y-113565000D01*
X186550000Y-111665000D01*
X189950000Y-111665000D01*
X189950000Y-113565000D01*
G37*
G36*
X162048963Y-112314196D02*
G01*
X162084021Y-112324831D01*
X162116332Y-112342102D01*
X162144655Y-112365345D01*
X162167898Y-112393668D01*
X162185169Y-112425979D01*
X162195804Y-112461037D01*
X162200000Y-112503641D01*
X162200000Y-113116359D01*
X162195804Y-113158963D01*
X162185169Y-113194021D01*
X162167898Y-113226332D01*
X162144655Y-113254655D01*
X162116332Y-113277898D01*
X162084021Y-113295169D01*
X162048963Y-113305804D01*
X162006359Y-113310000D01*
X160043641Y-113310000D01*
X160001037Y-113305804D01*
X159965979Y-113295169D01*
X159933668Y-113277898D01*
X159905345Y-113254655D01*
X159882102Y-113226332D01*
X159864831Y-113194021D01*
X159854196Y-113158963D01*
X159850000Y-113116359D01*
X159850000Y-112503641D01*
X159854196Y-112461037D01*
X159864831Y-112425979D01*
X159882102Y-112393668D01*
X159905345Y-112365345D01*
X159933668Y-112342102D01*
X159965979Y-112324831D01*
X160001037Y-112314196D01*
X160043641Y-112310000D01*
X162006359Y-112310000D01*
X162048963Y-112314196D01*
G37*
G36*
X166998963Y-112314196D02*
G01*
X167034021Y-112324831D01*
X167066332Y-112342102D01*
X167094655Y-112365345D01*
X167117898Y-112393668D01*
X167135169Y-112425979D01*
X167145804Y-112461037D01*
X167150000Y-112503641D01*
X167150000Y-113116359D01*
X167145804Y-113158963D01*
X167135169Y-113194021D01*
X167117898Y-113226332D01*
X167094655Y-113254655D01*
X167066332Y-113277898D01*
X167034021Y-113295169D01*
X166998963Y-113305804D01*
X166956359Y-113310000D01*
X164993641Y-113310000D01*
X164951037Y-113305804D01*
X164915979Y-113295169D01*
X164883668Y-113277898D01*
X164855345Y-113254655D01*
X164832102Y-113226332D01*
X164814831Y-113194021D01*
X164804196Y-113158963D01*
X164800000Y-113116359D01*
X164800000Y-112503641D01*
X164804196Y-112461037D01*
X164814831Y-112425979D01*
X164832102Y-112393668D01*
X164855345Y-112365345D01*
X164883668Y-112342102D01*
X164915979Y-112324831D01*
X164951037Y-112314196D01*
X164993641Y-112310000D01*
X166956359Y-112310000D01*
X166998963Y-112314196D01*
G37*
G36*
X150148690Y-113098390D02*
G01*
X147851310Y-113098390D01*
X147851310Y-110801010D01*
X150148690Y-110801010D01*
X150148690Y-113098390D01*
G37*
G36*
X171273499Y-111105997D02*
G01*
X171326147Y-111121968D01*
X171374668Y-111147902D01*
X171417195Y-111182805D01*
X171452098Y-111225332D01*
X171478032Y-111273853D01*
X171494003Y-111326501D01*
X171500000Y-111387390D01*
X171500000Y-112612610D01*
X171494003Y-112673499D01*
X171478032Y-112726147D01*
X171452098Y-112774668D01*
X171417195Y-112817195D01*
X171374668Y-112852098D01*
X171326147Y-112878032D01*
X171273499Y-112894003D01*
X171212610Y-112900000D01*
X170412390Y-112900000D01*
X170351501Y-112894003D01*
X170298853Y-112878032D01*
X170250332Y-112852098D01*
X170207805Y-112817195D01*
X170172902Y-112774668D01*
X170146968Y-112726147D01*
X170130997Y-112673499D01*
X170125000Y-112612610D01*
X170125000Y-111387390D01*
X170130997Y-111326501D01*
X170146968Y-111273853D01*
X170172902Y-111225332D01*
X170207805Y-111182805D01*
X170250332Y-111147902D01*
X170298853Y-111121968D01*
X170351501Y-111105997D01*
X170412390Y-111100000D01*
X171212610Y-111100000D01*
X171273499Y-111105997D01*
G37*
G36*
X173148499Y-111105997D02*
G01*
X173201147Y-111121968D01*
X173249668Y-111147902D01*
X173292195Y-111182805D01*
X173327098Y-111225332D01*
X173353032Y-111273853D01*
X173369003Y-111326501D01*
X173375000Y-111387390D01*
X173375000Y-112612610D01*
X173369003Y-112673499D01*
X173353032Y-112726147D01*
X173327098Y-112774668D01*
X173292195Y-112817195D01*
X173249668Y-112852098D01*
X173201147Y-112878032D01*
X173148499Y-112894003D01*
X173087610Y-112900000D01*
X172287390Y-112900000D01*
X172226501Y-112894003D01*
X172173853Y-112878032D01*
X172125332Y-112852098D01*
X172082805Y-112817195D01*
X172047902Y-112774668D01*
X172021968Y-112726147D01*
X172005997Y-112673499D01*
X172000000Y-112612610D01*
X172000000Y-111387390D01*
X172005997Y-111326501D01*
X172021968Y-111273853D01*
X172047902Y-111225332D01*
X172082805Y-111182805D01*
X172125332Y-111147902D01*
X172173853Y-111121968D01*
X172226501Y-111105997D01*
X172287390Y-111100000D01*
X173087610Y-111100000D01*
X173148499Y-111105997D01*
G37*
G36*
X199594819Y-110714655D02*
G01*
X199774274Y-110750350D01*
X199965362Y-110829502D01*
X200137336Y-110944411D01*
X200283589Y-111090664D01*
X200398498Y-111262638D01*
X200477650Y-111453726D01*
X200518000Y-111656584D01*
X200518000Y-111863416D01*
X200477650Y-112066274D01*
X200398498Y-112257362D01*
X200283589Y-112429336D01*
X200137336Y-112575589D01*
X199965362Y-112690498D01*
X199774274Y-112769650D01*
X199596687Y-112804973D01*
X199571417Y-112810000D01*
X199364583Y-112810000D01*
X199339313Y-112804973D01*
X199161726Y-112769650D01*
X198970638Y-112690498D01*
X198798664Y-112575589D01*
X198652411Y-112429336D01*
X198537502Y-112257362D01*
X198458350Y-112066274D01*
X198418000Y-111863416D01*
X198418000Y-111656584D01*
X198458350Y-111453726D01*
X198537502Y-111262638D01*
X198652411Y-111090664D01*
X198798664Y-110944411D01*
X198970638Y-110829502D01*
X199161726Y-110750350D01*
X199341181Y-110714655D01*
X199364583Y-110710000D01*
X199571417Y-110710000D01*
X199594819Y-110714655D01*
G37*
G36*
X194450000Y-112295000D02*
G01*
X191050000Y-112295000D01*
X191050000Y-110395000D01*
X194450000Y-110395000D01*
X194450000Y-112295000D01*
G37*
G36*
X166998963Y-111044196D02*
G01*
X167034021Y-111054831D01*
X167066332Y-111072102D01*
X167094655Y-111095345D01*
X167117898Y-111123668D01*
X167135169Y-111155979D01*
X167145804Y-111191037D01*
X167150000Y-111233641D01*
X167150000Y-111846359D01*
X167145804Y-111888963D01*
X167135169Y-111924021D01*
X167117898Y-111956332D01*
X167094655Y-111984655D01*
X167066332Y-112007898D01*
X167034021Y-112025169D01*
X166998963Y-112035804D01*
X166956359Y-112040000D01*
X164993641Y-112040000D01*
X164951037Y-112035804D01*
X164915979Y-112025169D01*
X164883668Y-112007898D01*
X164855345Y-111984655D01*
X164832102Y-111956332D01*
X164814831Y-111924021D01*
X164804196Y-111888963D01*
X164800000Y-111846359D01*
X164800000Y-111233641D01*
X164804196Y-111191037D01*
X164814831Y-111155979D01*
X164832102Y-111123668D01*
X164855345Y-111095345D01*
X164883668Y-111072102D01*
X164915979Y-111054831D01*
X164951037Y-111044196D01*
X164993641Y-111040000D01*
X166956359Y-111040000D01*
X166998963Y-111044196D01*
G37*
G36*
X162048963Y-111044196D02*
G01*
X162084021Y-111054831D01*
X162116332Y-111072102D01*
X162144655Y-111095345D01*
X162167898Y-111123668D01*
X162185169Y-111155979D01*
X162195804Y-111191037D01*
X162200000Y-111233641D01*
X162200000Y-111846359D01*
X162195804Y-111888963D01*
X162185169Y-111924021D01*
X162167898Y-111956332D01*
X162144655Y-111984655D01*
X162116332Y-112007898D01*
X162084021Y-112025169D01*
X162048963Y-112035804D01*
X162006359Y-112040000D01*
X160043641Y-112040000D01*
X160001037Y-112035804D01*
X159965979Y-112025169D01*
X159933668Y-112007898D01*
X159905345Y-111984655D01*
X159882102Y-111956332D01*
X159864831Y-111924021D01*
X159854196Y-111888963D01*
X159850000Y-111846359D01*
X159850000Y-111233641D01*
X159854196Y-111191037D01*
X159864831Y-111155979D01*
X159882102Y-111123668D01*
X159905345Y-111095345D01*
X159933668Y-111072102D01*
X159965979Y-111054831D01*
X160001037Y-111044196D01*
X160043641Y-111040000D01*
X162006359Y-111040000D01*
X162048963Y-111044196D01*
G37*
G36*
X155473499Y-110105997D02*
G01*
X155526147Y-110121968D01*
X155574668Y-110147902D01*
X155617195Y-110182805D01*
X155652098Y-110225332D01*
X155678032Y-110273853D01*
X155694003Y-110326501D01*
X155700000Y-110387390D01*
X155700000Y-111612610D01*
X155694003Y-111673499D01*
X155678032Y-111726147D01*
X155652098Y-111774668D01*
X155617195Y-111817195D01*
X155574668Y-111852098D01*
X155526147Y-111878032D01*
X155473499Y-111894003D01*
X155412610Y-111900000D01*
X154612390Y-111900000D01*
X154551501Y-111894003D01*
X154498853Y-111878032D01*
X154450332Y-111852098D01*
X154407805Y-111817195D01*
X154372902Y-111774668D01*
X154346968Y-111726147D01*
X154330997Y-111673499D01*
X154325000Y-111612610D01*
X154325000Y-110387390D01*
X154330997Y-110326501D01*
X154346968Y-110273853D01*
X154372902Y-110225332D01*
X154407805Y-110182805D01*
X154450332Y-110147902D01*
X154498853Y-110121968D01*
X154551501Y-110105997D01*
X154612390Y-110100000D01*
X155412610Y-110100000D01*
X155473499Y-110105997D01*
G37*
G36*
X157348499Y-110105997D02*
G01*
X157401147Y-110121968D01*
X157449668Y-110147902D01*
X157492195Y-110182805D01*
X157527098Y-110225332D01*
X157553032Y-110273853D01*
X157569003Y-110326501D01*
X157575000Y-110387390D01*
X157575000Y-111612610D01*
X157569003Y-111673499D01*
X157553032Y-111726147D01*
X157527098Y-111774668D01*
X157492195Y-111817195D01*
X157449668Y-111852098D01*
X157401147Y-111878032D01*
X157348499Y-111894003D01*
X157287610Y-111900000D01*
X156487390Y-111900000D01*
X156426501Y-111894003D01*
X156373853Y-111878032D01*
X156325332Y-111852098D01*
X156282805Y-111817195D01*
X156247902Y-111774668D01*
X156221968Y-111726147D01*
X156205997Y-111673499D01*
X156200000Y-111612610D01*
X156200000Y-110387390D01*
X156205997Y-110326501D01*
X156221968Y-110273853D01*
X156247902Y-110225332D01*
X156282805Y-110182805D01*
X156325332Y-110147902D01*
X156373853Y-110121968D01*
X156426501Y-110105997D01*
X156487390Y-110100000D01*
X157287610Y-110100000D01*
X157348499Y-110105997D01*
G37*
G36*
X179310240Y-109517273D02*
G01*
X179503802Y-109597449D01*
X179678005Y-109713848D01*
X179826152Y-109861995D01*
X179942551Y-110036198D01*
X180022727Y-110229760D01*
X180063600Y-110435243D01*
X180063600Y-110644757D01*
X180022727Y-110850240D01*
X179942551Y-111043802D01*
X179826152Y-111218005D01*
X179678005Y-111366152D01*
X179503802Y-111482551D01*
X179310240Y-111562727D01*
X179104757Y-111603600D01*
X178895243Y-111603600D01*
X178689760Y-111562727D01*
X178496198Y-111482551D01*
X178321995Y-111366152D01*
X178173848Y-111218005D01*
X178057449Y-111043802D01*
X177977273Y-110850240D01*
X177936400Y-110644757D01*
X177936400Y-110435243D01*
X177977273Y-110229760D01*
X178057449Y-110036198D01*
X178173848Y-109861995D01*
X178321995Y-109713848D01*
X178496198Y-109597449D01*
X178689760Y-109517273D01*
X178895243Y-109476400D01*
X179104757Y-109476400D01*
X179310240Y-109517273D01*
G37*
G36*
X181850240Y-109517273D02*
G01*
X182043802Y-109597449D01*
X182218005Y-109713848D01*
X182366152Y-109861995D01*
X182482551Y-110036198D01*
X182562727Y-110229760D01*
X182603600Y-110435243D01*
X182603600Y-110644757D01*
X182562727Y-110850240D01*
X182482551Y-111043802D01*
X182366152Y-111218005D01*
X182218005Y-111366152D01*
X182043802Y-111482551D01*
X181850240Y-111562727D01*
X181644757Y-111603600D01*
X181435243Y-111603600D01*
X181229760Y-111562727D01*
X181036198Y-111482551D01*
X180861995Y-111366152D01*
X180713848Y-111218005D01*
X180597449Y-111043802D01*
X180517273Y-110850240D01*
X180476400Y-110644757D01*
X180476400Y-110435243D01*
X180517273Y-110229760D01*
X180597449Y-110036198D01*
X180713848Y-109861995D01*
X180861995Y-109713848D01*
X181036198Y-109597449D01*
X181229760Y-109517273D01*
X181435243Y-109476400D01*
X181644757Y-109476400D01*
X181850240Y-109517273D01*
G37*
G36*
X162048963Y-109774196D02*
G01*
X162084021Y-109784831D01*
X162116332Y-109802102D01*
X162144655Y-109825345D01*
X162167898Y-109853668D01*
X162185169Y-109885979D01*
X162195804Y-109921037D01*
X162200000Y-109963641D01*
X162200000Y-110576359D01*
X162195804Y-110618963D01*
X162185169Y-110654021D01*
X162167898Y-110686332D01*
X162144655Y-110714655D01*
X162116332Y-110737898D01*
X162084021Y-110755169D01*
X162048963Y-110765804D01*
X162006359Y-110770000D01*
X160043641Y-110770000D01*
X160001037Y-110765804D01*
X159965979Y-110755169D01*
X159933668Y-110737898D01*
X159905345Y-110714655D01*
X159882102Y-110686332D01*
X159864831Y-110654021D01*
X159854196Y-110618963D01*
X159850000Y-110576359D01*
X159850000Y-109963641D01*
X159854196Y-109921037D01*
X159864831Y-109885979D01*
X159882102Y-109853668D01*
X159905345Y-109825345D01*
X159933668Y-109802102D01*
X159965979Y-109784831D01*
X160001037Y-109774196D01*
X160043641Y-109770000D01*
X162006359Y-109770000D01*
X162048963Y-109774196D01*
G37*
G36*
X166998963Y-109774196D02*
G01*
X167034021Y-109784831D01*
X167066332Y-109802102D01*
X167094655Y-109825345D01*
X167117898Y-109853668D01*
X167135169Y-109885979D01*
X167145804Y-109921037D01*
X167150000Y-109963641D01*
X167150000Y-110576359D01*
X167145804Y-110618963D01*
X167135169Y-110654021D01*
X167117898Y-110686332D01*
X167094655Y-110714655D01*
X167066332Y-110737898D01*
X167034021Y-110755169D01*
X166998963Y-110765804D01*
X166956359Y-110770000D01*
X164993641Y-110770000D01*
X164951037Y-110765804D01*
X164915979Y-110755169D01*
X164883668Y-110737898D01*
X164855345Y-110714655D01*
X164832102Y-110686332D01*
X164814831Y-110654021D01*
X164804196Y-110618963D01*
X164800000Y-110576359D01*
X164800000Y-109963641D01*
X164804196Y-109921037D01*
X164814831Y-109885979D01*
X164832102Y-109853668D01*
X164855345Y-109825345D01*
X164883668Y-109802102D01*
X164915979Y-109784831D01*
X164951037Y-109774196D01*
X164993641Y-109770000D01*
X166956359Y-109770000D01*
X166998963Y-109774196D01*
G37*
G36*
X151323498Y-105524310D02*
G01*
X151421144Y-105564757D01*
X151432469Y-105569448D01*
X151530540Y-105634977D01*
X151613943Y-105718380D01*
X151648595Y-105770241D01*
X151679473Y-105816453D01*
X151724610Y-105925422D01*
X151747620Y-106041104D01*
X151747620Y-106167524D01*
X151746871Y-106175128D01*
X151749272Y-106199514D01*
X151756385Y-106222963D01*
X151767935Y-106244574D01*
X151783480Y-106263516D01*
X151802422Y-106279062D01*
X151824032Y-106290614D01*
X151847481Y-106297728D01*
X151871870Y-106300130D01*
X153200000Y-106300130D01*
X153200000Y-109699870D01*
X151869835Y-109699870D01*
X151845449Y-109702272D01*
X151822000Y-109709385D01*
X151800389Y-109720936D01*
X151781447Y-109736481D01*
X151765902Y-109755423D01*
X151754351Y-109777034D01*
X151747238Y-109800483D01*
X151744836Y-109824869D01*
X151745080Y-109827343D01*
X151745080Y-109956356D01*
X151722070Y-110072038D01*
X151689570Y-110150498D01*
X151676932Y-110181009D01*
X151611403Y-110279080D01*
X151528000Y-110362483D01*
X151429929Y-110428012D01*
X151429928Y-110428013D01*
X151429927Y-110428013D01*
X151320958Y-110473150D01*
X151205276Y-110496160D01*
X151087324Y-110496160D01*
X150971642Y-110473150D01*
X150862673Y-110428013D01*
X150862672Y-110428013D01*
X150862671Y-110428012D01*
X150764600Y-110362483D01*
X150681197Y-110279080D01*
X150615668Y-110181009D01*
X150603030Y-110150498D01*
X150570530Y-110072038D01*
X150547520Y-109956356D01*
X150547520Y-109838404D01*
X150570530Y-109722722D01*
X150615667Y-109613753D01*
X150626561Y-109597449D01*
X150681197Y-109515680D01*
X150763394Y-109433483D01*
X150778934Y-109414547D01*
X150790485Y-109392936D01*
X150797598Y-109369487D01*
X150800000Y-109345101D01*
X150800000Y-106649819D01*
X150797598Y-106625433D01*
X150790485Y-106601984D01*
X150778934Y-106580373D01*
X150763394Y-106561437D01*
X150683737Y-106481780D01*
X150618208Y-106383709D01*
X150607478Y-106357805D01*
X150573070Y-106274738D01*
X150550060Y-106159056D01*
X150550060Y-106041104D01*
X150573070Y-105925422D01*
X150618207Y-105816453D01*
X150649085Y-105770241D01*
X150683737Y-105718380D01*
X150767140Y-105634977D01*
X150865211Y-105569448D01*
X150876536Y-105564757D01*
X150974182Y-105524310D01*
X151089864Y-105501300D01*
X151207816Y-105501300D01*
X151323498Y-105524310D01*
G37*
G36*
X150148690Y-110347570D02*
G01*
X147851310Y-110347570D01*
X147851310Y-105652430D01*
X150148690Y-105652430D01*
X150148690Y-110347570D01*
G37*
G36*
X199594819Y-108174655D02*
G01*
X199774274Y-108210350D01*
X199965362Y-108289502D01*
X200137336Y-108404411D01*
X200283589Y-108550664D01*
X200398498Y-108722638D01*
X200477650Y-108913726D01*
X200518000Y-109116584D01*
X200518000Y-109323416D01*
X200477650Y-109526274D01*
X200398498Y-109717362D01*
X200283589Y-109889336D01*
X200137336Y-110035589D01*
X199965362Y-110150498D01*
X199774274Y-110229650D01*
X199596687Y-110264973D01*
X199571417Y-110270000D01*
X199364583Y-110270000D01*
X199339313Y-110264973D01*
X199161726Y-110229650D01*
X198970638Y-110150498D01*
X198798664Y-110035589D01*
X198652411Y-109889336D01*
X198537502Y-109717362D01*
X198458350Y-109526274D01*
X198418000Y-109323416D01*
X198418000Y-109116584D01*
X198458350Y-108913726D01*
X198537502Y-108722638D01*
X198652411Y-108550664D01*
X198798664Y-108404411D01*
X198970638Y-108289502D01*
X199161726Y-108210350D01*
X199341181Y-108174655D01*
X199364583Y-108170000D01*
X199571417Y-108170000D01*
X199594819Y-108174655D01*
G37*
G36*
X157673499Y-108155997D02*
G01*
X157726147Y-108171968D01*
X157774668Y-108197902D01*
X157817195Y-108232805D01*
X157852098Y-108275332D01*
X157878032Y-108323853D01*
X157894003Y-108376501D01*
X157900000Y-108437390D01*
X157900000Y-109237610D01*
X157894003Y-109298499D01*
X157878032Y-109351147D01*
X157852098Y-109399668D01*
X157817195Y-109442195D01*
X157774668Y-109477098D01*
X157726147Y-109503032D01*
X157673499Y-109519003D01*
X157612610Y-109525000D01*
X156387390Y-109525000D01*
X156326501Y-109519003D01*
X156273853Y-109503032D01*
X156225332Y-109477098D01*
X156182805Y-109442195D01*
X156147902Y-109399668D01*
X156121968Y-109351147D01*
X156105997Y-109298499D01*
X156100000Y-109237610D01*
X156100000Y-108437390D01*
X156105997Y-108376501D01*
X156121968Y-108323853D01*
X156147902Y-108275332D01*
X156182805Y-108232805D01*
X156225332Y-108197902D01*
X156273853Y-108171968D01*
X156326501Y-108155997D01*
X156387390Y-108150000D01*
X157612610Y-108150000D01*
X157673499Y-108155997D01*
G37*
G36*
X166998963Y-108504196D02*
G01*
X167034021Y-108514831D01*
X167066332Y-108532102D01*
X167094655Y-108555345D01*
X167117898Y-108583668D01*
X167135169Y-108615979D01*
X167145804Y-108651037D01*
X167150000Y-108693641D01*
X167150000Y-109306359D01*
X167145804Y-109348963D01*
X167135169Y-109384021D01*
X167117898Y-109416332D01*
X167094655Y-109444655D01*
X167066332Y-109467898D01*
X167034021Y-109485169D01*
X166998963Y-109495804D01*
X166956359Y-109500000D01*
X164993641Y-109500000D01*
X164951037Y-109495804D01*
X164915979Y-109485169D01*
X164883668Y-109467898D01*
X164855345Y-109444655D01*
X164832102Y-109416332D01*
X164814831Y-109384021D01*
X164804196Y-109348963D01*
X164800000Y-109306359D01*
X164800000Y-108693641D01*
X164804196Y-108651037D01*
X164814831Y-108615979D01*
X164832102Y-108583668D01*
X164855345Y-108555345D01*
X164883668Y-108532102D01*
X164915979Y-108514831D01*
X164951037Y-108504196D01*
X164993641Y-108500000D01*
X166956359Y-108500000D01*
X166998963Y-108504196D01*
G37*
G36*
X162048963Y-108504196D02*
G01*
X162084021Y-108514831D01*
X162116332Y-108532102D01*
X162144655Y-108555345D01*
X162167898Y-108583668D01*
X162185169Y-108615979D01*
X162195804Y-108651037D01*
X162200000Y-108693641D01*
X162200000Y-109306359D01*
X162195804Y-109348963D01*
X162185169Y-109384021D01*
X162167898Y-109416332D01*
X162144655Y-109444655D01*
X162116332Y-109467898D01*
X162084021Y-109485169D01*
X162048963Y-109495804D01*
X162006359Y-109500000D01*
X160043641Y-109500000D01*
X160001037Y-109495804D01*
X159965979Y-109485169D01*
X159933668Y-109467898D01*
X159905345Y-109444655D01*
X159882102Y-109416332D01*
X159864831Y-109384021D01*
X159854196Y-109348963D01*
X159850000Y-109306359D01*
X159850000Y-108693641D01*
X159854196Y-108651037D01*
X159864831Y-108615979D01*
X159882102Y-108583668D01*
X159905345Y-108555345D01*
X159933668Y-108532102D01*
X159965979Y-108514831D01*
X160001037Y-108504196D01*
X160043641Y-108500000D01*
X162006359Y-108500000D01*
X162048963Y-108504196D01*
G37*
G36*
X179310240Y-106977273D02*
G01*
X179503802Y-107057449D01*
X179678005Y-107173848D01*
X179826152Y-107321995D01*
X179942551Y-107496198D01*
X180022727Y-107689760D01*
X180063600Y-107895243D01*
X180063600Y-108104757D01*
X180022727Y-108310240D01*
X179942551Y-108503802D01*
X179826152Y-108678005D01*
X179678005Y-108826152D01*
X179503802Y-108942551D01*
X179310240Y-109022727D01*
X179104757Y-109063600D01*
X178895243Y-109063600D01*
X178689760Y-109022727D01*
X178496198Y-108942551D01*
X178321995Y-108826152D01*
X178173848Y-108678005D01*
X178057449Y-108503802D01*
X177977273Y-108310240D01*
X177936400Y-108104757D01*
X177936400Y-107895243D01*
X177977273Y-107689760D01*
X178057449Y-107496198D01*
X178173848Y-107321995D01*
X178321995Y-107173848D01*
X178496198Y-107057449D01*
X178689760Y-106977273D01*
X178895243Y-106936400D01*
X179104757Y-106936400D01*
X179310240Y-106977273D01*
G37*
G36*
X181850240Y-106977273D02*
G01*
X182043802Y-107057449D01*
X182218005Y-107173848D01*
X182366152Y-107321995D01*
X182482551Y-107496198D01*
X182562727Y-107689760D01*
X182603600Y-107895243D01*
X182603600Y-108104757D01*
X182562727Y-108310240D01*
X182482551Y-108503802D01*
X182366152Y-108678005D01*
X182218005Y-108826152D01*
X182043802Y-108942551D01*
X181850240Y-109022727D01*
X181644757Y-109063600D01*
X181435243Y-109063600D01*
X181229760Y-109022727D01*
X181036198Y-108942551D01*
X180861995Y-108826152D01*
X180713848Y-108678005D01*
X180597449Y-108503802D01*
X180517273Y-108310240D01*
X180476400Y-108104757D01*
X180476400Y-107895243D01*
X180517273Y-107689760D01*
X180597449Y-107496198D01*
X180713848Y-107321995D01*
X180861995Y-107173848D01*
X181036198Y-107057449D01*
X181229760Y-106977273D01*
X181435243Y-106936400D01*
X181644757Y-106936400D01*
X181850240Y-106977273D01*
G37*
G36*
X189950000Y-108375000D02*
G01*
X186550000Y-108375000D01*
X186550000Y-106475000D01*
X189950000Y-106475000D01*
X189950000Y-108375000D01*
G37*
G36*
X162048963Y-107234196D02*
G01*
X162084021Y-107244831D01*
X162116332Y-107262102D01*
X162144655Y-107285345D01*
X162167898Y-107313668D01*
X162185169Y-107345979D01*
X162195804Y-107381037D01*
X162200000Y-107423641D01*
X162200000Y-108036359D01*
X162195804Y-108078963D01*
X162185169Y-108114021D01*
X162167898Y-108146332D01*
X162144655Y-108174655D01*
X162116332Y-108197898D01*
X162084021Y-108215169D01*
X162048963Y-108225804D01*
X162006359Y-108230000D01*
X160043641Y-108230000D01*
X160001037Y-108225804D01*
X159965979Y-108215169D01*
X159933668Y-108197898D01*
X159905345Y-108174655D01*
X159882102Y-108146332D01*
X159864831Y-108114021D01*
X159854196Y-108078963D01*
X159850000Y-108036359D01*
X159850000Y-107423641D01*
X159854196Y-107381037D01*
X159864831Y-107345979D01*
X159882102Y-107313668D01*
X159905345Y-107285345D01*
X159933668Y-107262102D01*
X159965979Y-107244831D01*
X160001037Y-107234196D01*
X160043641Y-107230000D01*
X162006359Y-107230000D01*
X162048963Y-107234196D01*
G37*
G36*
X166998963Y-107234196D02*
G01*
X167034021Y-107244831D01*
X167066332Y-107262102D01*
X167094655Y-107285345D01*
X167117898Y-107313668D01*
X167135169Y-107345979D01*
X167145804Y-107381037D01*
X167150000Y-107423641D01*
X167150000Y-108036359D01*
X167145804Y-108078963D01*
X167135169Y-108114021D01*
X167117898Y-108146332D01*
X167094655Y-108174655D01*
X167066332Y-108197898D01*
X167034021Y-108215169D01*
X166998963Y-108225804D01*
X166956359Y-108230000D01*
X164993641Y-108230000D01*
X164951037Y-108225804D01*
X164915979Y-108215169D01*
X164883668Y-108197898D01*
X164855345Y-108174655D01*
X164832102Y-108146332D01*
X164814831Y-108114021D01*
X164804196Y-108078963D01*
X164800000Y-108036359D01*
X164800000Y-107423641D01*
X164804196Y-107381037D01*
X164814831Y-107345979D01*
X164832102Y-107313668D01*
X164855345Y-107285345D01*
X164883668Y-107262102D01*
X164915979Y-107244831D01*
X164951037Y-107234196D01*
X164993641Y-107230000D01*
X166956359Y-107230000D01*
X166998963Y-107234196D01*
G37*
G36*
X199594819Y-105634655D02*
G01*
X199774274Y-105670350D01*
X199965362Y-105749502D01*
X200137336Y-105864411D01*
X200283589Y-106010664D01*
X200398498Y-106182638D01*
X200477650Y-106373726D01*
X200518000Y-106576584D01*
X200518000Y-106783416D01*
X200477650Y-106986274D01*
X200398498Y-107177362D01*
X200283589Y-107349336D01*
X200137336Y-107495589D01*
X199965362Y-107610498D01*
X199774274Y-107689650D01*
X199596687Y-107724973D01*
X199571417Y-107730000D01*
X199364583Y-107730000D01*
X199339313Y-107724973D01*
X199161726Y-107689650D01*
X198970638Y-107610498D01*
X198798664Y-107495589D01*
X198652411Y-107349336D01*
X198537502Y-107177362D01*
X198458350Y-106986274D01*
X198418000Y-106783416D01*
X198418000Y-106576584D01*
X198458350Y-106373726D01*
X198537502Y-106182638D01*
X198652411Y-106010664D01*
X198798664Y-105864411D01*
X198970638Y-105749502D01*
X199161726Y-105670350D01*
X199341181Y-105634655D01*
X199364583Y-105630000D01*
X199571417Y-105630000D01*
X199594819Y-105634655D01*
G37*
G36*
X157673499Y-106280997D02*
G01*
X157726147Y-106296968D01*
X157774668Y-106322902D01*
X157817195Y-106357805D01*
X157852098Y-106400332D01*
X157878032Y-106448853D01*
X157894003Y-106501501D01*
X157900000Y-106562390D01*
X157900000Y-107362610D01*
X157894003Y-107423499D01*
X157878032Y-107476147D01*
X157852098Y-107524668D01*
X157817195Y-107567195D01*
X157774668Y-107602098D01*
X157726147Y-107628032D01*
X157673499Y-107644003D01*
X157612610Y-107650000D01*
X156387390Y-107650000D01*
X156326501Y-107644003D01*
X156273853Y-107628032D01*
X156225332Y-107602098D01*
X156182805Y-107567195D01*
X156147902Y-107524668D01*
X156121968Y-107476147D01*
X156105997Y-107423499D01*
X156100000Y-107362610D01*
X156100000Y-106562390D01*
X156105997Y-106501501D01*
X156121968Y-106448853D01*
X156147902Y-106400332D01*
X156182805Y-106357805D01*
X156225332Y-106322902D01*
X156273853Y-106296968D01*
X156326501Y-106280997D01*
X156387390Y-106275000D01*
X157612610Y-106275000D01*
X157673499Y-106280997D01*
G37*
G36*
X194450000Y-107105000D02*
G01*
X191050000Y-107105000D01*
X191050000Y-105205000D01*
X194450000Y-105205000D01*
X194450000Y-107105000D01*
G37*
G36*
X162048963Y-105964196D02*
G01*
X162084021Y-105974831D01*
X162116332Y-105992102D01*
X162144655Y-106015345D01*
X162167898Y-106043668D01*
X162185169Y-106075979D01*
X162195804Y-106111037D01*
X162200000Y-106153641D01*
X162200000Y-106766359D01*
X162195804Y-106808963D01*
X162185169Y-106844021D01*
X162167898Y-106876332D01*
X162144655Y-106904655D01*
X162116332Y-106927898D01*
X162084021Y-106945169D01*
X162048963Y-106955804D01*
X162006359Y-106960000D01*
X160043641Y-106960000D01*
X160001037Y-106955804D01*
X159965979Y-106945169D01*
X159933668Y-106927898D01*
X159905345Y-106904655D01*
X159882102Y-106876332D01*
X159864831Y-106844021D01*
X159854196Y-106808963D01*
X159850000Y-106766359D01*
X159850000Y-106153641D01*
X159854196Y-106111037D01*
X159864831Y-106075979D01*
X159882102Y-106043668D01*
X159905345Y-106015345D01*
X159933668Y-105992102D01*
X159965979Y-105974831D01*
X160001037Y-105964196D01*
X160043641Y-105960000D01*
X162006359Y-105960000D01*
X162048963Y-105964196D01*
G37*
G36*
X166998963Y-105964196D02*
G01*
X167034021Y-105974831D01*
X167066332Y-105992102D01*
X167094655Y-106015345D01*
X167117898Y-106043668D01*
X167135169Y-106075979D01*
X167145804Y-106111037D01*
X167150000Y-106153641D01*
X167150000Y-106766359D01*
X167145804Y-106808963D01*
X167135169Y-106844021D01*
X167117898Y-106876332D01*
X167094655Y-106904655D01*
X167066332Y-106927898D01*
X167034021Y-106945169D01*
X166998963Y-106955804D01*
X166956359Y-106960000D01*
X164993641Y-106960000D01*
X164951037Y-106955804D01*
X164915979Y-106945169D01*
X164883668Y-106927898D01*
X164855345Y-106904655D01*
X164832102Y-106876332D01*
X164814831Y-106844021D01*
X164804196Y-106808963D01*
X164800000Y-106766359D01*
X164800000Y-106153641D01*
X164804196Y-106111037D01*
X164814831Y-106075979D01*
X164832102Y-106043668D01*
X164855345Y-106015345D01*
X164883668Y-105992102D01*
X164915979Y-105974831D01*
X164951037Y-105964196D01*
X164993641Y-105960000D01*
X166956359Y-105960000D01*
X166998963Y-105964196D01*
G37*
G36*
X181850240Y-104437273D02*
G01*
X182043802Y-104517449D01*
X182218005Y-104633848D01*
X182366152Y-104781995D01*
X182482551Y-104956198D01*
X182562727Y-105149760D01*
X182603600Y-105355243D01*
X182603600Y-105564757D01*
X182562727Y-105770240D01*
X182482551Y-105963802D01*
X182366152Y-106138005D01*
X182218005Y-106286152D01*
X182043802Y-106402551D01*
X181850240Y-106482727D01*
X181644757Y-106523600D01*
X181435243Y-106523600D01*
X181229760Y-106482727D01*
X181036198Y-106402551D01*
X180861995Y-106286152D01*
X180713848Y-106138005D01*
X180597449Y-105963802D01*
X180517273Y-105770240D01*
X180476400Y-105564757D01*
X180476400Y-105355243D01*
X180517273Y-105149760D01*
X180597449Y-104956198D01*
X180713848Y-104781995D01*
X180861995Y-104633848D01*
X181036198Y-104517449D01*
X181229760Y-104437273D01*
X181435243Y-104396400D01*
X181644757Y-104396400D01*
X181850240Y-104437273D01*
G37*
G36*
X180063600Y-106523600D02*
G01*
X177936400Y-106523600D01*
X177936400Y-104396400D01*
X180063600Y-104396400D01*
X180063600Y-106523600D01*
G37*
G36*
X189950000Y-105835000D02*
G01*
X186550000Y-105835000D01*
X186550000Y-103935000D01*
X189950000Y-103935000D01*
X189950000Y-105835000D01*
G37*
G36*
X166998963Y-104694196D02*
G01*
X167034021Y-104704831D01*
X167066332Y-104722102D01*
X167094655Y-104745345D01*
X167117898Y-104773668D01*
X167135169Y-104805979D01*
X167145804Y-104841037D01*
X167150000Y-104883641D01*
X167150000Y-105496359D01*
X167145804Y-105538963D01*
X167135169Y-105574021D01*
X167117898Y-105606332D01*
X167094655Y-105634655D01*
X167066332Y-105657898D01*
X167034021Y-105675169D01*
X166998963Y-105685804D01*
X166956359Y-105690000D01*
X164993641Y-105690000D01*
X164951037Y-105685804D01*
X164915979Y-105675169D01*
X164883668Y-105657898D01*
X164855345Y-105634655D01*
X164832102Y-105606332D01*
X164814831Y-105574021D01*
X164804196Y-105538963D01*
X164800000Y-105496359D01*
X164800000Y-104883641D01*
X164804196Y-104841037D01*
X164814831Y-104805979D01*
X164832102Y-104773668D01*
X164855345Y-104745345D01*
X164883668Y-104722102D01*
X164915979Y-104704831D01*
X164951037Y-104694196D01*
X164993641Y-104690000D01*
X166956359Y-104690000D01*
X166998963Y-104694196D01*
G37*
G36*
X162048963Y-104694196D02*
G01*
X162084021Y-104704831D01*
X162116332Y-104722102D01*
X162144655Y-104745345D01*
X162167898Y-104773668D01*
X162185169Y-104805979D01*
X162195804Y-104841037D01*
X162200000Y-104883641D01*
X162200000Y-105496359D01*
X162195804Y-105538963D01*
X162185169Y-105574021D01*
X162167898Y-105606332D01*
X162144655Y-105634655D01*
X162116332Y-105657898D01*
X162084021Y-105675169D01*
X162048963Y-105685804D01*
X162006359Y-105690000D01*
X160043641Y-105690000D01*
X160001037Y-105685804D01*
X159965979Y-105675169D01*
X159933668Y-105657898D01*
X159905345Y-105634655D01*
X159882102Y-105606332D01*
X159864831Y-105574021D01*
X159854196Y-105538963D01*
X159850000Y-105496359D01*
X159850000Y-104883641D01*
X159854196Y-104841037D01*
X159864831Y-104805979D01*
X159882102Y-104773668D01*
X159905345Y-104745345D01*
X159933668Y-104722102D01*
X159965979Y-104704831D01*
X160001037Y-104694196D01*
X160043641Y-104690000D01*
X162006359Y-104690000D01*
X162048963Y-104694196D01*
G37*
G36*
X150148690Y-105198990D02*
G01*
X147851310Y-105198990D01*
X147851310Y-102901610D01*
X150148690Y-102901610D01*
X150148690Y-105198990D01*
G37*
G36*
X199596687Y-103095027D02*
G01*
X199774274Y-103130350D01*
X199965362Y-103209502D01*
X200137336Y-103324411D01*
X200283589Y-103470664D01*
X200398498Y-103642638D01*
X200477650Y-103833726D01*
X200518000Y-104036584D01*
X200518000Y-104243416D01*
X200477650Y-104446274D01*
X200398498Y-104637362D01*
X200283589Y-104809336D01*
X200137336Y-104955589D01*
X199965362Y-105070498D01*
X199774274Y-105149650D01*
X199596687Y-105184973D01*
X199571417Y-105190000D01*
X199364583Y-105190000D01*
X199339313Y-105184973D01*
X199161726Y-105149650D01*
X198970638Y-105070498D01*
X198798664Y-104955589D01*
X198652411Y-104809336D01*
X198537502Y-104637362D01*
X198458350Y-104446274D01*
X198418000Y-104243416D01*
X198418000Y-104036584D01*
X198458350Y-103833726D01*
X198537502Y-103642638D01*
X198652411Y-103470664D01*
X198798664Y-103324411D01*
X198970638Y-103209502D01*
X199161726Y-103130350D01*
X199339313Y-103095027D01*
X199364583Y-103090000D01*
X199571417Y-103090000D01*
X199596687Y-103095027D01*
G37*
G36*
X194450000Y-104565000D02*
G01*
X191050000Y-104565000D01*
X191050000Y-102665000D01*
X194450000Y-102665000D01*
X194450000Y-104565000D01*
G37*
G36*
X189950000Y-103295000D02*
G01*
X186550000Y-103295000D01*
X186550000Y-101395000D01*
X189950000Y-101395000D01*
X189950000Y-103295000D01*
G37*
G36*
X170173499Y-101755997D02*
G01*
X170226147Y-101771968D01*
X170274668Y-101797902D01*
X170317195Y-101832805D01*
X170352098Y-101875332D01*
X170378032Y-101923853D01*
X170380383Y-101931602D01*
X170389761Y-101954241D01*
X170403375Y-101974616D01*
X170420702Y-101991943D01*
X170441076Y-102005556D01*
X170463715Y-102014934D01*
X170487748Y-102019714D01*
X170512252Y-102019714D01*
X170536285Y-102014934D01*
X170558924Y-102005556D01*
X170579299Y-101991942D01*
X170596626Y-101974615D01*
X170610239Y-101954241D01*
X170619617Y-101931602D01*
X170621968Y-101923853D01*
X170647902Y-101875332D01*
X170682805Y-101832805D01*
X170725332Y-101797902D01*
X170773853Y-101771968D01*
X170826501Y-101755997D01*
X170887390Y-101750000D01*
X172112610Y-101750000D01*
X172173499Y-101755997D01*
X172226147Y-101771968D01*
X172274668Y-101797902D01*
X172317195Y-101832805D01*
X172352098Y-101875332D01*
X172378032Y-101923853D01*
X172380383Y-101931602D01*
X172389761Y-101954241D01*
X172403375Y-101974616D01*
X172420702Y-101991943D01*
X172441076Y-102005556D01*
X172463715Y-102014934D01*
X172487748Y-102019714D01*
X172512252Y-102019714D01*
X172536285Y-102014934D01*
X172558924Y-102005556D01*
X172579299Y-101991942D01*
X172596626Y-101974615D01*
X172610239Y-101954241D01*
X172619617Y-101931602D01*
X172621968Y-101923853D01*
X172647902Y-101875332D01*
X172682805Y-101832805D01*
X172725332Y-101797902D01*
X172773853Y-101771968D01*
X172826501Y-101755997D01*
X172887390Y-101750000D01*
X174112610Y-101750000D01*
X174173499Y-101755997D01*
X174226147Y-101771968D01*
X174274668Y-101797902D01*
X174317195Y-101832805D01*
X174352098Y-101875332D01*
X174378032Y-101923853D01*
X174394003Y-101976501D01*
X174400000Y-102037390D01*
X174400000Y-102837610D01*
X174394003Y-102898499D01*
X174378032Y-102951147D01*
X174352098Y-102999668D01*
X174317195Y-103042195D01*
X174274668Y-103077098D01*
X174226147Y-103103032D01*
X174173499Y-103119003D01*
X174112610Y-103125000D01*
X172887390Y-103125000D01*
X172826501Y-103119003D01*
X172773853Y-103103032D01*
X172725332Y-103077098D01*
X172682805Y-103042195D01*
X172647902Y-102999668D01*
X172621968Y-102951147D01*
X172619617Y-102943398D01*
X172610239Y-102920759D01*
X172596625Y-102900384D01*
X172579298Y-102883057D01*
X172558924Y-102869444D01*
X172536285Y-102860066D01*
X172512252Y-102855286D01*
X172487748Y-102855286D01*
X172463715Y-102860066D01*
X172441076Y-102869444D01*
X172420701Y-102883058D01*
X172403374Y-102900385D01*
X172389761Y-102920759D01*
X172380383Y-102943398D01*
X172378032Y-102951147D01*
X172352098Y-102999668D01*
X172317195Y-103042195D01*
X172274668Y-103077098D01*
X172226147Y-103103032D01*
X172173499Y-103119003D01*
X172112610Y-103125000D01*
X170887390Y-103125000D01*
X170826501Y-103119003D01*
X170773853Y-103103032D01*
X170725332Y-103077098D01*
X170682805Y-103042195D01*
X170647902Y-102999668D01*
X170621968Y-102951147D01*
X170619617Y-102943398D01*
X170610239Y-102920759D01*
X170596625Y-102900384D01*
X170579298Y-102883057D01*
X170558924Y-102869444D01*
X170536285Y-102860066D01*
X170512252Y-102855286D01*
X170487748Y-102855286D01*
X170463715Y-102860066D01*
X170441076Y-102869444D01*
X170420701Y-102883058D01*
X170403374Y-102900385D01*
X170389761Y-102920759D01*
X170380383Y-102943398D01*
X170378032Y-102951147D01*
X170352098Y-102999668D01*
X170317195Y-103042195D01*
X170274668Y-103077098D01*
X170226147Y-103103032D01*
X170173499Y-103119003D01*
X170112610Y-103125000D01*
X168887390Y-103125000D01*
X168826501Y-103119003D01*
X168773853Y-103103032D01*
X168725332Y-103077098D01*
X168682805Y-103042195D01*
X168647902Y-102999668D01*
X168621968Y-102951147D01*
X168605997Y-102898499D01*
X168600000Y-102837610D01*
X168600000Y-102037390D01*
X168605997Y-101976501D01*
X168621968Y-101923853D01*
X168647902Y-101875332D01*
X168682805Y-101832805D01*
X168725332Y-101797902D01*
X168773853Y-101771968D01*
X168826501Y-101755997D01*
X168887390Y-101750000D01*
X170112610Y-101750000D01*
X170173499Y-101755997D01*
G37*
G36*
X158173499Y-101755997D02*
G01*
X158226147Y-101771968D01*
X158274668Y-101797902D01*
X158317195Y-101832805D01*
X158352098Y-101875332D01*
X158378032Y-101923853D01*
X158394003Y-101976501D01*
X158400000Y-102037390D01*
X158400000Y-102837610D01*
X158394003Y-102898499D01*
X158378032Y-102951147D01*
X158352098Y-102999668D01*
X158317195Y-103042195D01*
X158274668Y-103077098D01*
X158226147Y-103103032D01*
X158173499Y-103119003D01*
X158112610Y-103125000D01*
X156887390Y-103125000D01*
X156826501Y-103119003D01*
X156773853Y-103103032D01*
X156725332Y-103077098D01*
X156682805Y-103042195D01*
X156647902Y-102999668D01*
X156621968Y-102951147D01*
X156605997Y-102898499D01*
X156600000Y-102837610D01*
X156600000Y-102037390D01*
X156605997Y-101976501D01*
X156621968Y-101923853D01*
X156647902Y-101875332D01*
X156682805Y-101832805D01*
X156725332Y-101797902D01*
X156773853Y-101771968D01*
X156826501Y-101755997D01*
X156887390Y-101750000D01*
X158112610Y-101750000D01*
X158173499Y-101755997D01*
G37*
G36*
X155330000Y-102975000D02*
G01*
X153870000Y-102975000D01*
X153870000Y-101925000D01*
X155330000Y-101925000D01*
X155330000Y-102975000D01*
G37*
G36*
X153130000Y-102975000D02*
G01*
X151670000Y-102975000D01*
X151670000Y-100025000D01*
X153130000Y-100025000D01*
X153130000Y-102975000D01*
G37*
G36*
X200518000Y-102650000D02*
G01*
X198418000Y-102650000D01*
X198418000Y-100550000D01*
X200518000Y-100550000D01*
X200518000Y-102650000D01*
G37*
G36*
X194450000Y-102025000D02*
G01*
X191050000Y-102025000D01*
X191050000Y-100125000D01*
X194450000Y-100125000D01*
X194450000Y-102025000D01*
G37*
G36*
X166320604Y-99574968D02*
G01*
X166408142Y-99611228D01*
X166495678Y-99647486D01*
X166495679Y-99647487D01*
X166653237Y-99752763D01*
X166787237Y-99886763D01*
X166834705Y-99957805D01*
X166892514Y-100044322D01*
X166915417Y-100099615D01*
X166965032Y-100219396D01*
X167002000Y-100405250D01*
X167002000Y-100594750D01*
X166965032Y-100780604D01*
X166892514Y-100955678D01*
X166892513Y-100955679D01*
X166787237Y-101113237D01*
X166653237Y-101247237D01*
X166521879Y-101335007D01*
X166495678Y-101352514D01*
X166320604Y-101425032D01*
X166134750Y-101462000D01*
X165945250Y-101462000D01*
X165759396Y-101425032D01*
X165671858Y-101388772D01*
X165584322Y-101352514D01*
X165558121Y-101335007D01*
X165426763Y-101247237D01*
X165292763Y-101113237D01*
X165187487Y-100955679D01*
X165187486Y-100955678D01*
X165114968Y-100780604D01*
X165078000Y-100594750D01*
X165078000Y-100405250D01*
X165114968Y-100219396D01*
X165164583Y-100099615D01*
X165187486Y-100044322D01*
X165245295Y-99957805D01*
X165292763Y-99886763D01*
X165426763Y-99752763D01*
X165584321Y-99647487D01*
X165584322Y-99647486D01*
X165671858Y-99611228D01*
X165759396Y-99574968D01*
X165945250Y-99538000D01*
X166134750Y-99538000D01*
X166320604Y-99574968D01*
G37*
G36*
X163780604Y-99574968D02*
G01*
X163868142Y-99611228D01*
X163955678Y-99647486D01*
X163955679Y-99647487D01*
X164113237Y-99752763D01*
X164247237Y-99886763D01*
X164294705Y-99957805D01*
X164352514Y-100044322D01*
X164375417Y-100099615D01*
X164425032Y-100219396D01*
X164462000Y-100405250D01*
X164462000Y-100594750D01*
X164425032Y-100780604D01*
X164352514Y-100955678D01*
X164352513Y-100955679D01*
X164247237Y-101113237D01*
X164113237Y-101247237D01*
X163981879Y-101335007D01*
X163955678Y-101352514D01*
X163780604Y-101425032D01*
X163594750Y-101462000D01*
X163405250Y-101462000D01*
X163219396Y-101425032D01*
X163131858Y-101388772D01*
X163044322Y-101352514D01*
X163018121Y-101335007D01*
X162886763Y-101247237D01*
X162752763Y-101113237D01*
X162647487Y-100955679D01*
X162647486Y-100955678D01*
X162574968Y-100780604D01*
X162538000Y-100594750D01*
X162538000Y-100405250D01*
X162574968Y-100219396D01*
X162624583Y-100099615D01*
X162647486Y-100044322D01*
X162705295Y-99957805D01*
X162752763Y-99886763D01*
X162886763Y-99752763D01*
X163044321Y-99647487D01*
X163044322Y-99647486D01*
X163131858Y-99611228D01*
X163219396Y-99574968D01*
X163405250Y-99538000D01*
X163594750Y-99538000D01*
X163780604Y-99574968D01*
G37*
G36*
X161240604Y-99574968D02*
G01*
X161328142Y-99611228D01*
X161415678Y-99647486D01*
X161415679Y-99647487D01*
X161573237Y-99752763D01*
X161707237Y-99886763D01*
X161754705Y-99957805D01*
X161812514Y-100044322D01*
X161835417Y-100099615D01*
X161885032Y-100219396D01*
X161922000Y-100405250D01*
X161922000Y-100594750D01*
X161885032Y-100780604D01*
X161812514Y-100955678D01*
X161812513Y-100955679D01*
X161707237Y-101113237D01*
X161573237Y-101247237D01*
X161441879Y-101335007D01*
X161415678Y-101352514D01*
X161240604Y-101425032D01*
X161054750Y-101462000D01*
X160865250Y-101462000D01*
X160679396Y-101425032D01*
X160591858Y-101388772D01*
X160504322Y-101352514D01*
X160478121Y-101335007D01*
X160346763Y-101247237D01*
X160212763Y-101113237D01*
X160107487Y-100955679D01*
X160107486Y-100955678D01*
X160034968Y-100780604D01*
X159998000Y-100594750D01*
X159998000Y-100405250D01*
X160034968Y-100219396D01*
X160084583Y-100099615D01*
X160107486Y-100044322D01*
X160165295Y-99957805D01*
X160212763Y-99886763D01*
X160346763Y-99752763D01*
X160504321Y-99647487D01*
X160504322Y-99647486D01*
X160591858Y-99611228D01*
X160679396Y-99574968D01*
X160865250Y-99538000D01*
X161054750Y-99538000D01*
X161240604Y-99574968D01*
G37*
G36*
X170173499Y-99880997D02*
G01*
X170226147Y-99896968D01*
X170274668Y-99922902D01*
X170317195Y-99957805D01*
X170352098Y-100000332D01*
X170378032Y-100048853D01*
X170380383Y-100056602D01*
X170389761Y-100079241D01*
X170403375Y-100099616D01*
X170420702Y-100116943D01*
X170441076Y-100130556D01*
X170463715Y-100139934D01*
X170487748Y-100144714D01*
X170512252Y-100144714D01*
X170536285Y-100139934D01*
X170558924Y-100130556D01*
X170579299Y-100116942D01*
X170596626Y-100099615D01*
X170610239Y-100079241D01*
X170619617Y-100056602D01*
X170621968Y-100048853D01*
X170647902Y-100000332D01*
X170682805Y-99957805D01*
X170725332Y-99922902D01*
X170773853Y-99896968D01*
X170826501Y-99880997D01*
X170887390Y-99875000D01*
X172112610Y-99875000D01*
X172173499Y-99880997D01*
X172226147Y-99896968D01*
X172274668Y-99922902D01*
X172317195Y-99957805D01*
X172352098Y-100000332D01*
X172378032Y-100048853D01*
X172380383Y-100056602D01*
X172389761Y-100079241D01*
X172403375Y-100099616D01*
X172420702Y-100116943D01*
X172441076Y-100130556D01*
X172463715Y-100139934D01*
X172487748Y-100144714D01*
X172512252Y-100144714D01*
X172536285Y-100139934D01*
X172558924Y-100130556D01*
X172579299Y-100116942D01*
X172596626Y-100099615D01*
X172610239Y-100079241D01*
X172619617Y-100056602D01*
X172621968Y-100048853D01*
X172647902Y-100000332D01*
X172682805Y-99957805D01*
X172725332Y-99922902D01*
X172773853Y-99896968D01*
X172826501Y-99880997D01*
X172887390Y-99875000D01*
X174112610Y-99875000D01*
X174173499Y-99880997D01*
X174226147Y-99896968D01*
X174274668Y-99922902D01*
X174317195Y-99957805D01*
X174352098Y-100000332D01*
X174378032Y-100048853D01*
X174394003Y-100101501D01*
X174400000Y-100162390D01*
X174400000Y-100962610D01*
X174394003Y-101023499D01*
X174378032Y-101076147D01*
X174352098Y-101124668D01*
X174317195Y-101167195D01*
X174274668Y-101202098D01*
X174226147Y-101228032D01*
X174173499Y-101244003D01*
X174112610Y-101250000D01*
X172887390Y-101250000D01*
X172826501Y-101244003D01*
X172773853Y-101228032D01*
X172725332Y-101202098D01*
X172682805Y-101167195D01*
X172647902Y-101124668D01*
X172621968Y-101076147D01*
X172619617Y-101068398D01*
X172610239Y-101045759D01*
X172596625Y-101025384D01*
X172579298Y-101008057D01*
X172558924Y-100994444D01*
X172536285Y-100985066D01*
X172512252Y-100980286D01*
X172487748Y-100980286D01*
X172463715Y-100985066D01*
X172441076Y-100994444D01*
X172420701Y-101008058D01*
X172403374Y-101025385D01*
X172389761Y-101045759D01*
X172380383Y-101068398D01*
X172378032Y-101076147D01*
X172352098Y-101124668D01*
X172317195Y-101167195D01*
X172274668Y-101202098D01*
X172226147Y-101228032D01*
X172173499Y-101244003D01*
X172112610Y-101250000D01*
X170887390Y-101250000D01*
X170826501Y-101244003D01*
X170773853Y-101228032D01*
X170725332Y-101202098D01*
X170682805Y-101167195D01*
X170647902Y-101124668D01*
X170621968Y-101076147D01*
X170619617Y-101068398D01*
X170610239Y-101045759D01*
X170596625Y-101025384D01*
X170579298Y-101008057D01*
X170558924Y-100994444D01*
X170536285Y-100985066D01*
X170512252Y-100980286D01*
X170487748Y-100980286D01*
X170463715Y-100985066D01*
X170441076Y-100994444D01*
X170420701Y-101008058D01*
X170403374Y-101025385D01*
X170389761Y-101045759D01*
X170380383Y-101068398D01*
X170378032Y-101076147D01*
X170352098Y-101124668D01*
X170317195Y-101167195D01*
X170274668Y-101202098D01*
X170226147Y-101228032D01*
X170173499Y-101244003D01*
X170112610Y-101250000D01*
X168887390Y-101250000D01*
X168826501Y-101244003D01*
X168773853Y-101228032D01*
X168725332Y-101202098D01*
X168682805Y-101167195D01*
X168647902Y-101124668D01*
X168621968Y-101076147D01*
X168605997Y-101023499D01*
X168600000Y-100962610D01*
X168600000Y-100162390D01*
X168605997Y-100101501D01*
X168621968Y-100048853D01*
X168647902Y-100000332D01*
X168682805Y-99957805D01*
X168725332Y-99922902D01*
X168773853Y-99896968D01*
X168826501Y-99880997D01*
X168887390Y-99875000D01*
X170112610Y-99875000D01*
X170173499Y-99880997D01*
G37*
G36*
X158173499Y-99880997D02*
G01*
X158226147Y-99896968D01*
X158274668Y-99922902D01*
X158317195Y-99957805D01*
X158352098Y-100000332D01*
X158378032Y-100048853D01*
X158394003Y-100101501D01*
X158400000Y-100162390D01*
X158400000Y-100962610D01*
X158394003Y-101023499D01*
X158378032Y-101076147D01*
X158352098Y-101124668D01*
X158317195Y-101167195D01*
X158274668Y-101202098D01*
X158226147Y-101228032D01*
X158173499Y-101244003D01*
X158112610Y-101250000D01*
X156887390Y-101250000D01*
X156826501Y-101244003D01*
X156773853Y-101228032D01*
X156725332Y-101202098D01*
X156682805Y-101167195D01*
X156647902Y-101124668D01*
X156621968Y-101076147D01*
X156605997Y-101023499D01*
X156600000Y-100962610D01*
X156600000Y-100162390D01*
X156605997Y-100101501D01*
X156621968Y-100048853D01*
X156647902Y-100000332D01*
X156682805Y-99957805D01*
X156725332Y-99922902D01*
X156773853Y-99896968D01*
X156826501Y-99880997D01*
X156887390Y-99875000D01*
X158112610Y-99875000D01*
X158173499Y-99880997D01*
G37*
G36*
X155330000Y-101075000D02*
G01*
X153870000Y-101075000D01*
X153870000Y-100025000D01*
X155330000Y-100025000D01*
X155330000Y-101075000D01*
G37*
M02*
