M48
; DRILL file {KiCad 5.1.5+dfsg1-2build2} date Pá 26. března 2021, 23:39:18
; FORMAT={-:-/ absolute / inch / decimal}
; #@! TF.CreationDate,2021-03-26T23:39:18+01:00
; #@! TF.GenerationSoftware,Kicad,Pcbnew,5.1.5+dfsg1-2build2
; #@! TF.FileFunction,Plated,1,2,PTH
FMAT,2
INCH
T1C0.0157
T2C0.0236
T3C0.0314
T4C0.0394
T5C0.0400
%
G90
G05
T1
X6.0827Y-4.2323
X6.0827Y-4.2717
X6.2598Y-4.1929
X6.2598Y-4.252
X6.4567Y-4.1732
X6.6732Y-4.2028
X6.6732Y-4.3012
X6.8307Y-4.2028
X6.8307Y-4.3012
X7.4114Y-4.0293
X7.4114Y-4.4337
X7.5886Y-4.0793
X7.6758Y-4.525
X7.709Y-4.1339
X7.7125Y-4.4094
T2
X5.8661Y-3.9961
X5.9491Y-4.4213
X6.041Y-4.1362
X6.0438Y-4.3435
X6.1048Y-4.439
X6.2008Y-4.1142
X6.2598Y-4.311
X6.3386Y-4.0748
X6.3681Y-4.498
X6.4173Y-4.3504
X6.8504Y-4.4094
X7.2146Y-4.4783
X7.4058Y-4.1292
X7.5591Y-4.3012
X7.5886Y-3.9793
X7.5886Y-4.1793
X7.5886Y-4.3837
T3
X5.9506Y-4.3267
X5.9507Y-4.1772
T4
X7.8531Y-4.0
X7.8531Y-4.1
X7.8531Y-4.2
X7.8531Y-4.3
X7.8531Y-4.4
X7.8531Y-4.5
T5
X7.0472Y-4.152
X7.0472Y-4.252
X7.0472Y-4.352
X7.1472Y-4.152
X7.1472Y-4.252
X7.1472Y-4.352
X6.337Y-3.9567
X6.437Y-3.9567
X6.537Y-3.9567
T0
M30
