G04 #@! TF.FileFunction,Copper,L2,Bot,Signal*
%FSLAX46Y46*%
G04 Gerber Fmt 4.6, Leading zero omitted, Abs format (unit mm)*
G04 Created by KiCad (PCBNEW 4.0.7-e2-6376~58~ubuntu16.04.1) date Wed Aug 15 22:40:32 2018*
%MOMM*%
%LPD*%
G01*
G04 APERTURE LIST*
%ADD10C,0.100000*%
%ADD11C,0.797560*%
%ADD12R,1.700000X1.700000*%
%ADD13O,1.700000X1.700000*%
%ADD14C,1.524000*%
%ADD15C,0.600000*%
%ADD16C,0.900000*%
%ADD17C,0.400000*%
%ADD18C,0.600000*%
%ADD19C,0.254000*%
G04 APERTURE END LIST*
D10*
D11*
X151146300Y-109897380D03*
X151148840Y-106100080D03*
D12*
X188468000Y-101600000D03*
D13*
X188468000Y-104140000D03*
X188468000Y-106680000D03*
X188468000Y-109220000D03*
X188468000Y-111760000D03*
X188468000Y-114300000D03*
D14*
X166040000Y-100500000D03*
X163500000Y-100500000D03*
X160960000Y-100500000D03*
D15*
X170000000Y-112000000D03*
X163500000Y-111500000D03*
D16*
X151106974Y-112299859D03*
X174217576Y-110164688D03*
X157500000Y-104500000D03*
X162000000Y-112500000D03*
X181750000Y-101075000D03*
X181750000Y-111345000D03*
X166500000Y-107500000D03*
X149000000Y-101500000D03*
X174155909Y-115518483D03*
X158000000Y-114250000D03*
X177107151Y-104881895D03*
X174500000Y-107000000D03*
X170000000Y-109500000D03*
X166500000Y-109500000D03*
X153513161Y-110324409D03*
X174000000Y-113500000D03*
X153441080Y-105058920D03*
X182141879Y-106795662D03*
D15*
X163500000Y-107500000D03*
X154500000Y-107500000D03*
X162500000Y-108500000D03*
X154500000Y-108500000D03*
X167103419Y-104251795D03*
X184896781Y-113224187D03*
X172500000Y-103500000D03*
X184807481Y-105289494D03*
X177250000Y-112615000D03*
X177250000Y-102345000D03*
X181809990Y-103319613D03*
X167569989Y-102871784D03*
X174500000Y-103500000D03*
X183966291Y-114934923D03*
X169500000Y-104000000D03*
X165000000Y-107500000D03*
X162107671Y-102131209D03*
X162086495Y-104460580D03*
X160988761Y-102124878D03*
X160148882Y-104915866D03*
D17*
X164000000Y-112000000D02*
X170000000Y-112000000D01*
X163500000Y-111500000D02*
X164000000Y-112000000D01*
D18*
X188468000Y-109220000D02*
X187392855Y-109220000D01*
X187392855Y-109220000D02*
X183054750Y-104881895D01*
X183054750Y-104881895D02*
X177743547Y-104881895D01*
X177743547Y-104881895D02*
X177107151Y-104881895D01*
X173519513Y-115518483D02*
X174155909Y-115518483D01*
X159268483Y-115518483D02*
X173519513Y-115518483D01*
X158000000Y-114250000D02*
X159268483Y-115518483D01*
X174500000Y-107000000D02*
X174949999Y-106550001D01*
X174949999Y-106550001D02*
X175439045Y-106550001D01*
X175439045Y-106550001D02*
X177107151Y-104881895D01*
X166500000Y-109500000D02*
X170000000Y-109500000D01*
X153441080Y-110252328D02*
X153513161Y-110324409D01*
X153441080Y-105058920D02*
X153441080Y-110252328D01*
X188468000Y-111760000D02*
X185708000Y-109000000D01*
X185708000Y-109000000D02*
X183503662Y-106795662D01*
X177500000Y-109000000D02*
X185708000Y-109000000D01*
X174000000Y-112500000D02*
X177500000Y-109000000D01*
X174000000Y-113500000D02*
X174000000Y-112500000D01*
X182778275Y-106795662D02*
X182141879Y-106795662D01*
X183503662Y-106795662D02*
X182778275Y-106795662D01*
D17*
X154500000Y-107500000D02*
X163500000Y-107500000D01*
X162000000Y-108500000D02*
X162500000Y-108500000D01*
X154500000Y-108500000D02*
X162000000Y-108500000D01*
X176654049Y-104019716D02*
X185000000Y-104019716D01*
X185000000Y-104019716D02*
X187145635Y-104019716D01*
X184807481Y-105289494D02*
X184807481Y-104212235D01*
X184807481Y-104212235D02*
X185000000Y-104019716D01*
X177250000Y-102345000D02*
X185470919Y-102345000D01*
X185470919Y-102345000D02*
X187145635Y-104019716D01*
X167103419Y-104251795D02*
X167951289Y-105099665D01*
X187265919Y-104140000D02*
X188468000Y-104140000D01*
X167951289Y-105099665D02*
X175574100Y-105099665D01*
X175574100Y-105099665D02*
X176654049Y-104019716D01*
X187145635Y-104019716D02*
X187265919Y-104140000D01*
X184596782Y-112924188D02*
X184896781Y-113224187D01*
X184287594Y-112615000D02*
X184596782Y-112924188D01*
X177250000Y-112615000D02*
X184287594Y-112615000D01*
X172500000Y-103000000D02*
X173155000Y-102345000D01*
X173155000Y-102345000D02*
X177250000Y-102345000D01*
X172500000Y-103500000D02*
X172500000Y-103000000D01*
X184823487Y-105289494D02*
X184807481Y-105289494D01*
X174500000Y-103500000D02*
X174500000Y-103491058D01*
X174500000Y-103491058D02*
X174671445Y-103319613D01*
X174671445Y-103319613D02*
X181809990Y-103319613D01*
X167994253Y-102871784D02*
X167569989Y-102871784D01*
X173500000Y-104500000D02*
X171500000Y-104500000D01*
X169871784Y-102871784D02*
X167994253Y-102871784D01*
X174500000Y-103500000D02*
X173500000Y-104500000D01*
X171500000Y-104500000D02*
X169871784Y-102871784D01*
X169061785Y-103561785D02*
X169200001Y-103700001D01*
X165000000Y-107500000D02*
X165000000Y-104000000D01*
X165000000Y-104000000D02*
X165438215Y-103561785D01*
X165438215Y-103561785D02*
X169061785Y-103561785D01*
X169200001Y-103700001D02*
X169500000Y-104000000D01*
X184601214Y-114300000D02*
X184266290Y-114634924D01*
X188468000Y-114300000D02*
X184601214Y-114300000D01*
X184266290Y-114634924D02*
X183966291Y-114934923D01*
X162086495Y-102152385D02*
X162107671Y-102131209D01*
X162086495Y-104460580D02*
X162086495Y-102152385D01*
X160988761Y-102549142D02*
X160988761Y-102124878D01*
X160988761Y-104075987D02*
X160988761Y-102549142D01*
X160148882Y-104915866D02*
X160988761Y-104075987D01*
D19*
G36*
X159563243Y-100220900D02*
X159562758Y-100776661D01*
X159774990Y-101290303D01*
X160161945Y-101677934D01*
X160053923Y-101938079D01*
X160053599Y-102310045D01*
X160153761Y-102552456D01*
X160153761Y-103730119D01*
X159860549Y-104023331D01*
X159619939Y-104122749D01*
X159356690Y-104385539D01*
X159214044Y-104729067D01*
X159213720Y-105101033D01*
X159355765Y-105444809D01*
X159618555Y-105708058D01*
X159962083Y-105850704D01*
X160334049Y-105851028D01*
X160677825Y-105708983D01*
X160941074Y-105446193D01*
X161041660Y-105203956D01*
X161282477Y-104963139D01*
X161293378Y-104989523D01*
X161556168Y-105252772D01*
X161899696Y-105395418D01*
X162271662Y-105395742D01*
X162615438Y-105253697D01*
X162878687Y-104990907D01*
X163021333Y-104647379D01*
X163021657Y-104275413D01*
X162921495Y-104033002D01*
X162921495Y-102609441D01*
X163042509Y-102318008D01*
X163042833Y-101946042D01*
X162981818Y-101798374D01*
X163292302Y-101909144D01*
X163847368Y-101881362D01*
X164231143Y-101722397D01*
X164300608Y-101480213D01*
X163500000Y-100679605D01*
X163485858Y-100693748D01*
X163306253Y-100514143D01*
X163320395Y-100500000D01*
X163306253Y-100485858D01*
X163485858Y-100306253D01*
X163500000Y-100320395D01*
X163514143Y-100306253D01*
X163693748Y-100485858D01*
X163679605Y-100500000D01*
X164480213Y-101300608D01*
X164722397Y-101231143D01*
X164772509Y-101090682D01*
X164854990Y-101290303D01*
X165247630Y-101683629D01*
X165760900Y-101896757D01*
X166316661Y-101897242D01*
X166830303Y-101685010D01*
X167223629Y-101292370D01*
X167436757Y-100779100D01*
X167436892Y-100623690D01*
X186983000Y-100623690D01*
X186983000Y-101314250D01*
X187141750Y-101473000D01*
X188341000Y-101473000D01*
X188341000Y-100273750D01*
X188595000Y-100273750D01*
X188595000Y-101473000D01*
X189794250Y-101473000D01*
X189953000Y-101314250D01*
X189953000Y-100623690D01*
X189856327Y-100390301D01*
X189677698Y-100211673D01*
X189444309Y-100115000D01*
X188753750Y-100115000D01*
X188595000Y-100273750D01*
X188341000Y-100273750D01*
X188182250Y-100115000D01*
X187491691Y-100115000D01*
X187258302Y-100211673D01*
X187079673Y-100390301D01*
X186983000Y-100623690D01*
X167436892Y-100623690D01*
X167437242Y-100223339D01*
X167225135Y-99710000D01*
X190290000Y-99710000D01*
X190290000Y-116290000D01*
X174918806Y-116290000D01*
X175075191Y-116133888D01*
X175240720Y-115735250D01*
X175241097Y-115303610D01*
X175076263Y-114904683D01*
X174771314Y-114599201D01*
X174476864Y-114476935D01*
X174613800Y-114420354D01*
X174919282Y-114115405D01*
X175084811Y-113716767D01*
X175085188Y-113285127D01*
X174935000Y-112921646D01*
X174935000Y-112887290D01*
X177887290Y-109935000D01*
X185320710Y-109935000D01*
X186985729Y-111600019D01*
X186953907Y-111760000D01*
X187066946Y-112328285D01*
X187388853Y-112810054D01*
X187718026Y-113030000D01*
X187388853Y-113249946D01*
X187245159Y-113465000D01*
X185809190Y-113465000D01*
X185831619Y-113410986D01*
X185831943Y-113039020D01*
X185689898Y-112695244D01*
X185427108Y-112431995D01*
X185184871Y-112331409D01*
X184878028Y-112024566D01*
X184841262Y-112000000D01*
X184607135Y-111843561D01*
X184287594Y-111780000D01*
X177677234Y-111780000D01*
X177436799Y-111680162D01*
X177064833Y-111679838D01*
X176721057Y-111821883D01*
X176457808Y-112084673D01*
X176315162Y-112428201D01*
X176314838Y-112800167D01*
X176456883Y-113143943D01*
X176719673Y-113407192D01*
X177063201Y-113549838D01*
X177435167Y-113550162D01*
X177677578Y-113450000D01*
X183941726Y-113450000D01*
X184004246Y-113512520D01*
X184069462Y-113670356D01*
X184010780Y-113709566D01*
X183677958Y-114042388D01*
X183437348Y-114141806D01*
X183174099Y-114404596D01*
X183031453Y-114748124D01*
X183031129Y-115120090D01*
X183173174Y-115463866D01*
X183435964Y-115727115D01*
X183779492Y-115869761D01*
X184151458Y-115870085D01*
X184495234Y-115728040D01*
X184758483Y-115465250D01*
X184859069Y-115223013D01*
X184947082Y-115135000D01*
X187245159Y-115135000D01*
X187388853Y-115350054D01*
X187870622Y-115671961D01*
X188438907Y-115785000D01*
X188497093Y-115785000D01*
X189065378Y-115671961D01*
X189547147Y-115350054D01*
X189869054Y-114868285D01*
X189982093Y-114300000D01*
X189869054Y-113731715D01*
X189547147Y-113249946D01*
X189217974Y-113030000D01*
X189547147Y-112810054D01*
X189869054Y-112328285D01*
X189982093Y-111760000D01*
X189869054Y-111191715D01*
X189547147Y-110709946D01*
X189217974Y-110490000D01*
X189547147Y-110270054D01*
X189869054Y-109788285D01*
X189982093Y-109220000D01*
X189869054Y-108651715D01*
X189547147Y-108169946D01*
X189217974Y-107950000D01*
X189547147Y-107730054D01*
X189869054Y-107248285D01*
X189982093Y-106680000D01*
X189869054Y-106111715D01*
X189547147Y-105629946D01*
X189217974Y-105410000D01*
X189547147Y-105190054D01*
X189869054Y-104708285D01*
X189982093Y-104140000D01*
X189869054Y-103571715D01*
X189547147Y-103089946D01*
X189503223Y-103060597D01*
X189677698Y-102988327D01*
X189856327Y-102809699D01*
X189953000Y-102576310D01*
X189953000Y-101885750D01*
X189794250Y-101727000D01*
X188595000Y-101727000D01*
X188595000Y-101747000D01*
X188341000Y-101747000D01*
X188341000Y-101727000D01*
X187141750Y-101727000D01*
X186983000Y-101885750D01*
X186983000Y-102576310D01*
X187053642Y-102746855D01*
X186061353Y-101754566D01*
X185790460Y-101573561D01*
X185470919Y-101510000D01*
X177677234Y-101510000D01*
X177436799Y-101410162D01*
X177064833Y-101409838D01*
X176822422Y-101510000D01*
X173155000Y-101510000D01*
X172835459Y-101573561D01*
X172564566Y-101754566D01*
X171909566Y-102409566D01*
X171728561Y-102680459D01*
X171665000Y-103000000D01*
X171665000Y-103072766D01*
X171565162Y-103313201D01*
X171565100Y-103384232D01*
X170462218Y-102281350D01*
X170384770Y-102229601D01*
X170191325Y-102100345D01*
X169871784Y-102036784D01*
X167997223Y-102036784D01*
X167756788Y-101936946D01*
X167384822Y-101936622D01*
X167041046Y-102078667D01*
X166777797Y-102341457D01*
X166635151Y-102684985D01*
X166635115Y-102726785D01*
X165438215Y-102726785D01*
X165118675Y-102790345D01*
X164847781Y-102971351D01*
X164409566Y-103409566D01*
X164228561Y-103680459D01*
X164165000Y-104000000D01*
X164165000Y-106842716D01*
X164030327Y-106707808D01*
X163686799Y-106565162D01*
X163314833Y-106564838D01*
X163072422Y-106665000D01*
X154927234Y-106665000D01*
X154686799Y-106565162D01*
X154376080Y-106564891D01*
X154376080Y-105636472D01*
X154525891Y-105275687D01*
X154526268Y-104844047D01*
X154361434Y-104445120D01*
X154056485Y-104139638D01*
X153657847Y-103974109D01*
X153226207Y-103973732D01*
X152827280Y-104138566D01*
X152521798Y-104443515D01*
X152356269Y-104842153D01*
X152355892Y-105273793D01*
X152506080Y-105637274D01*
X152506080Y-109920447D01*
X152428350Y-110107642D01*
X152427973Y-110539282D01*
X152592807Y-110938209D01*
X152897756Y-111243691D01*
X153296394Y-111409220D01*
X153728034Y-111409597D01*
X154126961Y-111244763D01*
X154432443Y-110939814D01*
X154597972Y-110541176D01*
X154598349Y-110109536D01*
X154435277Y-109714873D01*
X165414812Y-109714873D01*
X165579646Y-110113800D01*
X165884595Y-110419282D01*
X166283233Y-110584811D01*
X166714873Y-110585188D01*
X167078354Y-110435000D01*
X169422448Y-110435000D01*
X169783233Y-110584811D01*
X170214873Y-110585188D01*
X170613800Y-110420354D01*
X170919282Y-110115405D01*
X171084811Y-109716767D01*
X171085188Y-109285127D01*
X170920354Y-108886200D01*
X170615405Y-108580718D01*
X170216767Y-108415189D01*
X169785127Y-108414812D01*
X169421646Y-108565000D01*
X167077552Y-108565000D01*
X166716767Y-108415189D01*
X166285127Y-108414812D01*
X165886200Y-108579646D01*
X165580718Y-108884595D01*
X165415189Y-109283233D01*
X165414812Y-109714873D01*
X154435277Y-109714873D01*
X154433515Y-109710609D01*
X154376080Y-109653074D01*
X154376080Y-109434893D01*
X154685167Y-109435162D01*
X154927578Y-109335000D01*
X162072766Y-109335000D01*
X162313201Y-109434838D01*
X162685167Y-109435162D01*
X163028943Y-109293117D01*
X163292192Y-109030327D01*
X163434838Y-108686799D01*
X163435057Y-108434944D01*
X163685167Y-108435162D01*
X164028943Y-108293117D01*
X164250155Y-108072291D01*
X164469673Y-108292192D01*
X164813201Y-108434838D01*
X165185167Y-108435162D01*
X165528943Y-108293117D01*
X165792192Y-108030327D01*
X165934838Y-107686799D01*
X165935162Y-107314833D01*
X165835000Y-107072422D01*
X165835000Y-104396785D01*
X166168292Y-104396785D01*
X166168257Y-104436962D01*
X166310302Y-104780738D01*
X166573092Y-105043987D01*
X166815329Y-105144573D01*
X167360855Y-105690099D01*
X167631748Y-105871104D01*
X167951289Y-105934665D01*
X174237079Y-105934665D01*
X173886200Y-106079646D01*
X173580718Y-106384595D01*
X173415189Y-106783233D01*
X173414812Y-107214873D01*
X173579646Y-107613800D01*
X173884595Y-107919282D01*
X174283233Y-108084811D01*
X174714873Y-108085188D01*
X175113800Y-107920354D01*
X175419282Y-107615405D01*
X175476526Y-107477545D01*
X175796854Y-107413828D01*
X176100190Y-107211146D01*
X177359905Y-105951431D01*
X177685505Y-105816895D01*
X181669449Y-105816895D01*
X181528079Y-105875308D01*
X181222597Y-106180257D01*
X181057068Y-106578895D01*
X181056691Y-107010535D01*
X181221525Y-107409462D01*
X181526474Y-107714944D01*
X181925112Y-107880473D01*
X182356752Y-107880850D01*
X182720233Y-107730662D01*
X183116372Y-107730662D01*
X183450710Y-108065000D01*
X177500000Y-108065000D01*
X177142191Y-108136173D01*
X176838855Y-108338855D01*
X173338855Y-111838855D01*
X173136173Y-112142191D01*
X173065000Y-112500000D01*
X173065000Y-112922448D01*
X172915189Y-113283233D01*
X172914812Y-113714873D01*
X173079646Y-114113800D01*
X173384595Y-114419282D01*
X173679045Y-114541548D01*
X173577555Y-114583483D01*
X159655773Y-114583483D01*
X159069536Y-113997246D01*
X158920354Y-113636200D01*
X158615405Y-113330718D01*
X158216767Y-113165189D01*
X157785127Y-113164812D01*
X157386200Y-113329646D01*
X157080718Y-113634595D01*
X156915189Y-114033233D01*
X156914812Y-114464873D01*
X157079646Y-114863800D01*
X157384595Y-115169282D01*
X157747814Y-115320104D01*
X158607338Y-116179628D01*
X158772522Y-116290000D01*
X147710000Y-116290000D01*
X147710000Y-111685167D01*
X162564838Y-111685167D01*
X162706883Y-112028943D01*
X162969673Y-112292192D01*
X163211910Y-112392778D01*
X163409566Y-112590434D01*
X163680460Y-112771440D01*
X164000000Y-112835000D01*
X169572766Y-112835000D01*
X169813201Y-112934838D01*
X170185167Y-112935162D01*
X170528943Y-112793117D01*
X170792192Y-112530327D01*
X170934838Y-112186799D01*
X170935162Y-111814833D01*
X170793117Y-111471057D01*
X170530327Y-111207808D01*
X170186799Y-111065162D01*
X169814833Y-111064838D01*
X169572422Y-111165000D01*
X164373252Y-111165000D01*
X164293117Y-110971057D01*
X164030327Y-110707808D01*
X163686799Y-110565162D01*
X163314833Y-110564838D01*
X162971057Y-110706883D01*
X162707808Y-110969673D01*
X162565162Y-111313201D01*
X162564838Y-111685167D01*
X147710000Y-111685167D01*
X147710000Y-110613841D01*
X150609444Y-110613841D01*
X150634014Y-110818546D01*
X151025524Y-110944470D01*
X151435422Y-110910984D01*
X151658586Y-110818546D01*
X151683156Y-110613841D01*
X151146300Y-110076985D01*
X150609444Y-110613841D01*
X147710000Y-110613841D01*
X147710000Y-109776604D01*
X150099210Y-109776604D01*
X150132696Y-110186502D01*
X150225134Y-110409666D01*
X150429839Y-110434236D01*
X150966695Y-109897380D01*
X151325905Y-109897380D01*
X151862761Y-110434236D01*
X152067466Y-110409666D01*
X152193390Y-110018156D01*
X152159904Y-109608258D01*
X152067466Y-109385094D01*
X151862761Y-109360524D01*
X151325905Y-109897380D01*
X150966695Y-109897380D01*
X150429839Y-109360524D01*
X150225134Y-109385094D01*
X150099210Y-109776604D01*
X147710000Y-109776604D01*
X147710000Y-109180919D01*
X150609444Y-109180919D01*
X151146300Y-109717775D01*
X151683156Y-109180919D01*
X151658586Y-108976214D01*
X151267076Y-108850290D01*
X150857178Y-108883776D01*
X150634014Y-108976214D01*
X150609444Y-109180919D01*
X147710000Y-109180919D01*
X147710000Y-106304809D01*
X150114881Y-106304809D01*
X150271933Y-106684904D01*
X150562486Y-106975965D01*
X150942306Y-107133680D01*
X151353569Y-107134039D01*
X151733664Y-106976987D01*
X152024725Y-106686434D01*
X152182440Y-106306614D01*
X152182799Y-105895351D01*
X152025747Y-105515256D01*
X151735194Y-105224195D01*
X151355374Y-105066480D01*
X150944111Y-105066121D01*
X150564016Y-105223173D01*
X150272955Y-105513726D01*
X150115240Y-105893546D01*
X150114881Y-106304809D01*
X147710000Y-106304809D01*
X147710000Y-99710000D01*
X159775387Y-99710000D01*
X159563243Y-100220900D01*
X159563243Y-100220900D01*
G37*
X159563243Y-100220900D02*
X159562758Y-100776661D01*
X159774990Y-101290303D01*
X160161945Y-101677934D01*
X160053923Y-101938079D01*
X160053599Y-102310045D01*
X160153761Y-102552456D01*
X160153761Y-103730119D01*
X159860549Y-104023331D01*
X159619939Y-104122749D01*
X159356690Y-104385539D01*
X159214044Y-104729067D01*
X159213720Y-105101033D01*
X159355765Y-105444809D01*
X159618555Y-105708058D01*
X159962083Y-105850704D01*
X160334049Y-105851028D01*
X160677825Y-105708983D01*
X160941074Y-105446193D01*
X161041660Y-105203956D01*
X161282477Y-104963139D01*
X161293378Y-104989523D01*
X161556168Y-105252772D01*
X161899696Y-105395418D01*
X162271662Y-105395742D01*
X162615438Y-105253697D01*
X162878687Y-104990907D01*
X163021333Y-104647379D01*
X163021657Y-104275413D01*
X162921495Y-104033002D01*
X162921495Y-102609441D01*
X163042509Y-102318008D01*
X163042833Y-101946042D01*
X162981818Y-101798374D01*
X163292302Y-101909144D01*
X163847368Y-101881362D01*
X164231143Y-101722397D01*
X164300608Y-101480213D01*
X163500000Y-100679605D01*
X163485858Y-100693748D01*
X163306253Y-100514143D01*
X163320395Y-100500000D01*
X163306253Y-100485858D01*
X163485858Y-100306253D01*
X163500000Y-100320395D01*
X163514143Y-100306253D01*
X163693748Y-100485858D01*
X163679605Y-100500000D01*
X164480213Y-101300608D01*
X164722397Y-101231143D01*
X164772509Y-101090682D01*
X164854990Y-101290303D01*
X165247630Y-101683629D01*
X165760900Y-101896757D01*
X166316661Y-101897242D01*
X166830303Y-101685010D01*
X167223629Y-101292370D01*
X167436757Y-100779100D01*
X167436892Y-100623690D01*
X186983000Y-100623690D01*
X186983000Y-101314250D01*
X187141750Y-101473000D01*
X188341000Y-101473000D01*
X188341000Y-100273750D01*
X188595000Y-100273750D01*
X188595000Y-101473000D01*
X189794250Y-101473000D01*
X189953000Y-101314250D01*
X189953000Y-100623690D01*
X189856327Y-100390301D01*
X189677698Y-100211673D01*
X189444309Y-100115000D01*
X188753750Y-100115000D01*
X188595000Y-100273750D01*
X188341000Y-100273750D01*
X188182250Y-100115000D01*
X187491691Y-100115000D01*
X187258302Y-100211673D01*
X187079673Y-100390301D01*
X186983000Y-100623690D01*
X167436892Y-100623690D01*
X167437242Y-100223339D01*
X167225135Y-99710000D01*
X190290000Y-99710000D01*
X190290000Y-116290000D01*
X174918806Y-116290000D01*
X175075191Y-116133888D01*
X175240720Y-115735250D01*
X175241097Y-115303610D01*
X175076263Y-114904683D01*
X174771314Y-114599201D01*
X174476864Y-114476935D01*
X174613800Y-114420354D01*
X174919282Y-114115405D01*
X175084811Y-113716767D01*
X175085188Y-113285127D01*
X174935000Y-112921646D01*
X174935000Y-112887290D01*
X177887290Y-109935000D01*
X185320710Y-109935000D01*
X186985729Y-111600019D01*
X186953907Y-111760000D01*
X187066946Y-112328285D01*
X187388853Y-112810054D01*
X187718026Y-113030000D01*
X187388853Y-113249946D01*
X187245159Y-113465000D01*
X185809190Y-113465000D01*
X185831619Y-113410986D01*
X185831943Y-113039020D01*
X185689898Y-112695244D01*
X185427108Y-112431995D01*
X185184871Y-112331409D01*
X184878028Y-112024566D01*
X184841262Y-112000000D01*
X184607135Y-111843561D01*
X184287594Y-111780000D01*
X177677234Y-111780000D01*
X177436799Y-111680162D01*
X177064833Y-111679838D01*
X176721057Y-111821883D01*
X176457808Y-112084673D01*
X176315162Y-112428201D01*
X176314838Y-112800167D01*
X176456883Y-113143943D01*
X176719673Y-113407192D01*
X177063201Y-113549838D01*
X177435167Y-113550162D01*
X177677578Y-113450000D01*
X183941726Y-113450000D01*
X184004246Y-113512520D01*
X184069462Y-113670356D01*
X184010780Y-113709566D01*
X183677958Y-114042388D01*
X183437348Y-114141806D01*
X183174099Y-114404596D01*
X183031453Y-114748124D01*
X183031129Y-115120090D01*
X183173174Y-115463866D01*
X183435964Y-115727115D01*
X183779492Y-115869761D01*
X184151458Y-115870085D01*
X184495234Y-115728040D01*
X184758483Y-115465250D01*
X184859069Y-115223013D01*
X184947082Y-115135000D01*
X187245159Y-115135000D01*
X187388853Y-115350054D01*
X187870622Y-115671961D01*
X188438907Y-115785000D01*
X188497093Y-115785000D01*
X189065378Y-115671961D01*
X189547147Y-115350054D01*
X189869054Y-114868285D01*
X189982093Y-114300000D01*
X189869054Y-113731715D01*
X189547147Y-113249946D01*
X189217974Y-113030000D01*
X189547147Y-112810054D01*
X189869054Y-112328285D01*
X189982093Y-111760000D01*
X189869054Y-111191715D01*
X189547147Y-110709946D01*
X189217974Y-110490000D01*
X189547147Y-110270054D01*
X189869054Y-109788285D01*
X189982093Y-109220000D01*
X189869054Y-108651715D01*
X189547147Y-108169946D01*
X189217974Y-107950000D01*
X189547147Y-107730054D01*
X189869054Y-107248285D01*
X189982093Y-106680000D01*
X189869054Y-106111715D01*
X189547147Y-105629946D01*
X189217974Y-105410000D01*
X189547147Y-105190054D01*
X189869054Y-104708285D01*
X189982093Y-104140000D01*
X189869054Y-103571715D01*
X189547147Y-103089946D01*
X189503223Y-103060597D01*
X189677698Y-102988327D01*
X189856327Y-102809699D01*
X189953000Y-102576310D01*
X189953000Y-101885750D01*
X189794250Y-101727000D01*
X188595000Y-101727000D01*
X188595000Y-101747000D01*
X188341000Y-101747000D01*
X188341000Y-101727000D01*
X187141750Y-101727000D01*
X186983000Y-101885750D01*
X186983000Y-102576310D01*
X187053642Y-102746855D01*
X186061353Y-101754566D01*
X185790460Y-101573561D01*
X185470919Y-101510000D01*
X177677234Y-101510000D01*
X177436799Y-101410162D01*
X177064833Y-101409838D01*
X176822422Y-101510000D01*
X173155000Y-101510000D01*
X172835459Y-101573561D01*
X172564566Y-101754566D01*
X171909566Y-102409566D01*
X171728561Y-102680459D01*
X171665000Y-103000000D01*
X171665000Y-103072766D01*
X171565162Y-103313201D01*
X171565100Y-103384232D01*
X170462218Y-102281350D01*
X170384770Y-102229601D01*
X170191325Y-102100345D01*
X169871784Y-102036784D01*
X167997223Y-102036784D01*
X167756788Y-101936946D01*
X167384822Y-101936622D01*
X167041046Y-102078667D01*
X166777797Y-102341457D01*
X166635151Y-102684985D01*
X166635115Y-102726785D01*
X165438215Y-102726785D01*
X165118675Y-102790345D01*
X164847781Y-102971351D01*
X164409566Y-103409566D01*
X164228561Y-103680459D01*
X164165000Y-104000000D01*
X164165000Y-106842716D01*
X164030327Y-106707808D01*
X163686799Y-106565162D01*
X163314833Y-106564838D01*
X163072422Y-106665000D01*
X154927234Y-106665000D01*
X154686799Y-106565162D01*
X154376080Y-106564891D01*
X154376080Y-105636472D01*
X154525891Y-105275687D01*
X154526268Y-104844047D01*
X154361434Y-104445120D01*
X154056485Y-104139638D01*
X153657847Y-103974109D01*
X153226207Y-103973732D01*
X152827280Y-104138566D01*
X152521798Y-104443515D01*
X152356269Y-104842153D01*
X152355892Y-105273793D01*
X152506080Y-105637274D01*
X152506080Y-109920447D01*
X152428350Y-110107642D01*
X152427973Y-110539282D01*
X152592807Y-110938209D01*
X152897756Y-111243691D01*
X153296394Y-111409220D01*
X153728034Y-111409597D01*
X154126961Y-111244763D01*
X154432443Y-110939814D01*
X154597972Y-110541176D01*
X154598349Y-110109536D01*
X154435277Y-109714873D01*
X165414812Y-109714873D01*
X165579646Y-110113800D01*
X165884595Y-110419282D01*
X166283233Y-110584811D01*
X166714873Y-110585188D01*
X167078354Y-110435000D01*
X169422448Y-110435000D01*
X169783233Y-110584811D01*
X170214873Y-110585188D01*
X170613800Y-110420354D01*
X170919282Y-110115405D01*
X171084811Y-109716767D01*
X171085188Y-109285127D01*
X170920354Y-108886200D01*
X170615405Y-108580718D01*
X170216767Y-108415189D01*
X169785127Y-108414812D01*
X169421646Y-108565000D01*
X167077552Y-108565000D01*
X166716767Y-108415189D01*
X166285127Y-108414812D01*
X165886200Y-108579646D01*
X165580718Y-108884595D01*
X165415189Y-109283233D01*
X165414812Y-109714873D01*
X154435277Y-109714873D01*
X154433515Y-109710609D01*
X154376080Y-109653074D01*
X154376080Y-109434893D01*
X154685167Y-109435162D01*
X154927578Y-109335000D01*
X162072766Y-109335000D01*
X162313201Y-109434838D01*
X162685167Y-109435162D01*
X163028943Y-109293117D01*
X163292192Y-109030327D01*
X163434838Y-108686799D01*
X163435057Y-108434944D01*
X163685167Y-108435162D01*
X164028943Y-108293117D01*
X164250155Y-108072291D01*
X164469673Y-108292192D01*
X164813201Y-108434838D01*
X165185167Y-108435162D01*
X165528943Y-108293117D01*
X165792192Y-108030327D01*
X165934838Y-107686799D01*
X165935162Y-107314833D01*
X165835000Y-107072422D01*
X165835000Y-104396785D01*
X166168292Y-104396785D01*
X166168257Y-104436962D01*
X166310302Y-104780738D01*
X166573092Y-105043987D01*
X166815329Y-105144573D01*
X167360855Y-105690099D01*
X167631748Y-105871104D01*
X167951289Y-105934665D01*
X174237079Y-105934665D01*
X173886200Y-106079646D01*
X173580718Y-106384595D01*
X173415189Y-106783233D01*
X173414812Y-107214873D01*
X173579646Y-107613800D01*
X173884595Y-107919282D01*
X174283233Y-108084811D01*
X174714873Y-108085188D01*
X175113800Y-107920354D01*
X175419282Y-107615405D01*
X175476526Y-107477545D01*
X175796854Y-107413828D01*
X176100190Y-107211146D01*
X177359905Y-105951431D01*
X177685505Y-105816895D01*
X181669449Y-105816895D01*
X181528079Y-105875308D01*
X181222597Y-106180257D01*
X181057068Y-106578895D01*
X181056691Y-107010535D01*
X181221525Y-107409462D01*
X181526474Y-107714944D01*
X181925112Y-107880473D01*
X182356752Y-107880850D01*
X182720233Y-107730662D01*
X183116372Y-107730662D01*
X183450710Y-108065000D01*
X177500000Y-108065000D01*
X177142191Y-108136173D01*
X176838855Y-108338855D01*
X173338855Y-111838855D01*
X173136173Y-112142191D01*
X173065000Y-112500000D01*
X173065000Y-112922448D01*
X172915189Y-113283233D01*
X172914812Y-113714873D01*
X173079646Y-114113800D01*
X173384595Y-114419282D01*
X173679045Y-114541548D01*
X173577555Y-114583483D01*
X159655773Y-114583483D01*
X159069536Y-113997246D01*
X158920354Y-113636200D01*
X158615405Y-113330718D01*
X158216767Y-113165189D01*
X157785127Y-113164812D01*
X157386200Y-113329646D01*
X157080718Y-113634595D01*
X156915189Y-114033233D01*
X156914812Y-114464873D01*
X157079646Y-114863800D01*
X157384595Y-115169282D01*
X157747814Y-115320104D01*
X158607338Y-116179628D01*
X158772522Y-116290000D01*
X147710000Y-116290000D01*
X147710000Y-111685167D01*
X162564838Y-111685167D01*
X162706883Y-112028943D01*
X162969673Y-112292192D01*
X163211910Y-112392778D01*
X163409566Y-112590434D01*
X163680460Y-112771440D01*
X164000000Y-112835000D01*
X169572766Y-112835000D01*
X169813201Y-112934838D01*
X170185167Y-112935162D01*
X170528943Y-112793117D01*
X170792192Y-112530327D01*
X170934838Y-112186799D01*
X170935162Y-111814833D01*
X170793117Y-111471057D01*
X170530327Y-111207808D01*
X170186799Y-111065162D01*
X169814833Y-111064838D01*
X169572422Y-111165000D01*
X164373252Y-111165000D01*
X164293117Y-110971057D01*
X164030327Y-110707808D01*
X163686799Y-110565162D01*
X163314833Y-110564838D01*
X162971057Y-110706883D01*
X162707808Y-110969673D01*
X162565162Y-111313201D01*
X162564838Y-111685167D01*
X147710000Y-111685167D01*
X147710000Y-110613841D01*
X150609444Y-110613841D01*
X150634014Y-110818546D01*
X151025524Y-110944470D01*
X151435422Y-110910984D01*
X151658586Y-110818546D01*
X151683156Y-110613841D01*
X151146300Y-110076985D01*
X150609444Y-110613841D01*
X147710000Y-110613841D01*
X147710000Y-109776604D01*
X150099210Y-109776604D01*
X150132696Y-110186502D01*
X150225134Y-110409666D01*
X150429839Y-110434236D01*
X150966695Y-109897380D01*
X151325905Y-109897380D01*
X151862761Y-110434236D01*
X152067466Y-110409666D01*
X152193390Y-110018156D01*
X152159904Y-109608258D01*
X152067466Y-109385094D01*
X151862761Y-109360524D01*
X151325905Y-109897380D01*
X150966695Y-109897380D01*
X150429839Y-109360524D01*
X150225134Y-109385094D01*
X150099210Y-109776604D01*
X147710000Y-109776604D01*
X147710000Y-109180919D01*
X150609444Y-109180919D01*
X151146300Y-109717775D01*
X151683156Y-109180919D01*
X151658586Y-108976214D01*
X151267076Y-108850290D01*
X150857178Y-108883776D01*
X150634014Y-108976214D01*
X150609444Y-109180919D01*
X147710000Y-109180919D01*
X147710000Y-106304809D01*
X150114881Y-106304809D01*
X150271933Y-106684904D01*
X150562486Y-106975965D01*
X150942306Y-107133680D01*
X151353569Y-107134039D01*
X151733664Y-106976987D01*
X152024725Y-106686434D01*
X152182440Y-106306614D01*
X152182799Y-105895351D01*
X152025747Y-105515256D01*
X151735194Y-105224195D01*
X151355374Y-105066480D01*
X150944111Y-105066121D01*
X150564016Y-105223173D01*
X150272955Y-105513726D01*
X150115240Y-105893546D01*
X150114881Y-106304809D01*
X147710000Y-106304809D01*
X147710000Y-99710000D01*
X159775387Y-99710000D01*
X159563243Y-100220900D01*
M02*
